<?xml version="1.0" encoding="UTF-8"?><svg id="a" xmlns="http://www.w3.org/2000/svg" viewBox="0 0 200 200"><defs><style>.c{fill:#fff;}</style></defs><g id="b"><g><path class="c" d="M118.02,23.92h50.98V176.08c-46,0-92,0-138,0,0-50.72,0-101.44,0-152.15,28.71,0,57.43,0,86.14,0-5.82,2.14-11.43,4.51-14.4,10.61-1.01,2.07-2.38,4.02-3.87,5.78-4.46,5.25-9.06,10.37-13.61,15.54-11.32,12.87-22.61,25.77-34.05,38.53-.97,1.08-4.17,1.97-4.37,1.66-3.83-5.84-9.22-1.91-14.54-2.67,4.37,4.17,2.36,8.18-.07,12.37,3.99,0,7.06,.14,10.12-.07,1.12-.08,2.62-.69,3.18-1.55,2.3-3.54,4.11-2.16,6.15,.19,16.04,18.48,32.11,36.93,48.14,55.41,1.04,1.2,1.95,2.57,2.64,3.99,3.09,6.39,8.5,9.67,15.17,10.6,1.89,.26,4.97-1.28,5.88-2.91,.75-1.33-.31-5.06-1.65-5.83-1.62-.93-4.41,.02-6.64,.43-.66,.12-1.15,1.19-1.87,2-3.62-3.34-4.86-7.32-4.55-11.94,.53-7.79,5.62-12.68,11.12-17.16,10.89-8.87,17.54-19.91,18.16-34.17,.12-2.85,1.36-3.13,3.61-2.16,.16,1.91,.3,3.7,.48,5.85,8.77-3.16,17.08-6.15,26.58-9.57-9.52-3.37-17.93-6.34-26.87-9.51,0,2.15,.24,3.52-.08,4.74-.26,.99-1.2,1.8-1.83,2.68-.61-.78-1.72-1.54-1.75-2.34-.63-15.2-8.13-26.52-19.59-35.81-2.69-2.18-5.15-4.86-7.08-7.73-4.32-6.43-3.73-14.06-.22-17.57,3.78,.29,6.67,1.23,8.91,.4,1.29-.48,2.29-3.96,1.97-5.84-.26-1.51-2.7-2.65-4.18-3.96Z"/><path d="M118.02,23.92c1.48,1.3,3.92,2.44,4.18,3.96,.32,1.88-.68,5.36-1.97,5.84-2.24,.83-5.14-.11-8.91-.4-3.5,3.5-4.09,11.13,.22,17.57,1.93,2.88,4.39,5.55,7.08,7.73,11.46,9.29,18.97,20.61,19.59,35.81,.03,.8,1.14,1.56,1.75,2.34,.64-.89,1.57-1.7,1.83-2.68,.32-1.22,.08-2.59,.08-4.74,8.95,3.17,17.35,6.14,26.87,9.51-9.5,3.42-17.82,6.42-26.58,9.57-.18-2.14-.32-3.94-.48-5.85-2.24-.97-3.48-.7-3.61,2.16-.62,14.26-7.27,25.31-18.16,34.17-5.5,4.48-10.59,9.37-11.12,17.16-.31,4.62,.92,8.6,4.55,11.94,.72-.81,1.21-1.88,1.87-2,2.23-.41,5.02-1.36,6.64-.43,1.34,.77,2.4,4.5,1.65,5.83-.92,1.63-3.99,3.17-5.88,2.91-6.66-.93-12.08-4.21-15.17-10.6-.69-1.42-1.6-2.79-2.64-3.99-16.03-18.49-32.1-36.93-48.14-55.41-2.05-2.36-3.85-3.74-6.15-.19-.56,.87-2.07,1.48-3.18,1.55-3.06,.21-6.14,.07-10.12,.07,2.43-4.2,4.44-8.2,.07-12.37,5.31,.77,10.7-3.16,14.54,2.67,.2,.31,3.4-.58,4.37-1.66,11.44-12.76,22.73-25.67,34.05-38.53,4.55-5.17,9.15-10.3,13.61-15.54,1.49-1.76,2.87-3.71,3.87-5.78,2.97-6.1,8.58-8.47,14.4-10.61h.88Zm2.64,72.71c.12-10.7-2.49-20.07-9.44-27.89-5.96-6.7-12.08-13.23-11.99-23.45-14.86,16.89-29.73,33.77-45.19,51.34H120.66Zm-66.1,5.67c15.33,17.6,30.04,34.49,44.74,51.37,.23-7.97,3.29-14.06,8.21-19.43,1.98-2.16,3.92-4.36,5.67-6.7,5.54-7.42,7.63-15.86,7.43-25.24H54.56Z"/><path class="c" d="M120.66,96.64H54.04c15.46-17.56,30.32-34.45,45.19-51.34-.09,10.22,6.03,16.75,11.99,23.45,6.96,7.82,9.56,17.18,9.44,27.89Z"/><path class="c" d="M54.56,102.3H120.61c.2,9.38-1.89,17.82-7.43,25.24-1.75,2.34-3.69,4.54-5.67,6.7-4.92,5.37-7.98,11.46-8.21,19.43-14.7-16.88-29.41-33.77-44.74-51.37Z"/></g></g></svg>