<?xml version="1.0" encoding="UTF-8"?><svg xmlns="http://www.w3.org/2000/svg" viewBox="0 0 200 200"><defs><style>.f{fill:#f5d582;}.g{fill:#334056;}.h{fill:#cd665f;}.i{fill:#d68458;}</style></defs><g id="a"/><g id="b"><g><g><polygon class="g" points="151.14 122.72 152.67 107.2 151.91 96.63 145.12 76.43 137.56 62.79 128.4 51.95 116.45 45.74 116.68 45.13 128.91 51.28 139.09 62.39 147.07 75.9 153.44 96.63 153.44 107.26 151.62 122.72 151.14 122.72"/><polygon class="g" points="119.91 91.82 136.2 83.25 141.64 105.19 125.68 110.95 119.91 91.82"/><polygon class="i" points="139.94 80.58 136.2 83.25 138.57 92.82 144.01 84.99 139.94 80.58"/><polygon class="i" points="142.32 77.5 146.56 81.38 144.01 84.99 139.94 80.58 142.32 77.5"/><polygon class="i" points="119.91 91.82 113.8 91.28 110.91 95.29 122 98.74 119.91 91.82"/><polygon class="i" points="115.33 88.07 110.91 95.29 116.45 97.02 118.72 87.4 115.33 88.07"/><polygon class="i" points="141.64 105.19 147.24 129.94 138.07 131.55 125.68 110.95 141.64 105.19"/><polygon class="i" points="125.68 131.55 133.51 131.87 141.64 105.19 125.68 110.95 125.68 131.55"/><polygon class="g" points="138.07 131.55 144.18 150.14 149.27 150.14 147.24 129.94 138.07 131.55"/><polygon class="g" points="133.51 131.87 128.74 147.2 124.17 147.2 125.68 131.55 133.51 131.87"/><polygon class="f" points="119.91 91.82 126.59 92.21 128.48 96.63 129.58 96.15 128.58 91.28 136.2 83.25 119.91 91.82"/><polygon class="f" points="125.68 110.95 121.66 129 132.64 129.94 133.44 114.82 136.95 129.68 148.26 127.67 141.64 105.19 125.68 110.95"/><polygon class="h" points="117.53 83.66 119.91 79.71 125.68 80.04 129.58 84.73 129.24 89.54 124.85 92.82 119.91 89.7 117.53 83.66"/><polygon class="h" points="149.27 150.14 151.14 154.16 150.2 155.53 145.71 155.49 144.18 150.14 149.27 150.14"/><polygon class="h" points="128.74 147.2 128.84 150.91 114.48 151.88 124.17 147.2 128.74 147.2"/><polygon class="f" points="117.36 46.06 121.05 88 120.42 88 117.02 45.93 117.36 46.06"/><polygon class="f" points="151.31 122.05 121.05 88 120.42 88 151.31 122.58 151.31 122.05"/><g><polygon class="i" points="150.04 68.85 147.18 69.78 146.52 70.92 146.99 71.29 148.73 70.67 150.04 68.85"/><polygon class="i" points="118.5 89.26 146.52 70.92 146.99 71.29 118.88 89.48 118.5 89.26"/></g><polygon class="f" points="118.72 87.4 120.25 85.8 123.3 89.27 122 90.43 117.95 90.65 118.72 87.4"/><polygon class="f" points="142.32 77.5 141.64 71.79 146.05 71.48 148.6 75.09 146.56 78.34 146.56 81.38 142.32 77.5"/></g><g><polygon class="g" points="87.34 86.78 104.18 84.54 107.79 105.61 91.34 107.01 87.34 86.78"/><polygon class="i" points="88.46 129.18 91.34 107.01 107.79 105.61 95.7 129.93 88.46 129.18"/><polygon class="i" points="112.06 129.93 107.79 105.61 91.34 107.01 105.3 129.31 112.06 129.93"/><polygon class="g" points="83.6 150.38 88.46 129.18 95.7 129.93 88.46 150.38 83.6 150.38"/><polygon class="g" points="105.3 129.31 109.66 152.75 114.4 152.38 112.06 129.93 105.3 129.31"/><polygon class="g" points="104.18 84.54 117.52 82.42 118.64 87.03 105.81 94.06 104.18 84.54"/><polygon class="g" points="124.88 80.55 117.52 82.42 118.64 87.03 125.77 83.79 124.88 80.55"/><polygon class="g" points="89.05 95.42 77.24 92.27 76.49 88.48 87.34 86.78 89.05 95.42"/><polygon class="f" points="104.18 84.54 97.57 88.24 98.13 94.06 96.57 94.51 95.7 88.24 87.34 86.78 104.18 84.54"/><polygon class="f" points="91.34 107.01 87.34 126.53 99.69 127.94 99.44 113.82 102.71 127.94 113.66 128.43 107.79 105.61 91.34 107.01"/><polygon class="h" points="91.62 86.21 89.05 77.51 90.96 73.56 95.07 72.44 98.57 74.17 99.44 83.16 98.57 87.03 91.62 86.21"/><polygon class="g" points="76.49 88.48 87.84 85.53 89.05 89.38 77.24 92.27 76.49 88.48"/><polygon class="f" points="126.5 77.8 124.88 80.55 125.77 83.79 131.37 80.8 130.49 77.3 129.12 76.68 126.5 77.8"/><polygon class="h" points="83.6 150.38 76.49 154.78 89.65 154.78 88.46 150.38 83.6 150.38"/><polygon class="h" points="109.66 152.75 109.85 155.35 118.77 157.12 114.4 152.38 109.66 152.75"/><polyline class="f" points="103.43 48.1 92.83 87.4 93.27 87.4 103.8 48.12 103.43 48.1"/><polygon class="f" points="121.51 118.08 93.27 87.4 92.83 87.4 121.26 118.46 121.51 118.08"/><g><polygon class="i" points="134.99 74.95 131.76 74.69 130.46 75.88 130.68 76.64 132.67 76.72 134.99 74.95"/><polygon class="i" points="93.21 85.89 130.46 75.88 130.68 76.64 93.44 86.4 93.21 85.89"/></g><polygon class="g" points="102.81 46.75 118.94 59.15 127 69.92 130.99 84.2 130.85 95.8 128.6 104.5 121.41 119.46 120.79 118.43 127.35 103.39 129.54 88.84 125.03 70.33 117.76 60.06 102.71 47.5 102.81 46.75"/><polygon class="f" points="88.96 84.41 87.84 85.53 89.09 89.4 93.83 87.4 92.95 83.91 91.58 83.29 88.96 84.41"/></g><g><polygon class="g" points="63.97 39.17 84.6 51.36 95.57 62.83 102.29 78.99 103.8 92.6 102.43 103.12 96.2 121.7 95.32 120.58 100.81 102 101.27 84.63 93.33 63.59 83.35 52.61 63.97 40.06 63.97 39.17"/><polygon class="i" points="108.79 69.32 105.55 69.2 104.3 70.44 104.55 71.19 106.55 71.19 108.79 69.32"/><polygon class="g" points="59.56 84.47 81.65 80.93 85.85 111.1 63.97 111.1 59.56 84.47"/><polygon class="i" points="95.57 82.92 83.19 91.96 81.65 80.93 91.83 77.3 95.57 82.92"/><polygon class="i" points="96.2 75.06 91.83 77.3 95.57 82.92 99.19 78.43 96.2 75.06"/><polygon class="i" points="59.56 84.47 47.06 83.79 47.06 89.44 61.26 94.71 59.56 84.47"/><polygon class="i" points="63.97 111.1 59.56 133.65 66.72 133.65 85.85 111.1 63.97 111.1"/><polygon class="i" points="91.83 134.45 84.41 134.45 63.97 111.1 85.85 111.1 91.83 134.45"/><polygon class="g" points="66.72 133.65 60.78 151.51 54.73 151.51 59.56 133.65 66.72 133.65"/><polygon class="g" points="84.41 134.45 93.7 153.75 98.64 153.75 91.83 134.45 84.41 134.45"/><polygon class="h" points="60.78 151.51 60.73 154.76 46.56 156.37 54.73 151.51 60.78 151.51"/><polygon class="h" points="93.7 153.75 93.7 156.81 91.83 160.83 96.51 160.83 100.19 158.99 98.64 153.75 93.7 153.75"/><polygon class="f" points="96.2 75.06 97.44 72.44 103.1 72.44 103.8 76.43 100.31 78.18 99.19 78.43 96.2 75.06"/><polygon class="h" points="62.57 82.92 61.67 75.06 65.94 71 71.88 73.69 73.5 80.42 73 84.63 70.01 86.09 62.57 82.92"/><polygon class="f" points="63.97 111.1 56.41 136.12 68.44 135.82 75.44 118.82 83.44 135.82 94 136.12 85.85 111.1 63.97 111.1"/><polygon class="f" points="81.65 80.93 73.5 86.09 72 93.27 70.01 93.27 67.51 86.41 59.56 84.47 81.65 80.93"/><polygon class="i" points="64.4 81.54 47.06 83.79 47.06 89.44 65.77 86.41 64.4 81.54"/><polygon class="i" points="67.51 82.04 104.3 70.44 104.55 71.19 67.76 82.54 67.51 82.04"/><polygon class="f" points="62.95 81.73 66.35 80.93 68.24 81.54 68.94 84.63 65.77 86.41 62.95 81.73"/><polygon class="f" points="63.97 39.17 63.4 39.77 67.51 81.54 68.21 81.54 63.97 39.17"/><polygon class="f" points="96.2 121.7 68.26 82.17 68.01 82.79 95.85 121.7 96.2 121.7"/></g></g></g><g id="c"/><g id="d"/><g id="e"/></svg>