<?xml version="1.0" encoding="UTF-8"?><svg xmlns="http://www.w3.org/2000/svg" xmlns:xlink="http://www.w3.org/1999/xlink" viewBox="0 0 1920 1080"><defs><style>.bd{fill:url(#ag);}.be{fill:url(#ai);}.bf{fill:url(#ae);}.bg{fill:url(#ap);}.bh{fill:url(#ar);}.bi{fill:url(#aw);}.bj{fill:url(#an);}.bk{fill:url(#at);}.bl{fill:url(#ay);}.bm{fill:url(#ak);}.bn{fill:url(#b`);}.bo{fill:#97a097;}.bp{fill:#5a6467;}</style><linearGradient id="ae" x1="-11.11" y1="539.96" x2="1931.99" y2="539.96" gradientTransform="matrix(1, 0, 0, 1, 0, 0)" gradientUnits="userSpaceOnUse"><stop offset="0" stop-color="#f1fbfe"/><stop offset=".19" stop-color="#e0e9ec"/><stop offset=".58" stop-color="#b5bbbd"/><stop offset="1" stop-color="#818284"/></linearGradient><linearGradient id="ag" x1="606.1" y1="658.15" x2="1252.52" y2="658.15" gradientTransform="matrix(1, 0, 0, 1, 0, 0)" gradientUnits="userSpaceOnUse"><stop offset="0" stop-color="#949998"/><stop offset=".55" stop-color="#a3a8a9"/><stop offset="1" stop-color="#b4b9bc"/></linearGradient><linearGradient id="ai" x1="1288.46" y1="314.78" x2="2026.78" y2="741.05" gradientTransform="matrix(1, 0, 0, 1, 0, 0)" gradientUnits="userSpaceOnUse"><stop offset="0" stop-color="#68676c"/><stop offset=".12" stop-color="#5c5b61"/><stop offset=".47" stop-color="#414149"/><stop offset=".77" stop-color="#30303b"/><stop offset="1" stop-color="#2b2b36"/></linearGradient><linearGradient id="ak" x1="156.82" y1="696.34" x2="961.61" y2="231.69" gradientTransform="matrix(1, 0, 0, 1, 0, 0)" gradientUnits="userSpaceOnUse"><stop offset="0" stop-color="#3d4147"/><stop offset=".2" stop-color="#3f454c"/><stop offset=".46" stop-color="#47505d"/><stop offset=".76" stop-color="#546378"/><stop offset="1" stop-color="#627794"/></linearGradient><linearGradient id="an" x1="1172.57" y1="967.16" x2="1172.57" y2="635.23" gradientTransform="matrix(1, 0, 0, 1, 0, 0)" gradientUnits="userSpaceOnUse"><stop offset="0" stop-color="#c6cdcb"/><stop offset=".35" stop-color="#cbd2ce"/><stop offset=".8" stop-color="#dce1d6"/><stop offset="1" stop-color="#e6ebdc"/></linearGradient><linearGradient id="ap" x1="1252.52" y1="967.16" x2="1252.52" y2="659.44" gradientTransform="matrix(1, 0, 0, 1, 0, 0)" gradientUnits="userSpaceOnUse"><stop offset="0" stop-color="#858d98"/><stop offset=".34" stop-color="#87909d"/><stop offset=".78" stop-color="#8d98ae"/><stop offset="1" stop-color="#929eb9"/></linearGradient><linearGradient id="ar" x1="-12.13" y1="903.47" x2="1931.99" y2="903.47" gradientTransform="matrix(1, 0, 0, 1, 0, 0)" gradientUnits="userSpaceOnUse"><stop offset="0" stop-color="#a8ad9e"/><stop offset=".23" stop-color="#adb2a3"/><stop offset=".53" stop-color="#bec3b4"/><stop offset=".87" stop-color="#d9decf"/><stop offset="1" stop-color="#e6ebdc"/></linearGradient><linearGradient id="at" x1="-11.99" y1="866.81" x2="1931.99" y2="866.81" gradientTransform="matrix(1, 0, 0, 1, 0, 0)" gradientUnits="userSpaceOnUse"><stop offset="0" stop-color="#354345"/><stop offset=".26" stop-color="#3a484a"/><stop offset=".61" stop-color="#485959"/><stop offset="1" stop-color="#5f7472"/><stop offset="1" stop-color="#607573"/></linearGradient><linearGradient id="aw" x1="-12.13" y1="497.04" x2="1044.99" y2="497.04" gradientTransform="matrix(1, 0, 0, 1, 0, 0)" gradientUnits="userSpaceOnUse"><stop offset="0" stop-color="#333f4c"/><stop offset=".22" stop-color="#222a33"/><stop offset=".53" stop-color="#0f1418"/><stop offset=".8" stop-color="#040607"/><stop offset="1" stop-color="#000202"/></linearGradient><linearGradient id="ay" x1="140.26" y1="986.5" x2="140.26" y2="813.35" gradientTransform="matrix(1, 0, 0, 1, 0, 0)" gradientUnits="userSpaceOnUse"><stop offset="0" stop-color="#15191e"/><stop offset=".05" stop-color="#181d22"/><stop offset=".42" stop-color="#2e383b"/><stop offset=".75" stop-color="#3c494b"/><stop offset="1" stop-color="#414f51"/></linearGradient><linearGradient id="b`" x1="388.34" x2="388.34" y2="929.8" xlink:href="#ay"/></defs><g id="a"/><g id="b"/><g id="c"/><g id="d"/><g id="e"/><g id="f"/><g id="g"/><g id="h"/><g id="i"/><g id="j"/><g id="k"/><g id="l"/><g id="m"/><g id="n"/><g id="o"/><g id="p"/><g id="q"/><g id="r"/><g id="s"/><g id="t"/><g id="u"/><g id="v"/><g id="w"/><g id="x"/><g id="y"/><g id="a`"/><g id="aa"/><g id="ab"/><g id="ac"/><g id="ad"><rect class="bf" x="-11.11" y="-6.82" width="1943.1" height="1093.56"/></g><g id="af"><polygon class="bd" points="606.1 448.32 854.62 405.29 896.3 448.32 940.82 426.81 1001.45 459.97 1010.56 550.09 1105.7 550.09 1129.03 626.03 1129.03 652.44 1163.41 659.44 1208.01 707.03 1252.52 911.01 606.1 448.32"/></g><g id="ah"><polygon class="be" points="1622.89 -6.82 1503.67 156.2 1513.8 264.55 1435.85 264.55 1403.43 314.16 1420.65 366.81 1342.68 427.57 1356.85 514.65 1424.7 605.78 1372.78 635.23 1204.97 641.22 1044.99 736.48 1085.49 891.32 1933 903.47 1933 -6.82 1622.89 -6.82"/></g><g id="aj"><polygon class="bm" points="491.68 -6.82 613.64 224.18 731.67 224.18 793.87 354.66 770.58 458.96 888.04 511.61 959.49 461.57 1044.99 497.04 1073.34 597.68 1044.99 659.44 1114.85 672.61 1133.08 733.36 1308.2 832 444.54 813.35 27.36 472.12 -13 341.57 -11.62 -6.82 491.68 -6.82"/></g><g id="al"><polyline class="bo" points="-13 787.73 1082.2 813.35 1930.97 852.9 1931.99 1086.74 -12.13 1086.74 -13 787.73"/></g><g id="am"><polygon class="bj" points="461.75 761.71 413.15 693.87 461.75 635.23 574.15 665.52 598.78 761.71 616.91 698.47 660.14 698.47 700.59 720.2 721.51 761.71 707.8 689.82 755.39 654.38 809.06 654.38 919.55 720.2 901.42 761.71 949.81 705.01 1001.45 681.72 1093.88 720.2 1068.78 787.73 1103.71 766.77 1174.77 787.73 1196.87 830.57 1223.2 772.85 1261.67 794.11 1321.41 745.51 1415.58 750.57 1422.67 838.67 1489.5 745.51 1614.04 756.65 1625.18 807.28 1631.26 852.84 1707.2 798.16 1795.29 818.42 1809.34 852.84 1931.11 883.48 1931.99 967.16 444.54 844.24 461.75 761.71"/></g><g id="ao"><polygon class="bg" points="638.36 801.2 613.64 754.62 655.57 720.2 679.45 726.27 679.45 760.7 697.68 773.86 674.39 691.85 729.07 659.44 792.86 680.71 799.52 730.32 834.37 697.92 871.84 737.41 871.84 768.79 896.14 776.9 883.99 711.08 959.49 679.61 999.81 730.32 999.81 779.75 1044.99 801.2 1099.66 753.61 1154.71 801.2 1172.57 754.71 1211.04 730.32 1256.61 774.88 1236.08 821.99 1312.75 787.73 1367.51 821.99 1392.29 854.87 1431.67 801.2 1481.74 801.2 1516.16 829.82 1503.64 854.87 1547.22 807.28 1577.59 825.5 1571.26 854.87 1608.99 840.42 1680.87 877.14 1891.4 967.16 638.36 801.2"/></g><g id="aq"><polygon class="bh" points="-11.62 720.2 1931.99 929.8 1931.99 1086.74 -12.13 1086.74 -11.62 720.2"/></g><g id="as"><polygon class="bk" points="-11.62 720.2 -11.99 986.5 146.85 986.5 355.58 986.5 392.9 989.54 699.89 986.5 1087.81 986.5 1324.45 1003.71 1497.6 1003.71 1931.99 1013.43 1931.99 929.8 -11.62 720.2"/></g><g id="au"><polygon class="bp" points="-12.05 1031.89 310.88 1066.49 628.95 1049.19 816.37 1086.74 -12.13 1086.74 -12.05 1031.89"/></g><g id="av"><polygon class="bi" points="-12.13 44.03 191.4 279.73 226.84 438.71 416.19 492.37 431.37 641.22 547.82 673.62 530.61 763.74 614.65 876.13 679.86 811.42 754.38 834.62 821.01 876.13 1018.92 903.47 1044.99 918.66 1044.99 936.62 609.21 936.62 379.73 950.05 291.64 936.88 -12.13 935.12 -12.13 44.03"/></g><g id="ax"><polygon class="bl" points="-12.13 850.78 63.82 813.35 178.51 850.78 224.81 890.31 246.08 910.56 292.65 922.71 292.65 971.17 146.85 986.5 -12.13 977.18 -12.13 850.78"/><polygon class="bn" points="332.14 973.34 362.52 938.91 405.05 929.8 437.75 946.65 444.54 966.25 432.39 978.4 355.58 986.5 332.14 973.34"/></g><g id="ba"/><g id="bb"/><g id="bc"/></svg>