<?xml version="1.0" encoding="UTF-8"?><svg xmlns="http://www.w3.org/2000/svg" xmlns:xlink="http://www.w3.org/1999/xlink" viewBox="0 0 1920 1080"><defs><style>.bd{fill:url(#ag);}.be{fill:url(#ai);}.bf{fill:url(#ae);}.bg{fill:url(#ap);}.bh{fill:url(#ar);}.bi{fill:url(#aw);}.bj{fill:url(#an);}.bk{fill:url(#at);}.bl{fill:url(#ay);}.bm{fill:url(#ak);}.bn{fill:url(#b`);}.bo{fill:#97a097;}.bp{fill:#5a6467;}</style><linearGradient id="ae" x1="1" y1="540" x2="1920" y2="540" gradientTransform="matrix(1, 0, 0, 1, 0, 0)" gradientUnits="userSpaceOnUse"><stop offset="0" stop-color="#f1fbfe"/><stop offset=".19" stop-color="#e0e9ec"/><stop offset=".58" stop-color="#b5bbbd"/><stop offset="1" stop-color="#818284"/></linearGradient><linearGradient id="ag" x1="610.56" y1="656.72" x2="1248.96" y2="656.72" gradientTransform="matrix(1, 0, 0, 1, 0, 0)" gradientUnits="userSpaceOnUse"><stop offset="0" stop-color="#949998"/><stop offset=".55" stop-color="#a3a8a9"/><stop offset="1" stop-color="#b4b9bc"/></linearGradient><linearGradient id="ai" x1="1284.45" y1="317.61" x2="2013.61" y2="738.59" gradientTransform="matrix(1, 0, 0, 1, 0, 0)" gradientUnits="userSpaceOnUse"><stop offset="0" stop-color="#68676c"/><stop offset=".12" stop-color="#5c5b61"/><stop offset=".47" stop-color="#414149"/><stop offset=".77" stop-color="#30303b"/><stop offset="1" stop-color="#2b2b36"/></linearGradient><linearGradient id="ak" x1="166.85" y1="694.44" x2="961.66" y2="235.56" gradientTransform="matrix(1, 0, 0, 1, 0, 0)" gradientUnits="userSpaceOnUse"><stop offset="0" stop-color="#3d4147"/><stop offset=".2" stop-color="#3f454c"/><stop offset=".46" stop-color="#47505d"/><stop offset=".76" stop-color="#546378"/><stop offset="1" stop-color="#627794"/></linearGradient><linearGradient id="an" x1="1170" y1="961.9" x2="1170" y2="634.09" gradientTransform="matrix(1, 0, 0, 1, 0, 0)" gradientUnits="userSpaceOnUse"><stop offset="0" stop-color="#c6cdcb"/><stop offset=".35" stop-color="#cbd2ce"/><stop offset=".8" stop-color="#dce1d6"/><stop offset="1" stop-color="#e6ebdc"/></linearGradient><linearGradient id="ap" x1="1248.96" y1="961.9" x2="1248.96" y2="658" gradientTransform="matrix(1, 0, 0, 1, 0, 0)" gradientUnits="userSpaceOnUse"><stop offset="0" stop-color="#858d98"/><stop offset=".34" stop-color="#87909d"/><stop offset=".78" stop-color="#8d98ae"/><stop offset="1" stop-color="#929eb9"/></linearGradient><linearGradient id="ar" x1="0" y1="899" x2="1920" y2="899" gradientTransform="matrix(1, 0, 0, 1, 0, 0)" gradientUnits="userSpaceOnUse"><stop offset="0" stop-color="#a8ad9e"/><stop offset=".23" stop-color="#adb2a3"/><stop offset=".53" stop-color="#bec3b4"/><stop offset=".87" stop-color="#d9decf"/><stop offset="1" stop-color="#e6ebdc"/></linearGradient><linearGradient id="at" x1=".14" y1="862.8" x2="1920" y2="862.8" gradientTransform="matrix(1, 0, 0, 1, 0, 0)" gradientUnits="userSpaceOnUse"><stop offset="0" stop-color="#354345"/><stop offset=".26" stop-color="#3a484a"/><stop offset=".61" stop-color="#485959"/><stop offset="1" stop-color="#5f7472"/><stop offset="1" stop-color="#607573"/></linearGradient><linearGradient id="aw" x1="0" y1="497.61" x2="1044" y2="497.61" gradientTransform="matrix(1, 0, 0, 1, 0, 0)" gradientUnits="userSpaceOnUse"><stop offset="0" stop-color="#333f4c"/><stop offset=".22" stop-color="#222a33"/><stop offset=".53" stop-color="#0f1418"/><stop offset=".8" stop-color="#040607"/><stop offset="1" stop-color="#000202"/></linearGradient><linearGradient id="ay" x1="150.5" y1="981" x2="150.5" y2="810" gradientTransform="matrix(1, 0, 0, 1, 0, 0)" gradientUnits="userSpaceOnUse"><stop offset="0" stop-color="#15191e"/><stop offset=".05" stop-color="#181d22"/><stop offset=".42" stop-color="#2e383b"/><stop offset=".75" stop-color="#3c494b"/><stop offset="1" stop-color="#414f51"/></linearGradient><linearGradient id="b`" x1="395.5" x2="395.5" y2="925" xlink:href="#ay"/></defs><g id="a"/><g id="b"/><g id="c"/><g id="d"/><g id="e"/><g id="f"/><g id="g"/><g id="h"/><g id="i"/><g id="j"/><g id="k"/><g id="l"/><g id="m"/><g id="n"/><g id="o"/><g id="p"/><g id="q"/><g id="r"/><g id="s"/><g id="t"/><g id="u"/><g id="v"/><g id="w"/><g id="x"/><g id="y"/><g id="a`"/><g id="aa"/><g id="ab"/><g id="ac"/><g id="ad"><rect class="bf" x="1" width="1919" height="1080"/></g><g id="af"><polygon class="bd" points="610.56 449.5 856 407 897.16 449.5 941.12 428.25 1001 461 1010 550 1103.96 550 1127 625 1127 651.09 1160.96 658 1205 705 1248.96 906.45 610.56 449.5"/></g><g id="ah"><polygon class="be" points="1614.74 0 1497 161 1507 268 1430.01 268 1398 317 1415 369 1338 429 1352 515 1419 605 1367.72 634.09 1202 640 1044 734.08 1084 887 1921 899 1921 0 1614.74 0"/></g><g id="aj"><polygon class="bm" points="497.55 0 618 228.13 734.58 228.13 796 357 773 460 889 512 959.57 462.58 1044 497.61 1072 597 1044 658 1113 671 1131 731 1303.95 828.42 451 810 39 473 -.86 344.07 .5 0 497.55 0"/></g><g id="al"><polyline class="bo" points="-.86 784.69 1080.75 810 1919 849.06 1920 1080 0 1080 -.86 784.69"/></g><g id="am"><polygon class="bj" points="468 759 420 692 468 634.09 579 664 603.33 759 621.23 696.54 663.93 696.54 703.88 718 724.54 759 711 688 758 653 811 653 920.12 718 902.22 759 950 703 1001 680 1092.29 718 1067.5 784.69 1102 764 1172.18 784.69 1194 827 1220 770 1258 791 1317 743 1410 748 1417 835 1483 743 1606 754 1617 804 1623 849 1698 795 1785 815 1798.88 849 1919.13 879.26 1920 961.9 451 840.5 468 759"/></g><g id="ao"><polygon class="bg" points="642.41 797.99 618 752 659.41 718 683 724 683 758 701 771 678 690 732 658 795 679 801.58 728 836 696 873 735 873 765.99 897 774 885 709 959.57 677.91 999.38 728 999.38 776.81 1044 797.99 1098 751 1152.36 797.99 1170 752.09 1208 728 1253 772 1232.72 818.53 1308.44 784.69 1362.53 818.53 1387 851 1425.88 797.99 1475.33 797.99 1509.33 826.26 1496.97 851 1540 804 1570 822 1563.75 851 1601.01 836.73 1672 873 1879.91 961.9 642.41 797.99"/></g><g id="aq"><polygon class="bh" points=".5 718 1920 925 1920 1080 0 1080 .5 718"/></g><g id="as"><polygon class="bk" points=".5 718 .14 981 157 981 363.14 981 400 984 703.19 981 1086.29 981 1320 998 1491 998 1920 1007.59 1920 925 .5 718"/></g><g id="au"><polygon class="bp" points=".07 1025.83 319 1060 633.12 1042.91 818.22 1080 0 1080 .07 1025.83"/></g><g id="av"><polygon class="bi" points="0 50.22 201 283 236 440 423 493 438 640 553 672 536 761 619 872 683.4 808.09 757 831 822.8 872 1018.26 899 1044 914 1044 931.73 613.63 931.73 387 945 300 932 0 930.26 0 50.22"/></g><g id="ax"><polygon class="bl" points="0 846.97 75 810 188.28 846.97 234 886 255 906 301 918 301 965.86 157 981 0 971.8 0 846.97"/><polygon class="bn" points="340 968 370 934 412 925 444.3 941.65 451 961 439 973 363.14 981 340 968"/></g><g id="ba"/><g id="bb"/><g id="bc"/></svg>