<?xml version="1.0" encoding="UTF-8"?><svg xmlns="http://www.w3.org/2000/svg" viewBox="0 0 200 200"><defs><style>.f{fill:#f5d582;}.g{fill:#334056;}.h{fill:#cd665f;}.i{fill:#d68458;}</style></defs><g id="a"/><g id="b"><g><g><polygon class="i" points="127.4 88.32 112.87 83.97 92.76 82.68 66.23 87.26 49.46 91.77 49.46 89.68 58.65 87.22 69.29 83.97 82.12 81.03 103.55 79.62 113.8 81.03 127.4 86.2 127.4 88.32"/><polygon class="i" points="97 113.22 78.06 83.38 83.1 82.68 102.41 113.22 97 113.22"/><polygon class="g" points="96.39 88.67 71.54 114.09 66.23 114.09 95.21 86.2 96.39 88.67"/><polygon class="g" points="99.09 83.62 98.38 77.39 93.33 78.21 76.18 79.66 76.18 84.67 99.09 83.62"/><polygon class="f" points="100.09 112.29 99.09 83.62 93.91 81.03 94.32 111.69 100.09 112.29"/><polygon class="g" points="83.1 82.68 83.47 113.22 78.97 113.22 78.97 80.6 83.1 82.68"/><polygon class="f" points="38.94 83.97 42.57 75.57 40.35 69.52 34.89 68.46 29.55 68.87 26.84 69.4 26.84 77.5 38.94 83.97"/><polygon class="i" points="83.47 113.22 39.09 87.35 30.49 87.35 24.61 83.27 24.14 77.1 26.49 72.93 35.83 75.48 44.11 83.15 87.49 112.44 83.47 113.22"/><polygon class="g" points="54.1 116.39 49.46 122.74 49.46 128.35 51.78 132.79 57.97 133.9 63.73 129.31 63.73 122.33 60.56 116.39 54.1 116.39"/><polygon class="g" points="104.73 111.69 100.09 118.04 100.09 123.65 102.41 128.1 108.6 129.2 114.36 124.62 114.36 117.63 111.19 111.69 104.73 111.69"/><polygon class="g" points="85.11 113.81 80.35 115.22 80.35 120.83 82.67 125.28 88.87 126.38 94.63 121.8 94.63 114.81 91.57 113.81 85.11 113.81"/><polygon class="g" points="36.59 113.93 31.95 120.27 31.95 125.89 34.27 130.33 40.47 131.43 46.23 126.85 46.23 119.86 43.05 113.93 36.59 113.93"/><polygon class="f" points="45.17 115.92 42.59 112.99 30.49 112.44 26.43 114.18 25.9 115.8 26.63 120.45 28.37 121.33 39.77 122.74 42.82 122.27 45.76 118.86 45.17 115.92"/><polygon class="i" points="115.54 109.58 36.83 114.51 36.83 120.45 115.54 116.17 115.54 109.58"/><polygon class="i" points="24.14 119.33 36.83 120.45 36.83 114.51 24.8 115.02 24.14 119.33"/><polygon class="i" points="115.54 109.58 99.44 82.68 94.32 82.68 110.88 109.87 115.54 109.58"/><polygon class="i" points="91.61 82.68 89.22 80.09 48.06 113.81 54.35 113.41 91.61 82.68"/><polygon class="f" points="80.29 83.97 78.18 81.74 43.51 114.09 48.06 113.81 80.29 83.97"/><polyline class="f" points="42.57 89.38 119.18 87.85 119.18 86.72 42.15 89.13 42.57 89.38"/></g><g><polygon class="g" points="58.22 68.36 50.8 66.94 43.03 71.54 45.15 88.84 57.16 88.84 58.22 68.36"/><polygon class="i" points="58.22 68.36 67.1 68.36 67.05 73.66 57.85 75.5 58.22 68.36"/><polygon class="i" points="75.88 66.59 75.88 69.93 67.05 73.66 67.1 68.36 75.88 66.59"/><polygon class="f" points="75.88 69.93 79.55 69.93 80.49 66.59 84.01 66.24 84.01 64.84 78.33 64.84 75.88 66.59 75.88 69.93"/><polyline class="f" points="43.03 71.54 54.22 71.54 54.22 78.19 55.17 77.57 55.91 71.11 58.22 68.36 50.8 66.94 43.03 71.54"/><polygon class="i" points="50.63 113.96 42.49 113.96 45.15 88.84 57.16 88.84 50.63 113.96"/><polygon class="i" points="57.16 88.84 62.81 110.74 55.48 112.69 45.15 88.84 57.16 88.84"/><polygon class="f" points="57.16 88.84 63.87 108.3 55.54 110.89 52.47 99.95 49.83 112.18 41.18 111.96 45.15 88.84 57.16 88.84"/><polygon class="i" points="43.03 71.54 39.13 84.65 44.09 85.31 49.09 71.93 43.03 71.54"/><polygon class="i" points="43.77 93.44 41.3 95.2 39.13 84.65 44.09 85.31 43.77 93.44"/><polygon class="g" points="44.11 134.23 47.62 134.23 50.63 113.96 42.49 113.96 44.11 134.23"/><polygon class="g" points="55.48 112.69 58.57 130.88 62.87 130.88 62.81 110.74 55.48 112.69"/><polygon class="h" points="44.11 134.23 44.11 139.31 47.89 140.51 49.04 139.35 47.62 134.23 44.11 134.23"/><polygon class="h" points="58.57 130.88 59.18 135.23 68.82 136.88 69.17 135.47 63.17 132.64 62.87 130.88 58.57 130.88"/><polygon class="h" points="53.28 57.41 59.28 58.11 60.34 64.82 58.13 70.12 52.77 70.12 50.8 66.94 50.63 59.56 53.28 57.41"/><polygon class="f" points="45.23 94.14 43.73 93.48 41.24 95.22 43.11 99.44 46.46 98.81 46.46 96 45.23 94.14"/></g><g><polygon class="g" points="94.28 118.93 139.2 88.16 146.9 89.69 102.57 118.24 94.28 118.93"/><polygon class="g" points="109.91 118.24 143.78 92.43 142.17 96.1 112.42 118.93 109.91 118.24"/><polygon class="g" points="117.76 118.24 153.03 92.06 151.08 96.93 121.57 118.51 117.76 118.24"/><polygon class="g" points="149.41 136.19 143.56 131.04 143.98 124.22 148.99 120.46 154.85 120.46 159.85 124.36 159.85 131.18 156.65 135.35 149.41 136.19"/><polygon class="i" points="164.16 117.26 143.42 88.16 139.2 88.16 159.57 117.26 164.16 117.26"/><polygon class="i" points="174.05 93.59 174.05 91.69 164.07 87.02 150.59 86.77 129.64 92.34 121.98 94.04 121.98 95.25 129.92 93.87 150.44 90.47 163.47 90.11 174.05 93.59"/><polygon class="f" points="73.82 121.99 73.82 118.24 164.16 117.26 163.03 122.6 73.82 121.99"/><polygon class="f" points="154.25 118.24 155.81 86.77 150.59 86.77 149.3 118.24 154.25 118.24"/><polygon class="f" points="145.48 118.24 147.04 86.77 141.82 86.77 140.53 118.24 145.48 118.24"/><polygon class="f" points="174.05 93.59 170.3 92.36 160.94 93.59 160.96 94.7 174.05 93.59"/><polyline class="f" points="104.53 96.07 160.96 94.7 160.94 93.59 104.14 95.84 104.53 96.07"/><polyline class="f" points="69.64 87.61 74.39 118.24 73.82 118.24 69.64 87.61"/><polyline class="h" points="175.86 120.88 175.86 118.63 154.98 88.7 151.08 92.89 171.91 120.88 175.86 120.88"/><polygon class="i" points="149.83 126.17 111.96 104.17 90.38 94.15 84.81 92.2 77.21 92.2 69.64 87.61 69.64 80.9 72.56 77.52 84.54 83.01 88.57 86.77 151.64 123.52 149.83 126.17"/><polygon class="g" points="86.35 85.93 82.87 85.52 76.74 82.45 72.98 78.97 74.44 78.97 79.66 81.2 85.23 84.12 86.35 85.93"/><polyline class="f" points="86.62 85.66 91.36 83.43 90.66 74.94 85.65 71.87 82.73 70.34 80.92 67 74.93 71.04 73.26 78.7 77.02 82.18 83.14 85.24 86.62 85.66"/><polygon class="i" points="175.86 120.88 175.86 128.82 72.56 127 72.56 119.95 175.86 120.88"/><polygon class="g" points="160.82 142.59 154.98 137.44 155.39 130.62 160.41 126.86 166.26 126.86 171.26 130.76 171.26 137.58 168.06 141.76 160.82 142.59"/><polygon class="g" points="92.11 141.9 85.59 136.15 86.05 128.55 91.64 124.36 98.17 124.36 103.75 128.7 103.75 136.31 100.18 140.97 92.11 141.9"/><polygon class="h" points="154.98 83.93 147.46 84.26 147.74 90.11 154.55 90.11 154.98 83.93"/></g></g></g><g id="c"/><g id="d"/><g id="e"/></svg>