<?xml version="1.0" encoding="UTF-8"?><svg id="a" xmlns="http://www.w3.org/2000/svg" viewBox="0 0 200 200"><defs><style>.c{fill:#fff;}</style></defs><g id="b"><g><path class="c" d="M179.37,137.3v12.7H20.63c0-33.33,0-66.67,0-100,52.91,0,105.82,0,158.73,0,0,24.34,0,48.68,0,73.02-2.48-.12-4.97-.45-7.44-.33-4.56,.21-8.8,.26-11.46-4.62-.79-1.45-2.76-2.54-4.42-3.16-2.59-.97-3.1-2.62-3.06-5.15,.11-6.21-.07-12.43-.1-18.65-.03-4.98,0-9.96,0-15.53-4.44,1.07-9.69-2.57-11.2,4.44-.13,.58-1.2,.96-1.84,1.43-12.23,8.95-24.51,17.83-36.65,26.9-2.14,1.6-3.46,1.29-5.42-.18-9.06-6.8-18.24-13.45-27.38-20.15-4.02-2.95-8.04-5.88-12.06-8.83l1.09-.34c-.13-1.93,.52-4.83-.5-5.65-9.5-7.71-19.29-15.07-28.94-22.49-8.2,5.87-10.82,16.52-6.47,25.56,4.36,9.05,14.2,13.47,23.78,10.85,1.31-.36,3.23-.47,4.21,.23,12.5,9.02,24.89,18.2,37.29,27.35,1.01,.74,1.95,1.57,2.96,2.39-6.41,5.61-7.02,5.89-17.08,5.46-1.41-.06-3.24-1-4.08-2.13-8.12-10.97-22.46-11.04-30.48-.16-.9,1.21-2.86,2.17-4.39,2.28-4.4,.3-8.83,.11-13.31,.11v15.01c4.56,0,8.89-.18,13.2,.1,1.4,.09,3.22,1.03,4,2.17,8.14,11.83,23.26,11.84,31.36-.01,.74-1.08,2.38-2.15,3.61-2.16,17.9-.14,35.8-.13,53.69,0,1.22,0,2.91,1.07,3.59,2.15,8.05,12.79,24.03,12.78,32.13,0,.72-1.14,2.57-2.01,3.98-2.16,3.77-.4,7.59-.33,11.39-.45Z"/><path d="M179.37,137.3c-3.8,.12-7.62,.05-11.39,.45-1.41,.15-3.26,1.02-3.98,2.16-8.1,12.78-24.07,12.79-32.13,0-.68-1.08-2.36-2.14-3.59-2.15-17.9-.14-35.8-.14-53.69,0-1.23,0-2.87,1.09-3.61,2.16-8.1,11.85-23.22,11.84-31.36,.01-.78-1.14-2.6-2.08-4-2.17-4.3-.28-8.63-.1-13.2-.1v-15.01c4.48,0,8.91,.2,13.31-.11,1.53-.11,3.49-1.06,4.39-2.28,8.02-10.87,22.37-10.8,30.48,.16,.84,1.13,2.67,2.07,4.08,2.13,10.05,.42,10.66,.15,17.08-5.46-1.01-.82-1.95-1.65-2.96-2.39-12.41-9.15-24.79-18.34-37.29-27.35-.98-.7-2.9-.59-4.21-.23-9.58,2.62-19.42-1.81-23.78-10.85-4.35-9.04-1.73-19.69,6.47-25.56,9.65,7.42,19.44,14.78,28.94,22.49,1.02,.83,.37,3.72,.5,5.65l-1.09,.34c4.02,2.94,8.04,5.88,12.06,8.83,9.14,6.7,18.32,13.35,27.38,20.15,1.96,1.47,3.28,1.78,5.42,.18,12.14-9.07,24.42-17.95,36.65-26.9,.64-.47,1.71-.84,1.84-1.43,1.51-7.01,6.76-3.37,11.2-4.44,0,5.57-.02,10.55,0,15.53,.03,6.22,.21,12.43,.1,18.65-.04,2.52,.46,4.18,3.06,5.15,1.66,.62,3.62,1.71,4.42,3.16,2.66,4.87,6.9,4.83,11.46,4.62,2.47-.12,4.96,.21,7.44,.33v14.29Zm-70.43-20.59q4.39,4.64,10.19,4.65c3.68,0,7.37,.11,11.05-.06,1.15-.05,2.38-.69,3.36-1.38,2.55-1.79,5.03-3.71,7.44-5.69,.8-.66,1.88-1.63,1.9-2.48,.16-6.14,.09-12.29,.09-19.38-11.8,8.44-22.78,16.29-34.03,24.34Zm-47.72,13.81c.02-3.39-2.59-6-5.97-5.96-3.19,.03-5.75,2.51-5.89,5.69-.14,3.24,2.56,6.14,5.81,6.22,3.26,.09,6.02-2.63,6.04-5.95Zm92.71,.74c.07-3.27-2.64-6-5.98-6-3.28,0-5.73,2.33-5.87,5.6-.15,3.35,2.41,6.19,5.66,6.31,3.16,.12,6.12-2.7,6.19-5.9Z"/><path class="c" d="M108.93,116.71c11.25-8.05,22.22-15.9,34.03-24.34,0,7.09,.08,13.23-.09,19.38-.02,.85-1.1,1.82-1.9,2.48-2.42,1.98-4.89,3.9-7.44,5.69-.98,.69-2.21,1.33-3.36,1.38-3.67,.17-7.36,.06-11.05,.06q-5.8,0-10.19-4.65Z"/><path class="c" d="M61.21,130.52c-.02,3.32-2.78,6.04-6.04,5.95-3.25-.09-5.95-2.98-5.81-6.22,.14-3.18,2.7-5.66,5.89-5.69,3.38-.03,5.99,2.58,5.97,5.96Z"/><path class="c" d="M153.92,131.26c-.07,3.2-3.02,6.02-6.19,5.9-3.26-.12-5.81-2.96-5.66-6.31,.14-3.27,2.6-5.61,5.87-5.6,3.33,0,6.05,2.74,5.98,6Z"/></g></g></svg>