<?xml version="1.0" encoding="UTF-8"?><svg id="a" xmlns="http://www.w3.org/2000/svg" viewBox="0 0 200 200"><defs><style>.c{fill:#fff;}</style></defs><g id="b"><g><path class="c" d="M163.5,99.06v81.03H36.5V19.91h127V98.12c-5.08-8.41-10.15-16.83-15.38-25.48l-11.12,3.29c.8,2.97,1.43,5.35,2.13,7.95l5.47-2.47c5.14,6.68,10.17,13.2,15.1,19.61l3.8-1.96Zm-76.92,9.31c-3.63-5.31-7.02-10.28-10.46-15.31-8.95,8.29-11.25,14.23-7.58,22.16,4.33,9.35,9.38,18.36,14.45,28.16,5.92-5.91,11.37-11.26,16.65-16.77,.61-.64,.75-2.39,.34-3.26-2.93-6.19-6.05-12.28-9.25-18.67l-4.16,3.69Zm16.27-43.58c2.14,5.13,3.9,9.63,5.89,14.03,1.43,3.16,2.72,6.16-1.01,8.93,5.92,3.63,11.32,7.05,16.86,10.24,.92,.53,2.77,.61,3.57,.03,9.63-6.92,10.84-19.17,2.59-27.73-3.45-3.58-7.46-6.65-11.37-9.76-.77-.61-2.35-.76-3.34-.44-4.28,1.37-8.48,3-13.19,4.7Zm-16.12,41.33c6.88-7.03,13.38-13.58,19.74-20.26,.78-.83,1.43-2.62,1.07-3.56-2.26-5.94-4.82-11.76-7.41-17.94-8.84,7.85-14.23,19.91-28.15,18.78,5.1,7.94,9.74,15.18,14.75,22.99Zm19.58,18.11c-7.13,7.02-13.63,12.87-19.43,19.34-3.85,4.29-2.81,12.77,1.16,16.84,4.81,4.94,9.78,9.74,14.37,14.89,2.76,3.09,5.64,3.75,9.67,2.22-6.61-7.26-13.07-14.28-19.41-21.39-.92-1.03-2.04-2.79-1.75-3.84,.92-3.36,2.47-6.55,3.78-9.8,.34,6.67,4.28,10.36,9.01,13.75,4.07,2.92,8.01,6.07,11.67,9.48,2.8,2.61,5.58,2.75,10.26,1.16-1.93-1.37-3.24-2.17-4.38-3.15-5.47-4.7-10.81-9.54-16.37-14.13-2.08-1.72-2.74-3.35-2.15-6.04,1.32-5.93,2.25-11.95,3.59-19.32Zm-14.42-21.62c3.75,7.44,7.13,14.16,10.71,21.29,4.18-4.22,7.72-7.98,11.46-11.52,3.81-3.6,7.82-6.98,12.23-10.89-7.1-4.36-12.62-7.86-18.29-11.11-.85-.49-2.77-.24-3.52,.42-4.32,3.82-8.43,7.87-12.59,11.81Zm28.54-46.45l.5-8.53c6.73,1.99,12.4,3.67,18.75,5.55,.76-2.65,2.32-5.24,1.88-7.42-.37-1.82-3.1-3.16-4.92-4.84l-2.06,3.04c-5.94-4.34-11.71-8.56-17.47-12.77,3.96-5.39,3.86-6.05-1.18-9.91-.26,1.47-.51,2.88-1,5.6-2.02-2.45-3.33-4.03-4.89-5.92q-.24,8.16,5.15,12.69c-.94,5-2.51,9.71-2.55,14.43-.05,5.69-1.59,9.12-7.66,9.81-1.08,.12-1.98,1.88-2.96,2.88l.95,.94,17.46-5.55Zm-22.92,.93l1.78,.79c2.21-.67,4.37-1.61,6.63-1.97,3.59-.57,4.6-2.43,4.76-6,.24-5.21,1.37-10.38,2.16-15.81-6.64-4.79-8.66-4.59-11.49,3.6-2.13,6.17-2.62,12.9-3.84,19.38Zm52.32,61.75c.13-.24,.42-.52,.41-.78-.28-5.62-.64-11.24-.9-16.87q-.48-10.03-10.15-12.22c-.26-.06-.58,.12-.5,.1-2.39,3.32-4.61,6.4-7.1,9.86,3.83-1.13,7.23-2.13,10.96-3.23,1.01,6.81,2.13,13.26,2.86,19.77,.34,3.04,1.32,4.36,4.43,3.37Zm-89.16-1.12c-7.98,9.75-14.99,18.32-22.43,27.41,14.5-3.25,19.36-7.71,23.45-21.35,.42-1.39-.49-3.18-1.02-6.06ZM133.94,41.67l1.49-1.33c-.73-7.18-8.46-8.95-12.3-14.37-1.57,1.89-2.73,3.28-4.13,4.96,5.15,3.71,10.04,7.23,14.93,10.75ZM65.54,109.17c-6.6,3.99-6.79,6.93-1.12,12.11,6.23-3.56-.1-7.97,1.12-12.11Z"/><path d="M163.5,99.06l-3.8,1.96c-4.93-6.41-9.96-12.93-15.1-19.61l-5.47,2.47c-.69-2.59-1.33-4.97-2.13-7.95l11.12-3.29c5.22,8.65,10.3,17.07,15.38,25.48v.94Z"/><path d="M86.58,108.37l4.16-3.69c3.2,6.39,6.32,12.48,9.25,18.67,.41,.87,.28,2.62-.34,3.26-5.28,5.51-10.73,10.85-16.65,16.77-5.07-9.81-10.13-18.82-14.45-28.16-3.67-7.92-1.38-13.87,7.58-22.16,3.43,5.03,6.83,10,10.46,15.31Z"/><path d="M102.85,64.79c4.71-1.71,8.91-3.33,13.19-4.7,.99-.32,2.57-.17,3.34,.44,3.91,3.11,7.92,6.18,11.37,9.76,8.25,8.56,7.03,20.81-2.59,27.73-.8,.58-2.65,.5-3.57-.03-5.53-3.19-10.94-6.61-16.86-10.24,3.73-2.77,2.44-5.77,1.01-8.93-1.99-4.39-3.75-8.89-5.89-14.03Z"/><path d="M86.73,106.12c-5.01-7.81-9.66-15.04-14.75-22.99,13.92,1.13,19.31-10.93,28.15-18.78,2.6,6.19,5.15,12.01,7.41,17.94,.36,.94-.29,2.74-1.07,3.56-6.36,6.69-12.85,13.24-19.74,20.26Z"/><path d="M106.31,124.23c-1.34,7.36-2.28,13.38-3.59,19.32-.6,2.69,.07,4.33,2.15,6.04,5.56,4.59,10.9,9.44,16.37,14.13,1.15,.99,2.46,1.78,4.38,3.15-4.68,1.59-7.47,1.45-10.26-1.16-3.66-3.41-7.6-6.56-11.67-9.48-4.73-3.39-8.66-7.08-9.01-13.75-1.31,3.25-2.85,6.44-3.78,9.8-.29,1.06,.83,2.81,1.75,3.84,6.34,7.12,12.8,14.13,19.41,21.39-4.03,1.53-6.91,.87-9.67-2.22-4.59-5.14-9.56-9.94-14.37-14.89-3.96-4.08-5.01-12.55-1.16-16.84,5.81-6.47,12.31-12.32,19.43-19.34Z"/><path d="M91.89,102.61c4.16-3.95,8.27-8,12.59-11.81,.75-.67,2.67-.91,3.52-.42,5.67,3.25,11.2,6.76,18.29,11.11-4.41,3.91-8.42,7.29-12.23,10.89-3.74,3.54-7.28,7.3-11.46,11.52-3.59-7.13-6.97-13.84-10.71-21.29Z"/><path d="M120.43,56.16l-17.46,5.55-.95-.94c.98-1,1.88-2.75,2.96-2.88,6.07-.7,7.61-4.12,7.66-9.81,.04-4.72,1.61-9.44,2.55-14.43q-5.38-4.52-5.15-12.69c1.56,1.89,2.87,3.48,4.89,5.92,.49-2.72,.74-4.14,1-5.6,5.04,3.86,5.14,4.51,1.18,9.91,5.76,4.21,11.53,8.43,17.47,12.77l2.06-3.04c1.82,1.68,4.55,3.02,4.92,4.84,.45,2.18-1.12,4.78-1.88,7.42-6.36-1.88-12.02-3.56-18.75-5.55l-.5,8.53Z"/><path d="M97.52,57.1c1.22-6.48,1.72-13.22,3.84-19.38,2.82-8.18,4.84-8.39,11.49-3.6-.79,5.43-1.92,10.6-2.16,15.81-.16,3.57-1.17,5.43-4.76,6-2.26,.36-4.42,1.29-6.63,1.97l-1.78-.79Z"/><path d="M149.84,118.85c-3.11,.99-4.09-.33-4.43-3.37-.72-6.5-1.85-12.96-2.86-19.77-3.73,1.1-7.13,2.1-10.96,3.23,2.49-3.46,4.71-6.54,7.1-9.86-.08,.02,.24-.16,.5-.1q9.7,2.18,10.15,12.22c.27,5.62,.62,11.25,.9,16.87,.01,.26-.28,.54-.41,.78Z"/><path d="M60.68,117.73c.53,2.87,1.44,4.67,1.02,6.06-4.09,13.65-8.96,18.1-23.45,21.35,7.44-9.09,14.45-17.66,22.43-27.41Z"/><path d="M133.94,41.67c-4.89-3.52-9.78-7.04-14.93-10.75,1.39-1.67,2.55-3.07,4.13-4.96,3.84,5.42,11.57,7.19,12.3,14.37l-1.49,1.33Z"/><path d="M65.54,109.17c-1.22,4.13,5.11,8.55-1.12,12.11-5.67-5.17-5.48-8.11,1.12-12.11Z"/></g></g></svg>