<?xml version="1.0" encoding="UTF-8"?><svg xmlns="http://www.w3.org/2000/svg" xmlns:xlink="http://www.w3.org/1999/xlink" viewBox="0 0 200 200"><defs><style>.u{fill:url(#e);}.v{fill:url(#d);}.w{fill:url(#g);}.x{fill:url(#f);}.y{fill:url(#i);}.a`{fill:url(#h);}.aa{fill:url(#k);}.ab{fill:url(#j);}.ac{fill:url(#m);}.ad{fill:url(#l);}.ae{fill:url(#c);}.af{fill:#f5d582;}.ag{fill:#97a097;}.ah{fill:#334056;}.ai{fill:#cd665f;}.aj{fill:#d68458;}.ak{fill:#5a6467;}</style><linearGradient id="c" x1=".29" y1="100.07" x2="199.9" y2="100.07" gradientTransform="matrix(1, 0, 0, 1, 0, 0)" gradientUnits="userSpaceOnUse"><stop offset="0" stop-color="#f1fbfe"/><stop offset=".19" stop-color="#e0e9ec"/><stop offset=".58" stop-color="#b5bbbd"/><stop offset="1" stop-color="#818284"/></linearGradient><linearGradient id="d" x1="63.69" y1="121.7" x2="130.1" y2="121.7" gradientTransform="matrix(1, 0, 0, 1, 0, 0)" gradientUnits="userSpaceOnUse"><stop offset="0" stop-color="#949998"/><stop offset=".55" stop-color="#a3a8a9"/><stop offset="1" stop-color="#b4b9bc"/></linearGradient><linearGradient id="e" x1="129.64" y1="66.7" x2="225.67" y2="122.14" gradientTransform="matrix(1, 0, 0, 1, 0, 0)" gradientUnits="userSpaceOnUse"><stop offset="0" stop-color="#68676c"/><stop offset=".12" stop-color="#5c5b61"/><stop offset=".47" stop-color="#414149"/><stop offset=".77" stop-color="#30303b"/><stop offset="1" stop-color="#2b2b36"/></linearGradient><linearGradient id="f" x1="15.47" y1="107.1" x2="91.9" y2="62.98" gradientTransform="matrix(1, 0, 0, 1, 0, 0)" gradientUnits="userSpaceOnUse"><stop offset="0" stop-color="#3d4147"/><stop offset=".2" stop-color="#3f454c"/><stop offset=".46" stop-color="#47505d"/><stop offset=".76" stop-color="#546378"/><stop offset="1" stop-color="#627794"/></linearGradient><linearGradient id="g" x1="121.88" y1="178.25" x2="121.88" y2="117.51" gradientTransform="matrix(1, 0, 0, 1, 0, 0)" gradientUnits="userSpaceOnUse"><stop offset="0" stop-color="#c6cdcb"/><stop offset=".35" stop-color="#cbd2ce"/><stop offset=".8" stop-color="#dce1d6"/><stop offset="1" stop-color="#e6ebdc"/></linearGradient><linearGradient id="h" x1="130.1" y1="178.25" x2="130.1" y2="121.94" gradientTransform="matrix(1, 0, 0, 1, 0, 0)" gradientUnits="userSpaceOnUse"><stop offset="0" stop-color="#858d98"/><stop offset=".34" stop-color="#87909d"/><stop offset=".78" stop-color="#8d98ae"/><stop offset="1" stop-color="#929eb9"/></linearGradient><linearGradient id="i" x1=".18" y1="166.6" x2="199.9" y2="166.6" gradientTransform="matrix(1, 0, 0, 1, 0, 0)" gradientUnits="userSpaceOnUse"><stop offset="0" stop-color="#a8ad9e"/><stop offset=".23" stop-color="#adb2a3"/><stop offset=".53" stop-color="#bec3b4"/><stop offset=".87" stop-color="#d9decf"/><stop offset="1" stop-color="#e6ebdc"/></linearGradient><linearGradient id="j" x1=".2" y1="159.89" x2="199.9" y2="159.89" gradientTransform="matrix(1, 0, 0, 1, 0, 0)" gradientUnits="userSpaceOnUse"><stop offset="0" stop-color="#354345"/><stop offset=".26" stop-color="#3a484a"/><stop offset=".61" stop-color="#485959"/><stop offset="1" stop-color="#5f7472"/><stop offset="1" stop-color="#607573"/></linearGradient><linearGradient id="k" x1=".18" y1="92.21" x2="108.78" y2="92.21" gradientTransform="matrix(1, 0, 0, 1, 0, 0)" gradientUnits="userSpaceOnUse"><stop offset="0" stop-color="#333f4c"/><stop offset=".22" stop-color="#222a33"/><stop offset=".53" stop-color="#0f1418"/><stop offset=".8" stop-color="#040607"/><stop offset="1" stop-color="#000202"/></linearGradient><linearGradient id="l" x1="15.84" y1="181.79" x2="15.84" y2="150.1" gradientTransform="matrix(1, 0, 0, 1, 0, 0)" gradientUnits="userSpaceOnUse"><stop offset="0" stop-color="#15191e"/><stop offset=".05" stop-color="#181d22"/><stop offset=".42" stop-color="#2e383b"/><stop offset=".75" stop-color="#3c494b"/><stop offset="1" stop-color="#414f51"/></linearGradient><linearGradient id="m" x1="41.32" x2="41.32" y2="171.42" xlink:href="#l"/></defs><g id="a"/><g id="b"><g><rect class="ae" x=".29" width="199.61" height="200.14"/><polygon class="v" points="63.69 83.3 89.22 75.42 93.5 83.3 98.08 79.36 104.31 85.43 105.24 101.92 115.01 101.92 117.41 115.82 117.41 120.66 120.94 121.94 125.52 130.65 130.1 167.98 63.69 83.3"/><polygon class="u" points="168.14 0 155.9 29.84 156.94 49.66 148.93 49.66 145.6 58.74 147.37 68.38 139.36 79.5 140.81 95.44 147.78 112.12 142.45 117.51 125.21 118.6 108.78 136.04 112.94 164.37 200 166.6 200 0 168.14 0"/><polygon class="x" points="51.94 0 64.47 42.28 76.59 42.28 82.98 66.16 80.59 85.24 92.66 94.88 100 85.72 108.78 92.21 111.69 110.63 108.78 121.94 115.95 124.35 117.83 135.46 135.82 153.52 47.1 150.1 4.24 87.65 .09 63.76 .24 0 51.94 0"/><polyline class="ag" points=".09 145.41 112.6 150.1 199.79 157.34 199.9 200.14 .18 200.14 .09 145.41"/><polygon class="w" points="48.86 140.65 43.87 128.24 48.86 117.51 60.41 123.05 62.94 140.65 64.8 129.08 69.24 129.08 73.4 133.06 75.55 140.65 74.14 127.5 79.03 121.01 84.54 121.01 95.89 133.06 94.03 140.65 99 130.28 104.31 126.01 113.8 133.06 111.22 145.41 114.81 141.58 122.11 145.41 124.38 153.25 127.08 142.69 131.04 146.58 137.17 137.69 146.85 138.62 147.58 154.74 154.44 137.69 167.23 139.73 168.38 148.99 169 157.33 176.8 147.32 185.85 151.03 187.3 157.33 199.81 162.94 199.9 178.25 47.1 155.76 48.86 140.65"/><polygon class="a`" points="67.01 147.88 64.47 139.36 68.77 133.06 71.23 134.17 71.23 140.47 73.1 142.88 70.71 127.87 76.32 121.94 82.88 125.83 83.56 134.91 87.14 128.98 90.99 136.21 90.99 141.95 93.49 143.43 92.24 131.39 100 125.63 104.14 134.91 104.14 143.95 108.78 147.88 114.39 139.17 120.05 147.88 121.88 139.37 125.84 134.91 130.52 143.06 128.41 151.69 136.28 145.41 141.91 151.69 144.46 157.7 148.5 147.88 153.64 147.88 157.18 153.12 155.89 157.7 160.37 148.99 163.49 152.33 162.84 157.7 166.72 155.06 174.1 161.78 195.73 178.25 67.01 147.88"/><polygon class="y" points=".24 133.06 199.9 171.42 199.9 200.14 .18 200.14 .24 133.06"/><polygon class="ab" points=".24 133.06 .2 181.79 16.52 181.79 37.96 181.79 41.79 182.35 73.33 181.79 113.18 181.79 137.49 184.94 155.27 184.94 199.9 186.72 199.9 171.42 .24 133.06"/><polygon class="ak" points=".19 190.1 33.37 196.43 66.04 193.27 85.29 200.14 .18 200.14 .19 190.1"/><polygon class="aa" points=".18 9.31 21.09 52.44 24.73 81.54 44.18 91.36 45.74 118.6 57.71 124.53 55.94 141.02 64.57 161.59 71.27 149.75 78.93 154 85.77 161.59 106.1 166.6 108.78 169.38 108.78 172.66 64.01 172.66 40.44 175.12 31.39 172.71 .18 172.39 .18 9.31"/><polygon class="ad" points=".18 156.96 7.99 150.1 19.77 156.96 24.52 164.19 26.71 167.89 31.49 170.12 31.49 178.99 16.52 181.79 .18 180.09 .18 156.96"/><polygon class="ac" points="35.55 179.38 38.67 173.08 43.04 171.42 46.4 174.5 47.1 178.09 45.85 180.31 37.96 181.79 35.55 179.38"/></g></g><g id="n"/><g id="o"/><g id="p"><g><g><polygon class="ah" points="90.14 119.1 79.6 106.59 80.96 105.27 91.54 118.16 90.14 119.1"/><polygon class="ah" points="92.84 104.53 87.05 109.84 83.3 108.12 89.31 115.45 88.01 111.14 93.56 105.93 92.84 104.53"/><polygon class="ah" points="83.87 111.66 47.14 148.63 46.23 150.85 48.24 150.51 86.45 114.72 83.87 111.66"/><polygon class="ah" points="93.27 102.07 92.84 104.53 93.56 105.93 95.91 105.46 96.13 102.42 93.27 102.07"/></g><polygon class="ah" points="83.75 77.96 94.84 64.54 118.77 63.37 135.12 76.79 125.48 117.95 89.29 114.15 83.75 77.96"/><polygon class="aj" points="125.48 117.95 135.12 157.65 115.56 156.77 89.29 114.15 125.48 117.95"/><polygon class="aj" points="84.62 147.72 125.48 117.95 89.29 114.15 64.77 137.21 69.44 146.26 84.62 147.72"/><polyline class="af" points="89.29 114.15 60.57 138.63 75.87 137.8 90.46 144.51 103.59 126.41 115.85 153.56 136.58 153.85 125.48 117.95 89.29 114.15"/><polyline class="af" points="83.75 77.96 99.4 70.18 101.56 85.85 104.32 85.85 106.25 70.18 135.12 76.79 118.77 63.37 94.84 64.54 83.75 77.96"/><polygon class="ai" points="114.98 45.86 105.34 42.35 96.25 44.1 92.21 51.69 93.96 68.04 101.26 65.7 113.65 68.04 116.44 51.4 114.98 45.86"/><polygon class="aj" points="83.75 77.96 77.91 87.89 82.13 114.15 89.29 114.15 83.75 77.96"/><polygon class="aj" points="135.12 76.79 139.79 85.55 125.48 117.95 135.12 76.79"/><polygon class="aj" points="82.13 114.15 76.45 125.25 89.29 114.15 82.13 114.15"/><polygon class="ah" points="144.58 68.08 131.82 93.46 125.48 117.95 135.12 152.68 149.17 125.31 153.77 96.33 151.11 76.54 144.58 68.08"/></g></g><g id="q"/><g id="r"/><g id="s"/><g id="t"/></svg>