<?xml version="1.0" encoding="UTF-8"?><svg xmlns="http://www.w3.org/2000/svg" viewBox="0 0 1920 1080"><defs><style>.aq{fill:#ffd800;}.ar{fill:#ffb400;}.as{fill:#fef33b;}.at{fill:#ff3900;}.au{fill:#a81912;}.av{fill:#18060a;}.aw{fill:#58100e;}.ax{fill:#7b1411;}</style></defs><g id="a"/><g id="b"><rect class="as" x="-1" width="1921" height="1080"/></g><g id="c"><polyline class="aq" points="0 706.58 114 304 263 453 489 218 763 516 1018 304 1422 583 1694 275 1919.5 424.39 1919.5 1080 -.5 1080 0 706.58"/></g><g id="d"><polyline class="ar" points="-.5 853.55 162 566 477 620 579.17 540 617 674 1090 476 1632 676 1816 438 1920 530.06 1919.5 1080 -.5 1080 -.5 853.55"/></g><g id="e"><path class="at" d="M1116.9,1031.65l-328.98-295.12-140.3-106.44-9.68-24.19,24.19-14.51-4.84-125.79h12.85l6.5,87.08,19.35-4.84v-58.06l9.68-4.84v48.38l24.19-9.68,4.84-53.22h24.19v-48.38h12.38l2.13,38.7,14.51-33.87h14.51l14.51,29.03h9.68v-62.89h8.57l1.1,33.87h9.68v-38.7s15.79-38.7,36.92,0l1.78,43.54h29.03v-48.38l14.51,4.84v72.57h19.35v-67.73h9.68l4.84,67.73h9.68v14.51h19.35l19.35-14.51h24.19v72.57l179.01-53.22,256.41,91.92s140.3,72.57,212.87-9.68c72.57-82.25,237.06-84.21,237.06-84.21v601.84l-803.1-48.34Z"/></g><g id="f"><path class="au" d="M1920,552.13s-340,257.87-714,316.87S188,624,188,624L-.5,667.9v412.1H1919.5l.5-527.87Z"/></g><g id="g"><path class="ax" d="M0,609.71s255,36.29,415,272.29,478,68,478,68l1027-120.54-.5,250.54H-.5l.5-470.29Z"/></g><g id="h"><path class="aw" d="M0,1004.54l-.5,75.46H1919.5v-373.42l-513.5,208.42S139,1134.09,0,1004.54"/><polygon class="ax" points="70.43 412.42 111.3 723 123.27 723 77.8 409.23 70.43 412.42"/><polygon class="ax" points="355.07 471.13 216.43 752.03 226.38 758.68 362.97 472.57 355.07 471.13"/><polygon class="ax" points="948.67 678.02 1066.01 968.47 1077.6 965.47 955.01 673.08 948.67 678.02"/><polygon class="ax" points="1444.02 605.93 1355.21 906.33 1366.15 911.19 1452.06 606 1444.02 605.93"/></g><g id="i"><path class="av" d="M-.5,773.5c110.57,66.37,285.59,154.24,514,198,126.13,24.16,255.68,32.41,567,8,210.01-16.46,496.63-47.31,839-110v210.5H-.5v-306.5Z"/><path class="av" d="M234.67,767.71l36.54-11.85c1.77,3.21,3.6,5.07,4.93,4.68,2.31-.68,2.24-7.91-.17-16.15-2.41-8.24-6.24-14.38-8.55-13.7-1.37,.4-1.9,3.09-1.61,6.92l-37.14,12.1-15.78-67.7c2.56-1.97,3.98-4.43,3.61-6.87-.71-4.67-7.69-7.47-15.58-6.27s-13.72,5.96-13.01,10.63c.43,2.83,3.17,4.97,7.01,5.95l15.2,69.17-41.75,10.81c-1.37-2.65-2.82-4.18-4.01-3.93-2.36,.5-2.84,7.71-1.07,16.12,1.77,8.41,5.11,14.82,7.47,14.32,1.27-.27,2-2.49,2.12-5.81l42.7-12.41,63.26,248.29h9.16l-53.33-254.29Z"/><path class="av" d="M1730.63,737.28l45.5,16.15c-.69,4.56-.29,7.81,1.33,8.43,2.82,1.1,8.28-6.17,12.19-16.23,3.91-10.06,4.78-19.11,1.96-20.21-1.67-.65-4.26,1.62-6.9,5.67l-46.28-16.35,36.07-79.56c4.06,0,7.36-1.37,8.86-4.09,2.86-5.2-1.95-13.33-10.74-18.17s-18.24-4.55-21.1,.64c-1.73,3.15-.65,7.38,2.44,11.3l-37.78,80.58-49.9-21.18c.67-3.69,.39-6.32-.99-6.98-2.73-1.31-8.73,5.52-13.4,15.25-4.67,9.73-6.24,18.68-3.51,19.99,1.47,.71,3.9-.96,6.56-4.17l52.07,20.3-126.92,295.93,9.13,7.01,141.43-294.31Z"/><path class="aq" d="M356,186c-1.57-11.47-.69-28.47,9.13-36.51,5.68-4.59,13.87-3.47,19.64,0,1.73,.92,3.49,2.17,5.04,3.32l-6.44,1.64c11.93-23.26,32.85-20.94,43.63,1.73-8.09-7.26-19.82-17.28-29.5-7.37-2.59,2.51-4.82,5.82-6.39,9.09l-2.03,4.63c-4.5-2.82-9.6-7.54-15.01-7.92-10.95-.62-15.69,22.81-18.07,31.38h0Z"/><path class="aq" d="M1009.6,116.98c3-6.14,10.2-17.14,17.59-17.87,1.52-.14,3.14,.49,4.28,1.52,.77,.8,1.41,1.75,1.79,2.74,.72,1.64,.88,3.18,1.09,4.71l-3.7-1.52c12.55-9.49,20.93-3.13,15.75,11.59-.35-3.42,.12-12.93-4.95-12.24-4.12,.73-7.79,4.12-11.02,6.65l-.61-3.99c-.29-1.76-.48-3.38-1.5-4.66-.18-.12-.31-.28-.54-.33-4.78-.4-14.3,10.06-18.19,13.41h0Z"/><path class="aq" d="M1695.09,197.6c-5.17-8.7-11.77-24.18-8.19-34.3,1.62-4.58,6.7-6.68,11.21-5.68,2.54,.42,4.67,1.33,6.71,2.29l-4.84,3.38c-1.26-17.98,9.31-29.08,24.38-14.3,1.27,1.21,2.42,2.54,3.52,3.88-4.72-2.41-12.17-7.44-17.35-5.6-5.61,3.21-3.65,15.65-3.36,21.2l-5.27-2.43c-1.69-.78-3.42-1.41-4.95-1.7-1.2-.21-2.3-.26-3.18,.31-4.78,4.79,.38,25.91,1.32,32.95h0Z"/><path class="av" d="M1205.89,1064.44l2.05-4.56,16.08-55.27-1.6-6.2,5.01-8.71,24.6-98.58,51.96,14.98-1.41,4.83c-.76,2.6,.73,5.32,3.33,6.08l.08,.02c2.6,.76,5.32-.73,6.08-3.33l8.8-30.16c.76-2.6-.73-5.32-3.33-6.08l-.08-.02c-2.6-.76-5.32,.73-6.08,3.33l-1.99,6.81-54.95-14.02,22.1-83.47,4,1.17c4.36,1.27,8.92-1.23,10.19-5.59l1.28-4.39c1.27-4.36-1.23-8.92-5.59-10.19l-37.03-10.8c-4.36-1.27-8.92,1.23-10.19,5.59l-1.28,4.39c-1.27,4.36,1.23,8.92,5.59,10.19l4.91,1.43-20.25,84.25-53.08-14.62,1.86-6.38c.76-2.6-.73-5.32-3.33-6.08l-.08-.02c-2.6-.76-5.32,.73-6.08,3.33l-8.8,30.16c-.76,2.6,.73,5.32,3.33,6.08l.08,.02c2.6,.76,5.32-.73,6.08-3.33l1.7-5.84,56.81,14.65-30.79,122.11,10.36,23.3-19.78,19.61-8.33,58.76-3.18,20.49-8.57,9.3-34.44,142.4,13.59,3.92,62.28-216.51-1.92-3.05Z"/><polygon class="av" points="543.43 656.47 593.37 1036 608 1036 552.44 652.57 543.43 656.47"/><polygon class="av" points="891.26 728.21 721.84 1071.47 734 1079.61 900.92 729.97 891.26 728.21"/><polygon class="av" points="1593.43 631.54 1736.81 986.47 1750.98 982.81 1601.18 625.5 1593.43 631.54"/></g><g id="j"/><g id="k"/><g id="l"/><g id="m"/><g id="n"/><g id="o"/><g id="p"/><g id="q"/><g id="r"/><g id="s"/><g id="t"/><g id="u"/><g id="v"/><g id="w"/><g id="x"/><g id="y"/><g id="a`"/><g id="aa"/><g id="ab"/><g id="ac"/><g id="ad"/><g id="ae"/><g id="af"/><g id="ag"/><g id="ah"/><g id="ai"/><g id="aj"/><g id="ak"/><g id="al"/><g id="am"/><g id="an"/><g id="ao"/><g id="ap"/></svg>