<?xml version="1.0" encoding="UTF-8"?><svg xmlns="http://www.w3.org/2000/svg" viewBox="0 0 570 658"><defs><style>.as{stroke:#58100e;}.as,.at,.au{fill:none;stroke-miterlimit:10;stroke-width:1.54px;}.at{stroke:#ff3900;}.au{stroke:#231f20;}.av{fill:#ffd800;}.aw{fill:#fef33b;}.ax{fill:#ff3900;}.ay{fill:#18060a;}.b`{fill:#231f20;}.ba{fill:#58100e;}</style></defs><g id="a"/><g id="b"><rect class="av" width="570" height="658"/></g><g id="c"><circle class="aw" cx="285" cy="329" r="235.5"/></g><g id="d"><g><g><path class="ay" d="M213.3,177.81c-.75-.38-1.57-.72-2.46-1-.89-.28-1.76-.42-2.61-.42-1.17,0-2.11,.27-2.8,.82-.7,.55-1.04,1.27-1.04,2.18,0,.69,.23,1.27,.68,1.74,.45,.48,1.04,.88,1.76,1.23,.72,.34,1.48,.67,2.29,.97,.67,.24,1.33,.53,2,.86,.67,.33,1.27,.74,1.8,1.23,.54,.48,.96,1.08,1.27,1.79,.31,.71,.47,1.58,.47,2.61,0,1.17-.29,2.23-.86,3.18-.58,.95-1.4,1.7-2.47,2.24-1.07,.55-2.35,.82-3.85,.82-.95,0-1.86-.11-2.74-.32-.88-.21-1.69-.5-2.44-.86-.75-.36-1.41-.74-2-1.12l1.3-2.3c.48,.34,1.04,.67,1.67,.99,.63,.31,1.28,.56,1.97,.74s1.35,.27,2,.27c.71,0,1.39-.12,2.06-.36,.67-.24,1.22-.63,1.67-1.15,.44-.52,.67-1.22,.67-2.09,0-.73-.2-1.34-.59-1.85-.39-.5-.91-.93-1.55-1.29s-1.33-.67-2.08-.96c-.71-.24-1.41-.53-2.11-.85-.7-.32-1.34-.71-1.94-1.17-.6-.45-1.08-1.01-1.46-1.68-.38-.67-.56-1.47-.56-2.42,0-1.15,.28-2.16,.83-3.02,.56-.86,1.32-1.54,2.29-2.03s2.08-.76,3.33-.8c1.41,0,2.66,.17,3.74,.52,1.08,.34,2.04,.76,2.87,1.24l-1.12,2.27Z"/><path class="ay" d="M226.54,183.26l3.73,8.46-.58,.06,3.46-8.52h2.76l-5.76,13.31-4.03-8.61-3.7,8.61-5.79-13.31h2.79l3.88,8.85-.97-.21,2.79-6.49-1.03-2.15h2.46Z"/><path class="ay" d="M237.51,189.42c0-1.25,.3-2.38,.89-3.39,.6-1.01,1.43-1.81,2.49-2.39s2.27-.88,3.62-.88,2.55,.29,3.58,.88c1.03,.59,1.83,1.38,2.41,2.39,.58,1.01,.86,2.14,.86,3.39s-.29,2.38-.86,3.39c-.58,1.01-1.38,1.81-2.41,2.41-1.03,.6-2.23,.89-3.61,.89s-2.55-.28-3.59-.83c-1.04-.56-1.87-1.33-2.47-2.33s-.91-2.18-.91-3.53Zm2.85,.03c0,.81,.18,1.54,.55,2.2,.36,.66,.85,1.18,1.45,1.56,.61,.38,1.29,.58,2.06,.58s1.48-.19,2.09-.58c.61-.38,1.09-.9,1.44-1.56s.53-1.39,.53-2.2-.18-1.54-.53-2.2c-.35-.66-.83-1.18-1.44-1.58-.61-.39-1.3-.59-2.09-.59s-1.46,.2-2.08,.61c-.62,.4-1.1,.93-1.46,1.59-.35,.66-.53,1.38-.53,2.17Z"/><path class="ay" d="M257.67,183.26l.27,3.64-.12-.52c.32-.75,.79-1.39,1.39-1.94,.61-.55,1.25-.96,1.94-1.24,.69-.28,1.27-.43,1.76-.45l-.12,2.85c-.97-.08-1.81,.1-2.53,.53-.72,.43-1.28,1-1.7,1.7s-.62,1.45-.62,2.26v5.73h-2.82v-12.55h2.55Z"/><path class="ay" d="M271.09,196.12c-1.17,0-2.22-.28-3.15-.83s-1.67-1.34-2.23-2.36c-.56-1.02-.83-2.2-.83-3.53s.29-2.59,.88-3.58c.59-.99,1.37-1.75,2.36-2.27s2.1-.79,3.33-.79c.99,0,1.94,.21,2.83,.64,.9,.42,1.6,1.01,2.11,1.76l-.15,1v-13.79h2.82v23.46h-2.82v-3.12l.33,.79c-.61,.77-1.38,1.4-2.32,1.89s-2,.74-3.17,.74Zm.88-2.39c.75,0,1.41-.14,1.99-.42,.57-.28,1.06-.66,1.45-1.14,.39-.47,.67-1.04,.83-1.68v-2.39c-.16-.61-.45-1.14-.86-1.61s-.91-.82-1.48-1.08c-.58-.25-1.22-.38-1.93-.38-.75,0-1.45,.18-2.09,.55s-1.16,.87-1.54,1.52c-.38,.65-.58,1.39-.58,2.24s.19,1.57,.58,2.23c.38,.66,.9,1.18,1.54,1.58,.65,.39,1.34,.59,2.09,.59Z"/><path class="ay" d="M287.49,196.05c-.89,0-1.75-.16-2.59-.47-.84-.31-1.53-.78-2.08-1.41l1.18-1.64c.55,.51,1.09,.88,1.64,1.14,.54,.25,1.09,.38,1.64,.38,.4,0,.78-.05,1.12-.15s.62-.27,.83-.52,.32-.56,.32-.94c0-.46-.15-.82-.44-1.08-.29-.25-.66-.46-1.11-.62-.45-.16-.93-.31-1.46-.45-1.03-.34-1.82-.82-2.37-1.42-.54-.61-.82-1.34-.82-2.21,0-.67,.17-1.29,.5-1.86,.33-.58,.83-1.05,1.5-1.42,.67-.37,1.47-.56,2.42-.56,.87,0,1.65,.11,2.33,.32,.69,.21,1.33,.57,1.94,1.08l-1.12,1.76c-.36-.38-.79-.67-1.29-.86-.49-.19-.94-.29-1.35-.29-.36,0-.7,.06-1.02,.17-.31,.11-.57,.27-.76,.48-.19,.21-.29,.48-.29,.8-.02,.42,.12,.76,.41,1.02,.29,.25,.66,.46,1.11,.62,.45,.16,.9,.32,1.37,.48,.61,.18,1.15,.42,1.64,.73,.48,.3,.87,.68,1.17,1.12,.29,.45,.44,1,.44,1.67,0,.75-.18,1.44-.53,2.08-.36,.64-.89,1.14-1.61,1.52-.72,.37-1.63,.56-2.74,.56Z"/><path class="ay" d="M298.86,183.26l.24,2.82-.15-.24c.46-.95,1.12-1.7,1.98-2.26,.86-.56,1.85-.83,2.99-.83,.69,0,1.3,.12,1.85,.35,.55,.23,1,.56,1.35,.97s.58,.91,.68,1.5l-.15,.12c.49-.93,1.16-1.65,2.02-2.17,.86-.51,1.76-.77,2.71-.77,1.23,0,2.21,.35,2.93,1.06,.72,.71,1.1,1.61,1.13,2.7v9.3h-2.85v-8.27c-.02-.65-.18-1.19-.47-1.62s-.8-.66-1.53-.68c-.73,0-1.38,.22-1.96,.65s-1.02,1-1.33,1.7c-.31,.7-.48,1.46-.5,2.29v5.94h-2.85v-8.27c-.02-.65-.19-1.19-.5-1.62s-.83-.66-1.56-.68c-.73,0-1.38,.22-1.94,.65-.57,.43-1.01,1-1.33,1.71-.32,.71-.48,1.48-.48,2.3v5.91h-2.85v-12.55h2.58Z"/><path class="ay" d="M326.53,196.12c-1.17,0-2.24-.25-3.2-.76-.96-.5-1.72-1.25-2.29-2.23-.57-.98-.85-2.18-.85-3.59s.29-2.63,.88-3.64c.58-1.01,1.37-1.79,2.36-2.33,.99-.55,2.07-.82,3.24-.82s2.17,.27,2.99,.8c.82,.54,1.43,1.17,1.83,1.89l-.18,.45,.27-2.64h2.61v12.55h-2.82v-3.27l.33,.73c-.1,.2-.29,.46-.58,.77-.28,.31-.64,.63-1.07,.96-.44,.32-.95,.59-1.53,.8-.59,.21-1.25,.32-2,.32Zm.76-2.33c.71,0,1.34-.13,1.91-.39,.57-.26,1.04-.64,1.41-1.12,.37-.49,.63-1.05,.77-1.7v-2.46c-.16-.61-.45-1.14-.85-1.59-.4-.46-.89-.81-1.46-1.06-.57-.25-1.18-.38-1.85-.38-.77,0-1.47,.18-2.09,.55-.63,.36-1.13,.87-1.5,1.52-.38,.65-.56,1.4-.56,2.27,0,.81,.19,1.54,.58,2.21,.38,.67,.9,1.19,1.54,1.58s1.34,.58,2.09,.58Z"/><path class="ay" d="M341.62,183.26l.21,3.06-.09-.49c.38-.93,1.03-1.67,1.94-2.23,.91-.56,1.97-.83,3.18-.83s2.14,.35,2.89,1.04c.76,.7,1.15,1.6,1.17,2.71v9.27h-2.85v-8.3c-.02-.67-.22-1.22-.59-1.65-.37-.43-.95-.65-1.74-.65-.71,0-1.36,.2-1.96,.61-.6,.4-1.06,.96-1.39,1.67-.33,.71-.5,1.53-.5,2.46v5.88h-2.85v-12.55h2.58Z"/></g><g><path class="ay" d="M164.12,479.28c-.36,.24-.86,.52-1.48,.82-.63,.3-1.36,.56-2.2,.76-.84,.2-1.76,.3-2.77,.3-1.68-.02-3.2-.32-4.56-.91-1.36-.59-2.53-1.38-3.48-2.39-.96-1.01-1.69-2.18-2.2-3.5-.51-1.32-.76-2.73-.76-4.23,0-1.64,.26-3.15,.79-4.53s1.28-2.59,2.26-3.61c.98-1.02,2.13-1.81,3.46-2.38,1.32-.57,2.77-.85,4.35-.85,1.31,0,2.51,.18,3.58,.53s1.99,.76,2.76,1.23l-1.18,2.79c-.61-.42-1.34-.82-2.21-1.18s-1.82-.55-2.85-.55-2.08,.21-3.03,.64c-.95,.42-1.79,1.02-2.52,1.79-.73,.77-1.3,1.66-1.71,2.67-.41,1.01-.62,2.11-.62,3.3s.19,2.27,.56,3.29,.91,1.91,1.61,2.67,1.54,1.35,2.53,1.77c.99,.42,2.1,.64,3.33,.64,1.11,0,2.1-.17,2.97-.52,.87-.34,1.59-.73,2.15-1.15l1.24,2.61Z"/><path class="ay" d="M173.58,481.22c-1.17,0-2.24-.25-3.2-.76-.96-.5-1.72-1.25-2.29-2.23-.57-.98-.85-2.18-.85-3.59s.29-2.63,.88-3.64c.59-1.01,1.37-1.79,2.36-2.33,.99-.55,2.07-.82,3.24-.82s2.17,.27,2.98,.8c.82,.54,1.43,1.17,1.83,1.89l-.18,.45,.27-2.64h2.61v12.55h-2.82v-3.27l.33,.73c-.1,.2-.29,.46-.58,.77-.28,.31-.64,.63-1.08,.96-.44,.32-.95,.59-1.53,.8-.59,.21-1.25,.32-2,.32Zm.76-2.33c.71,0,1.34-.13,1.91-.39,.56-.26,1.04-.64,1.41-1.12,.38-.49,.63-1.05,.77-1.7v-2.46c-.16-.61-.45-1.14-.85-1.59-.4-.46-.89-.81-1.46-1.06-.57-.25-1.18-.38-1.85-.38-.77,0-1.46,.18-2.09,.55-.62,.36-1.12,.87-1.5,1.52-.37,.65-.56,1.4-.56,2.27,0,.81,.19,1.54,.58,2.21,.38,.67,.9,1.19,1.54,1.58s1.34,.58,2.09,.58Z"/><path class="ay" d="M191.22,481.28l-6.97-12.91h3.36l4.7,9.97-1.73-.09,4.33-9.88h3.15l-6.7,12.91h-.15Z"/><path class="ay" d="M205.82,481.22c-1.17,0-2.24-.25-3.2-.76-.96-.5-1.72-1.25-2.29-2.23-.57-.98-.85-2.18-.85-3.59s.29-2.63,.88-3.64c.59-1.01,1.37-1.79,2.36-2.33,.99-.55,2.07-.82,3.24-.82s2.17,.27,2.98,.8c.82,.54,1.43,1.17,1.83,1.89l-.18,.45,.27-2.64h2.61v12.55h-2.82v-3.27l.33,.73c-.1,.2-.29,.46-.58,.77-.28,.31-.64,.63-1.08,.96-.44,.32-.95,.59-1.53,.8-.59,.21-1.25,.32-2,.32Zm.76-2.33c.71,0,1.34-.13,1.91-.39,.56-.26,1.04-.64,1.41-1.12,.38-.49,.63-1.05,.77-1.7v-2.46c-.16-.61-.45-1.14-.85-1.59-.4-.46-.89-.81-1.46-1.06-.57-.25-1.18-.38-1.85-.38-.77,0-1.46,.18-2.09,.55-.62,.36-1.12,.87-1.5,1.52-.37,.65-.56,1.4-.56,2.27,0,.81,.19,1.54,.58,2.21,.38,.67,.9,1.19,1.54,1.58s1.34,.58,2.09,.58Z"/><path class="ay" d="M218.34,457.46h2.85v23.46h-2.85v-23.46Z"/><path class="ay" d="M228.59,468.37l.27,3.64-.12-.52c.32-.75,.79-1.39,1.39-1.94,.61-.55,1.25-.96,1.94-1.24,.69-.28,1.27-.43,1.76-.45l-.12,2.85c-.97-.08-1.81,.1-2.53,.53-.72,.43-1.28,1-1.7,1.7s-.62,1.45-.62,2.26v5.73h-2.82v-12.55h2.55Z"/><path class="ay" d="M241.65,481.01l-6.06-12.64h3.18l5.06,11.21-2.18,1.42Zm-3.12,5.94l8.28-18.58h2.61l-8.09,18.58h-2.79Z"/></g><g><path class="ay" d="M77.68,337.67l9.55-22.82h.18l9.58,22.82h-3.36l-7.15-18.21,2.09-1.36-7.97,19.58h-2.91Zm5.61-8.3h8.15l.97,2.55h-9.97l.85-2.55Z"/><path class="ay" d="M102.93,325.13l.27,3.64-.12-.52c.32-.75,.79-1.39,1.39-1.94,.61-.55,1.25-.96,1.94-1.24,.69-.28,1.27-.43,1.76-.45l-.12,2.85c-.97-.08-1.81,.1-2.53,.53s-1.28,1-1.7,1.7-.62,1.45-.62,2.26v5.73h-2.82v-12.55h2.54Z"/><path class="ay" d="M121.45,336.49c-.57,.46-1.24,.83-2.03,1.09-.79,.26-1.58,.39-2.36,.39-1.36,0-2.55-.27-3.59-.82-1.04-.54-1.86-1.31-2.44-2.3-.59-.99-.88-2.15-.88-3.49s.31-2.49,.94-3.47c.62-.98,1.44-1.74,2.44-2.27,1-.54,2.09-.8,3.26-.8,.99,0,1.88,.14,2.68,.41s1.49,.66,2.08,1.17l-1.42,1.82c-.34-.26-.78-.51-1.32-.74s-1.13-.35-1.77-.35c-.75,0-1.43,.19-2.04,.56-.62,.37-1.1,.88-1.46,1.52-.35,.64-.53,1.36-.53,2.17s.18,1.5,.55,2.15c.36,.65,.87,1.16,1.51,1.55s1.39,.58,2.24,.58c.53,0,1.02-.08,1.47-.24,.46-.16,.87-.38,1.23-.67l1.46,1.76Z"/><path class="ay" d="M125.05,337.67v-23.46h2.79v13.82l-.06-.52c.42-.83,1.08-1.52,1.96-2.06,.88-.55,1.92-.82,3.14-.82s2.14,.35,2.89,1.04c.76,.7,1.15,1.6,1.17,2.71v9.27h-2.85v-8.3c-.02-.67-.22-1.22-.59-1.65-.38-.43-.96-.65-1.74-.65-.71,0-1.36,.21-1.96,.62-.6,.41-1.06,.97-1.39,1.68-.33,.71-.5,1.52-.5,2.42v5.88h-2.85Z"/><path class="ay" d="M147.66,337.98c-1.44,0-2.67-.29-3.7-.86-1.03-.58-1.83-1.36-2.39-2.36-.57-1-.85-2.15-.85-3.44s.32-2.35,.96-3.36c.64-1.01,1.48-1.82,2.53-2.42,1.05-.61,2.22-.91,3.52-.91,1.66,0,3.03,.48,4.12,1.45,1.09,.97,1.84,2.3,2.24,4l-10.37,3.64-.67-1.67,8.46-3.12-.57,.42c-.24-.67-.65-1.24-1.21-1.73-.57-.48-1.3-.73-2.21-.73-.77,0-1.45,.18-2.04,.55-.6,.36-1.07,.86-1.41,1.5-.34,.64-.52,1.38-.52,2.23s.18,1.61,.53,2.27,.85,1.19,1.48,1.56c.64,.37,1.36,.56,2.17,.56,.54,0,1.08-.1,1.59-.3,.52-.2,1.01-.46,1.47-.79l1.27,2.09c-.63,.42-1.33,.77-2.11,1.03s-1.54,.39-2.29,.39Z"/><path class="ay" d="M160.12,325.13l.27,3.64-.12-.52c.32-.75,.79-1.39,1.39-1.94,.61-.55,1.25-.96,1.94-1.24,.69-.28,1.27-.43,1.76-.45l-.12,2.85c-.97-.08-1.81,.1-2.53,.53s-1.28,1-1.7,1.7-.62,1.45-.62,2.26v5.73h-2.82v-12.55h2.54Z"/><path class="ay" d="M172.51,337.92c-.89,0-1.75-.16-2.59-.47-.84-.31-1.53-.78-2.08-1.41l1.18-1.64c.55,.51,1.09,.88,1.64,1.14,.54,.25,1.09,.38,1.64,.38,.4,0,.78-.05,1.12-.15s.62-.27,.83-.52,.32-.56,.32-.94c0-.46-.15-.82-.44-1.08-.29-.25-.66-.46-1.11-.62-.45-.16-.93-.31-1.46-.45-1.03-.34-1.82-.82-2.37-1.42-.54-.61-.82-1.34-.82-2.21,0-.67,.17-1.29,.5-1.86,.33-.58,.83-1.05,1.5-1.42,.67-.37,1.47-.56,2.42-.56,.87,0,1.65,.11,2.33,.32,.69,.21,1.33,.57,1.94,1.08l-1.12,1.76c-.36-.38-.79-.67-1.29-.86-.49-.19-.94-.29-1.35-.29-.36,0-.7,.06-1.02,.17-.31,.11-.57,.27-.76,.48-.19,.21-.29,.48-.29,.8-.02,.42,.12,.76,.41,1.02,.29,.25,.66,.46,1.11,.62,.45,.16,.9,.32,1.37,.48,.61,.18,1.15,.42,1.64,.73,.48,.3,.87,.68,1.17,1.12,.29,.45,.44,1,.44,1.67,0,.75-.18,1.44-.53,2.08-.36,.64-.89,1.14-1.61,1.52-.72,.37-1.63,.56-2.74,.56Z"/></g><g><path class="ay" d="M381.72,319.78c-.75-.38-1.57-.72-2.46-1s-1.76-.42-2.61-.42c-1.17,0-2.11,.27-2.8,.82-.7,.55-1.04,1.27-1.04,2.18,0,.69,.23,1.27,.68,1.74,.46,.48,1.04,.88,1.76,1.23,.72,.34,1.48,.67,2.29,.97,.67,.24,1.33,.53,2,.86s1.27,.74,1.8,1.23c.54,.48,.96,1.08,1.27,1.79,.31,.71,.47,1.58,.47,2.61,0,1.17-.29,2.23-.87,3.18-.58,.95-1.4,1.7-2.47,2.24-1.07,.55-2.36,.82-3.85,.82-.95,0-1.87-.11-2.74-.32-.88-.21-1.69-.5-2.44-.86-.75-.36-1.41-.74-2-1.12l1.3-2.3c.49,.34,1.04,.67,1.67,.99,.62,.31,1.28,.56,1.97,.74,.69,.18,1.35,.27,2,.27,.71,0,1.39-.12,2.06-.36,.67-.24,1.22-.63,1.67-1.15,.45-.52,.67-1.22,.67-2.09,0-.73-.2-1.34-.59-1.85s-.91-.93-1.54-1.29-1.33-.67-2.08-.96c-.71-.24-1.41-.53-2.11-.85-.7-.32-1.34-.71-1.94-1.17-.6-.45-1.08-1.01-1.46-1.68-.37-.67-.56-1.47-.56-2.42,0-1.15,.28-2.16,.83-3.02,.55-.86,1.32-1.54,2.29-2.03,.97-.5,2.08-.76,3.33-.8,1.41,0,2.66,.17,3.74,.52,1.08,.34,2.04,.76,2.86,1.24l-1.12,2.27Z"/><path class="ay" d="M394.73,338.08c-.95,0-1.86-.22-2.74-.67-.88-.44-1.55-1.04-2.02-1.79l.15-.88v9.06h-2.82v-18.76h2.46l.39,3.21-.3-.91c.61-.77,1.37-1.4,2.3-1.89s1.97-.74,3.12-.74,2.23,.28,3.17,.83c.94,.56,1.68,1.34,2.23,2.36,.55,1.02,.82,2.21,.82,3.56s-.29,2.5-.88,3.5-1.39,1.77-2.41,2.3c-1.02,.54-2.18,.8-3.47,.8Zm-.54-2.24c.81,0,1.54-.19,2.21-.56,.67-.37,1.21-.89,1.62-1.55s.62-1.4,.62-2.23-.19-1.6-.58-2.26c-.38-.66-.89-1.17-1.53-1.55s-1.35-.56-2.14-.56c-.73,0-1.38,.14-1.97,.41-.59,.27-1.07,.65-1.46,1.14-.38,.49-.66,1.06-.82,1.73v2.12c.1,.61,.34,1.16,.73,1.67,.38,.5,.87,.9,1.44,1.2,.58,.29,1.2,.44,1.87,.44Z"/><path class="ay" d="M411.12,338.08c-1.44,0-2.67-.29-3.7-.86s-1.83-1.36-2.39-2.36-.85-2.15-.85-3.44,.32-2.35,.95-3.36c.64-1.01,1.48-1.82,2.53-2.42,1.05-.61,2.22-.91,3.52-.91,1.66,0,3.03,.48,4.12,1.45,1.09,.97,1.84,2.3,2.24,4l-10.37,3.64-.67-1.67,8.46-3.12-.58,.42c-.24-.67-.65-1.24-1.21-1.73-.56-.48-1.3-.73-2.21-.73-.77,0-1.45,.18-2.05,.55s-1.07,.86-1.41,1.5c-.34,.64-.51,1.38-.51,2.23s.18,1.61,.53,2.27,.85,1.19,1.49,1.56c.63,.37,1.36,.56,2.17,.56,.54,0,1.08-.1,1.59-.3,.52-.2,1-.46,1.47-.79l1.27,2.09c-.63,.42-1.33,.77-2.11,1.03-.78,.26-1.54,.39-2.29,.39Z"/><path class="ay" d="M426.28,338.08c-1.17,0-2.24-.25-3.2-.76-.96-.5-1.72-1.25-2.29-2.23-.57-.98-.85-2.18-.85-3.59s.29-2.63,.88-3.64c.58-1.01,1.37-1.79,2.36-2.33,.99-.55,2.07-.82,3.24-.82s2.17,.27,2.99,.8c.82,.54,1.43,1.17,1.83,1.89l-.18,.45,.27-2.64h2.61v12.55h-2.82v-3.27l.33,.73c-.1,.2-.29,.46-.58,.77-.28,.31-.64,.63-1.07,.96-.44,.32-.95,.59-1.53,.8-.59,.21-1.25,.32-2,.32Zm.76-2.33c.71,0,1.34-.13,1.91-.39,.57-.26,1.04-.64,1.41-1.12,.37-.49,.63-1.05,.77-1.7v-2.46c-.16-.61-.45-1.14-.85-1.59-.4-.46-.89-.81-1.46-1.06-.57-.25-1.18-.38-1.85-.38-.77,0-1.47,.18-2.09,.55-.63,.36-1.13,.87-1.5,1.52-.38,.65-.56,1.4-.56,2.27,0,.81,.19,1.54,.58,2.21,.38,.67,.9,1.19,1.54,1.58s1.34,.58,2.09,.58Z"/><path class="ay" d="M441.34,325.23l.27,3.64-.12-.52c.32-.75,.79-1.39,1.39-1.94,.61-.55,1.25-.96,1.94-1.24,.69-.28,1.27-.43,1.76-.45l-.12,2.85c-.97-.08-1.81,.1-2.53,.53s-1.28,1-1.7,1.7-.62,1.45-.62,2.26v5.73h-2.82v-12.55h2.54Z"/><path class="ay" d="M452.77,325.23l.24,2.82-.15-.24c.46-.95,1.12-1.7,1.98-2.26,.86-.56,1.85-.83,2.99-.83,.69,0,1.3,.12,1.85,.35,.55,.23,1,.56,1.35,.97s.58,.91,.68,1.5l-.15,.12c.49-.93,1.16-1.65,2.02-2.17,.86-.51,1.76-.77,2.71-.77,1.23,0,2.21,.35,2.93,1.06,.72,.71,1.1,1.61,1.13,2.7v9.3h-2.85v-8.27c-.02-.65-.18-1.19-.47-1.62s-.8-.66-1.53-.68c-.73,0-1.38,.22-1.96,.65s-1.02,1-1.33,1.7c-.31,.7-.48,1.46-.5,2.29v5.94h-2.85v-8.27c-.02-.65-.19-1.19-.5-1.62s-.83-.66-1.56-.68c-.73,0-1.38,.22-1.94,.65-.57,.43-1.01,1-1.33,1.71-.32,.71-.48,1.48-.48,2.3v5.91h-2.85v-12.55h2.58Z"/><path class="ay" d="M480.44,338.08c-1.17,0-2.24-.25-3.2-.76-.96-.5-1.72-1.25-2.29-2.23-.57-.98-.85-2.18-.85-3.59s.29-2.63,.88-3.64c.58-1.01,1.37-1.79,2.36-2.33,.99-.55,2.07-.82,3.24-.82s2.17,.27,2.99,.8c.82,.54,1.43,1.17,1.83,1.89l-.18,.45,.27-2.64h2.61v12.55h-2.82v-3.27l.33,.73c-.1,.2-.29,.46-.58,.77-.28,.31-.64,.63-1.07,.96-.44,.32-.95,.59-1.53,.8-.59,.21-1.25,.32-2,.32Zm.76-2.33c.71,0,1.34-.13,1.91-.39,.57-.26,1.04-.64,1.41-1.12,.37-.49,.63-1.05,.77-1.7v-2.46c-.16-.61-.45-1.14-.85-1.59-.4-.46-.89-.81-1.46-1.06-.57-.25-1.18-.38-1.85-.38-.77,0-1.47,.18-2.09,.55-.63,.36-1.13,.87-1.5,1.52-.38,.65-.56,1.4-.56,2.27,0,.81,.19,1.54,.58,2.21,.38,.67,.9,1.19,1.54,1.58s1.34,.58,2.09,.58Z"/><path class="ay" d="M495.53,325.23l.21,3.06-.09-.49c.38-.93,1.03-1.67,1.94-2.23,.91-.56,1.97-.83,3.18-.83s2.14,.35,2.89,1.04c.76,.7,1.15,1.6,1.17,2.71v9.27h-2.85v-8.3c-.02-.67-.22-1.22-.59-1.65-.37-.43-.95-.65-1.74-.65-.71,0-1.36,.2-1.96,.61-.6,.4-1.06,.96-1.39,1.67-.33,.71-.5,1.53-.5,2.46v5.88h-2.85v-12.55h2.58Z"/></g><g><path class="ay" d="M337.11,479.28c-.37,.24-.86,.52-1.49,.82s-1.36,.56-2.2,.76-1.76,.3-2.77,.3c-1.68-.02-3.2-.32-4.56-.91-1.36-.59-2.53-1.38-3.49-2.39-.96-1.01-1.69-2.18-2.2-3.5-.5-1.32-.76-2.73-.76-4.23,0-1.64,.26-3.15,.79-4.53s1.28-2.59,2.26-3.61c.98-1.02,2.13-1.81,3.46-2.38,1.32-.57,2.77-.85,4.35-.85,1.31,0,2.5,.18,3.58,.53,1.07,.35,1.99,.76,2.76,1.23l-1.18,2.79c-.61-.42-1.34-.82-2.21-1.18s-1.82-.55-2.85-.55-2.08,.21-3.03,.64c-.95,.42-1.79,1.02-2.52,1.79-.73,.77-1.3,1.66-1.71,2.67-.41,1.01-.62,2.11-.62,3.3s.19,2.27,.56,3.29c.37,1.02,.91,1.91,1.61,2.67s1.54,1.35,2.53,1.77c.99,.42,2.1,.64,3.33,.64,1.11,0,2.1-.17,2.97-.52,.87-.34,1.59-.73,2.15-1.15l1.24,2.61Z"/><path class="ay" d="M346.56,481.22c-1.17,0-2.24-.25-3.2-.76-.96-.5-1.72-1.25-2.29-2.23-.57-.98-.85-2.18-.85-3.59s.29-2.63,.88-3.64c.58-1.01,1.37-1.79,2.36-2.33,.99-.55,2.07-.82,3.24-.82s2.17,.27,2.99,.8c.82,.54,1.43,1.17,1.83,1.89l-.18,.45,.27-2.64h2.61v12.55h-2.82v-3.27l.33,.73c-.1,.2-.29,.46-.58,.77-.28,.31-.64,.63-1.07,.96-.44,.32-.95,.59-1.53,.8-.59,.21-1.25,.32-2,.32Zm.76-2.33c.71,0,1.34-.13,1.91-.39,.57-.26,1.04-.64,1.41-1.12,.37-.49,.63-1.05,.77-1.7v-2.46c-.16-.61-.45-1.14-.85-1.59-.4-.46-.89-.81-1.46-1.06-.57-.25-1.18-.38-1.85-.38-.77,0-1.47,.18-2.09,.55-.63,.36-1.13,.87-1.5,1.52-.38,.65-.56,1.4-.56,2.27,0,.81,.19,1.54,.58,2.21,.38,.67,.9,1.19,1.54,1.58s1.34,.58,2.09,.58Z"/><path class="ay" d="M360.29,462.85h2.88v5.58h3.42v2.21h-3.42v10.27h-2.88v-10.27h-2.27v-2.21h2.27v-5.58Z"/><path class="ay" d="M375.21,481.22c-1.17,0-2.24-.25-3.2-.76-.96-.5-1.72-1.25-2.29-2.23-.57-.98-.85-2.18-.85-3.59s.29-2.63,.88-3.64c.58-1.01,1.37-1.79,2.36-2.33,.99-.55,2.07-.82,3.24-.82s2.17,.27,2.99,.8c.82,.54,1.43,1.17,1.83,1.89l-.18,.45,.27-2.64h2.61v12.55h-2.82v-3.27l.33,.73c-.1,.2-.29,.46-.58,.77-.28,.31-.64,.63-1.07,.96-.44,.32-.95,.59-1.53,.8-.59,.21-1.25,.32-2,.32Zm.76-2.33c.71,0,1.34-.13,1.91-.39,.57-.26,1.04-.64,1.41-1.12,.37-.49,.63-1.05,.77-1.7v-2.46c-.16-.61-.45-1.14-.85-1.59-.4-.46-.89-.81-1.46-1.06-.57-.25-1.18-.38-1.85-.38-.77,0-1.47,.18-2.09,.55-.63,.36-1.13,.87-1.5,1.52-.38,.65-.56,1.4-.56,2.27,0,.81,.19,1.54,.58,2.21,.38,.67,.9,1.19,1.54,1.58s1.34,.58,2.09,.58Z"/><path class="ay" d="M395.15,481.22c-.95,0-1.87-.22-2.74-.67-.88-.44-1.55-1.04-2.02-1.79l.15-.88v9.06h-2.82v-18.76h2.46l.39,3.21-.3-.91c.61-.77,1.38-1.4,2.3-1.89,.93-.5,1.97-.74,3.12-.74s2.23,.28,3.17,.83c.94,.56,1.68,1.34,2.23,2.36s.82,2.21,.82,3.56-.29,2.5-.88,3.5-1.39,1.77-2.41,2.3c-1.02,.54-2.18,.8-3.47,.8Zm-.55-2.24c.81,0,1.55-.19,2.21-.56s1.21-.89,1.62-1.55,.62-1.4,.62-2.23-.19-1.6-.58-2.26c-.38-.66-.89-1.17-1.53-1.55s-1.35-.56-2.14-.56c-.73,0-1.38,.14-1.97,.41-.59,.27-1.07,.65-1.46,1.14-.38,.49-.66,1.06-.82,1.73v2.12c.1,.61,.34,1.16,.73,1.67,.38,.5,.86,.9,1.44,1.2s1.2,.44,1.86,.44Z"/><path class="ay" d="M409.73,481.4c-1.17,0-2.13-.35-2.87-1.05s-1.13-1.6-1.17-2.71v-9.27h2.85v8.27c.04,.67,.24,1.22,.61,1.65,.36,.44,.93,.66,1.7,.68,.69,0,1.31-.21,1.86-.62,.55-.41,1.01-.98,1.35-1.7,.34-.72,.51-1.53,.51-2.44v-5.85h2.82v12.55h-2.58l-.24-3.09,.18,.58c-.26,.57-.63,1.08-1.12,1.53-.48,.46-1.06,.81-1.74,1.08s-1.4,.39-2.17,.39Z"/><path class="ay" d="M422.24,457.46h2.85v23.46h-2.85v-23.46Z"/><path class="ay" d="M431.15,462.85h2.88v5.58h3.42v2.21h-3.42v10.27h-2.88v-10.27h-2.27v-2.21h2.27v-5.58Z"/></g><g><line class="as" x1="207.46" y1="209.55" x2="119.86" y2="301.83"/><path class="ba" d="M113.46,308.58c1.84-4.29,3.57-10.14,3.76-14.61l3.49,6.97,7.14,3.12c-4.45,.42-10.2,2.45-14.39,4.51Z"/></g><g><line class="as" x1="118.57" y1="354.34" x2="180.21" y2="434.88"/><path class="ba" d="M185.87,442.27c-3.95-2.49-9.46-5.12-13.83-6.01l7.44-2.35,4.21-6.56c-.28,4.46,.82,10.46,2.19,14.92Z"/></g><g><line class="au" x1="258.25" y1="472.26" x2="302.83" y2="472.26"/><path class="b`" d="M312.13,472.26c-4.38,1.62-9.81,4.4-13.18,7.33l2.65-7.33-2.65-7.33c3.37,2.94,8.8,5.71,13.18,7.33Z"/></g><g><line class="as" x1="375.26" y1="436.7" x2="430.3" y2="366.21"/><path class="ba" d="M436.03,358.88c-1.41,4.45-2.57,10.44-2.33,14.9l-4.15-6.6-7.41-2.42c4.39-.85,9.92-3.42,13.89-5.88Z"/></g><g><line class="as" x1="435.61" y1="308.58" x2="345.54" y2="215.91"/><path class="ba" d="M339.06,209.24c4.22,2.01,9.99,3.97,14.44,4.34l-7.11,3.21-3.41,7.01c-.24-4.46-2.04-10.29-3.93-14.56Z"/></g><g><line class="at" x1="188.41" y1="316.16" x2="343.68" y2="316.16"/><path class="ax" d="M352.98,316.16c-4.38,1.62-9.81,4.4-13.18,7.33l2.65-7.33-2.65-7.33c3.37,2.94,8.8,5.71,13.18,7.33Z"/></g><g><line class="at" x1="358.55" y1="346.64" x2="208.68" y2="437.45"/><path class="ax" d="M200.72,442.27c2.9-3.66,6.11-8.84,7.47-13.1l1.53,7.65,6.07,4.9c-4.4-.77-10.48-.32-15.07,.56Z"/></g><g><line class="at" x1="356.7" y1="436.7" x2="188.37" y2="342.23"/><path class="ax" d="M180.25,337.67c4.61,.73,10.71,.97,15.08,.06l-5.9,5.1-1.27,7.69c-1.5-4.21-4.88-9.29-7.9-12.84Z"/></g><g><line class="at" x1="196.08" y1="423.7" x2="266.38" y2="232.47"/><path class="ax" d="M269.59,223.73c.01,4.67,.74,10.73,2.34,14.9l-5.97-5.02-7.8-.04c3.92-2.15,8.39-6.29,11.43-9.84Z"/></g><g><line class="at" x1="283.65" y1="229.17" x2="362.4" y2="417.9"/><path class="ax" d="M365.98,426.48c-3.19-3.42-7.84-7.36-11.84-9.34l7.79-.38,5.74-5.27c-1.41,4.24-1.88,10.32-1.69,14.99Z"/></g></g></g><g id="e"/><g id="f"/><g id="g"/><g id="h"/><g id="i"/><g id="j"/><g id="k"/><g id="l"/><g id="m"/><g id="n"/><g id="o"/><g id="p"/><g id="q"/><g id="r"/><g id="s"/><g id="t"/><g id="u"/><g id="v"/><g id="w"/><g id="x"/><g id="y"/><g id="a`"/><g id="aa"/><g id="ab"/><g id="ac"/><g id="ad"/><g id="ae"/><g id="af"/><g id="ag"/><g id="ah"/><g id="ai"/><g id="aj"/><g id="ak"/><g id="al"/><g id="am"/><g id="an"/><g id="ao"/><g id="ap"/><g id="aq"/><g id="ar"/></svg>