<?xml version="1.0" encoding="UTF-8"?><svg xmlns="http://www.w3.org/2000/svg" viewBox="0 0 200 200"><defs><style>.f{fill:#f5d582;}.g{fill:#334056;}.h{fill:#cd665f;}.i{fill:#d68458;}</style></defs><g id="a"/><g id="b"><g><g><polyline class="i" points="69.08 65.72 59.59 87.42 71.34 87.42 88.07 67.3 69.08 65.72"/><polyline class="i" points="88.07 67.3 99.6 79.96 90.1 86.74 69.08 65.72 88.07 67.3"/><polygon class="g" points="59.59 87.42 46.25 101.66 51.9 103.24 71.34 87.42 59.59 87.42"/><polygon class="g" points="99.6 79.96 94.4 105.27 88.07 106.13 90.1 86.74 99.6 79.96"/><polyline class="h" points="74.05 39.27 62.07 48.08 63.66 55.09 71.37 53.55 74.05 39.27"/><polygon class="h" points="62.07 48.08 53.71 60.97 58.46 63 63.66 55.09 62.07 48.08"/><polygon class="g" points="69.08 65.72 74.05 39.27 90.56 39.72 88.07 67.3 69.08 65.72"/><polygon class="f" points="74.05 39.27 81.97 43.34 81.06 49.67 82.87 49.89 84.23 43.56 90.56 39.72 74.05 39.27"/><polygon class="h" points="99.6 55.81 94.62 58.26 89.48 51.68 90.56 39.72 99.6 55.81"/><polygon class="h" points="94.62 58.26 98.02 62.1 103.72 60.97 99.6 55.81 94.62 58.26"/><polygon class="f" points="68.63 66.39 58.79 82.82 69.27 87.22 80.41 74.06 91.55 85.2 102.14 79.96 88.77 66.39 68.63 66.39"/><polygon class="h" points="51.9 103.24 46.25 101.66 42.86 104.37 42.86 111.5 46.7 111.15 51.9 103.24"/><polygon class="h" points="88.07 106.13 88.07 109.71 101.18 109.71 94.4 105.27 88.07 106.13"/><polygon class="h" points="82.42 25.7 91.01 27.06 91.46 34.75 87.62 42.66 80.16 40.4 79.25 38.14 82.42 25.7"/><g><polygon class="g" points="51.77 65.95 51.78 68.26 157.83 58.33 157.64 56.91 51.77 65.95"/><polygon class="g" points="177.23 55.67 161.58 55.61 160.29 57.43 177.23 55.67"/><polygon class="g" points="157.64 56.91 157.68 56.87 159.14 55.13 160.29 57.43 157.83 58.33 157.64 56.91"/><polygon class="g" points="177.23 55.67 162.09 58.93 160.29 57.43 177.23 55.67"/><polygon class="g" points="157.83 58.33 159.56 60.05 160.29 57.43 157.83 58.33"/></g><polygon class="f" points="98.92 65.04 98.02 62.1 103.72 60.97 105.2 65.04 98.92 65.04"/><polygon class="f" points="53.71 60.97 50.77 68.65 56.65 70.24 58.46 63 53.71 60.97"/></g><g><polygon class="h" points="25.03 147.48 22.77 153.13 31.36 152.9 30.95 147.48 25.03 147.48"/><g><g><polygon class="g" points="36.35 108.06 36.99 110.28 136.37 71.97 135.81 70.66 36.35 108.06"/><polygon class="g" points="154.32 64.15 139.24 68.33 138.5 70.44 154.32 64.15"/><polygon class="g" points="135.81 70.66 135.83 70.6 136.77 68.54 138.5 70.44 136.37 71.97 135.81 70.66"/><polygon class="g" points="154.32 64.15 140.63 71.4 138.5 70.44 154.32 64.15"/><polygon class="g" points="136.37 71.97 138.51 73.16 138.5 70.44 136.37 71.97"/></g><polygon class="g" points="42.66 98.87 48.08 73.11 68.88 81.92 58.71 101.81 42.66 98.87"/><polygon class="i" points="34.3 126 42.66 98.87 58.71 101.81 42.66 126.88 34.3 126"/><polygon class="i" points="67.65 126.88 59.61 127.58 42.66 98.87 58.71 101.81 67.65 126.88"/><polygon class="g" points="34.3 126 25.03 147.48 30.95 147.48 42.66 126.88 34.3 126"/><polygon class="g" points="67.65 126.88 72.27 146.57 67.65 146.57 59.61 127.58 67.65 126.88"/><polygon class="g" points="68.88 81.92 77.25 89.38 76.11 97.07 64.03 91.41 68.88 81.92"/><polygon class="g" points="91.03 90.96 76.11 97.07 77.25 89.38 89.45 87.12 91.03 90.96"/><polygon class="g" points="58.71 101.81 61.71 101.81 63 97.52 61.14 97.07 58.71 101.81"/><polygon class="f" points="89.45 87.12 93.07 84.41 97.12 87.46 91.03 90.96 89.45 87.12"/><polygon class="f" points="63 97.52 65.26 96.61 66.39 100.23 61.71 101.81 63 97.52"/><polygon class="h" points="67.65 146.57 67.65 151.8 72.95 151.54 72.27 146.57 67.65 146.57"/><polygon class="f" points="48.08 73.11 56.22 79.66 55.16 86.45 56.74 87.12 58.71 80.86 68.88 81.92 48.08 73.11"/><polygon class="f" points="42.66 98.87 32.37 124.56 40.92 125.7 51.05 111.52 60.16 125.7 70 124.55 58.71 101.81 42.66 98.87"/><polygon class="h" points="54.19 76.72 55.77 65.74 63.46 64.06 66.39 66.55 67.07 77.63 61.42 80.34 54.19 76.72"/></g></g><g><polygon class="g" points="74.18 97.89 97.91 99.02 94.97 120.5 78.02 120.04 74.18 97.89"/><polygon class="i" points="104.24 115.3 96.48 109.52 97.91 99.02 107.18 110.1 104.24 115.3"/><polygon class="i" points="71.01 113.71 65.36 110.55 74.18 97.89 76.19 109.49 71.01 113.71"/><polygon class="i" points="107.18 110.1 113.96 114.62 110.34 118.01 104.24 115.3 107.18 110.1"/><polygon class="i" points="65.36 110.55 71.92 126.15 75.31 124.79 71.01 113.71 65.36 110.55"/><polygon class="i" points="78.02 120.04 98.36 144.91 105.37 146.04 94.97 120.5 78.02 120.04"/><polygon class="i" points="71.46 146.49 78.02 149.35 94.97 120.5 78.02 120.04 71.46 146.49"/><polygon class="g" points="71.46 146.49 59.26 165.93 64.69 165.93 78.02 149.35 71.46 146.49"/><polygon class="g" points="98.36 144.91 95.88 165.48 100.4 163.22 105.37 146.04 98.36 144.91"/><polygon class="h" points="59.26 165.93 59.26 171.32 61.97 174.3 64.91 171.58 64.69 165.93 59.26 165.93"/><polygon class="h" points="100.4 163.22 109.67 168.64 96.52 168.64 95.88 165.48 100.4 163.22"/><polygon class="f" points="74.18 97.89 84.8 100.83 87.06 108.06 89.4 108.06 89.1 101.06 97.91 99.02 74.18 97.89"/><polygon class="f" points="78.02 120.04 69.43 144.01 82.31 148.75 87.5 127.72 94.97 143.33 106.5 144.46 94.97 120.5 78.02 120.04"/><polygon class="h" points="85.48 93.37 87.06 83.42 91.7 81.47 98.59 87.72 98.59 95.78 94.52 99.93 81.64 98.34 85.48 93.37"/><g><polygon class="g" points="52.93 134.06 53.38 136.32 155.55 106.25 155.1 104.9 52.93 134.06"/><polygon class="g" points="174.09 99.93 158.72 102.86 157.8 104.9 174.09 99.93"/><polygon class="g" points="155.1 104.9 155.13 104.85 156.23 102.86 157.8 104.9 155.55 106.25 155.1 104.9"/><polygon class="g" points="174.09 99.93 159.85 106.03 157.8 104.9 174.09 99.93"/><polygon class="g" points="155.55 106.25 157.59 107.61 157.8 104.9 155.55 106.25"/></g><polygon class="f" points="108.52 118.01 114.26 114.05 117.08 118.01 111.7 121.17 108.52 118.01"/><polygon class="f" points="71.24 126.37 76.19 124.39 79.83 129.76 73.5 132.02 71.24 126.37"/></g></g></g><g id="c"/><g id="d"/><g id="e"/></svg>