<?xml version="1.0" encoding="UTF-8"?><svg id="a" xmlns="http://www.w3.org/2000/svg" viewBox="0 0 200 200"><defs><style>.b{fill:#fff;}</style></defs><path class="b" d="M33.01,170.25c-3.97,1.07-3.5-1.52-3.49-4.04,.04-45.57,.03-91.14,.03-136.72,46.98,0,93.97,0,140.95,0,0,46.92,0,93.84,0,140.75-45.44,0-90.89,0-136.33,0,1.14-1.47,2.13-3.08,3.43-4.38,22.55-22.53,45.13-45.03,67.71-67.53,9.25-9.22,18.55-18.39,27.68-27.72,.88-.9,.72-2.83,1.05-4.27-1.45,.2-2.94,.27-4.33,.67-.65,.19-1.1,1.03-1.64,1.57-22.56,22.52-45.11,45.07-67.71,67.55-10.04,9.99-20.2,19.87-30.39,29.88l3.04,4.22Zm105.63-105.72c3.66-2.37,6.38-5.18,9.58-5.94,4.21-1,6.6-3.15,8.51-6.69,2.27-4.2,4.88-8.22,7.34-12.32,1.45-2.42,2.89-4.86,4.33-7.29-8.95,4.02-16.83,8.72-24.62,13.56-.97,.6-1.67,1.89-2.12,3.02-1.69,4.12-3.22,8.31-5.25,13.62l2.23,2.05Z"/><path d="M33.01,170.25l-3.04-4.22c10.18-10.01,20.34-19.88,30.39-29.88,22.6-22.49,45.14-45.03,67.71-67.55,.54-.54,1-1.39,1.64-1.57,1.39-.4,2.88-.47,4.33-.67-.32,1.45-.16,3.37-1.05,4.27-9.13,9.34-18.43,18.51-27.68,27.72-22.58,22.5-45.16,45-67.71,67.53-1.3,1.3-2.29,2.91-3.43,4.38h-1.16Z"/><path d="M138.65,64.53l-2.23-2.05c2.03-5.31,3.56-9.5,5.25-13.62,.46-1.12,1.16-2.41,2.12-3.02,7.79-4.84,15.67-9.54,24.62-13.56-1.44,2.43-2.88,4.86-4.33,7.29-2.46,4.1-5.07,8.12-7.34,12.32-1.91,3.54-4.3,5.69-8.51,6.69-3.2,.76-5.91,3.57-9.58,5.94Z"/></svg>