<?xml version="1.0" encoding="UTF-8"?><svg xmlns="http://www.w3.org/2000/svg" viewBox="0 0 200 200"><defs><style>.f{fill:#f5d582;}.g{fill:#334056;}.h{fill:#cd665f;}.i{fill:#d68458;}</style></defs><g id="a"/><g id="b"/><g id="c"/><g id="d"><g><g><g><polygon class="g" points="112.45 90.88 124.77 95.43 124.24 96.95 111.77 92.14 112.45 90.88"/><polygon class="g" points="115.78 102.43 118.11 96.22 121.49 95.88 114.39 93.15 116.92 95.69 114.74 101.73 115.78 102.43"/><polygon class="g" points="119.78 93.59 133.34 51.78 133.2 49.8 131.84 50.89 116.76 92.47 119.78 93.59"/><polygon class="g" points="116.35 104.38 115.78 102.43 114.74 101.73 113.18 103.05 114.13 105.32 116.35 104.38"/></g><g><g><polygon class="i" points="137.31 129.58 125.29 122.32 109.86 138.21 115.08 142.52 137.31 129.58"/><polyline class="g" points="109.86 138.21 94.2 147.28 93.29 155 99.42 155.68 98.28 151.14 115.08 142.52 109.86 138.21"/><polygon class="g" points="154.79 114.38 141.17 104.62 125.29 122.32 137.31 129.58 154.79 114.38"/><polygon class="i" points="120.83 126.91 149.11 143.88 152.43 138.21 128.79 118.05 125.29 122.32 120.83 126.91"/><polygon class="g" points="152.43 138.21 149.11 143.88 143.44 155.23 138.68 154.32 146.71 133.33 152.43 138.21"/><polygon class="h" points="138.68 158.36 138.68 154.32 143.44 155.23 150.25 158.63 138.68 158.36"/><polygon class="i" points="124.83 104.17 136.39 109.95 141.17 104.62 128.92 100.54 124.83 104.17"/><polygon class="i" points="116.21 101.9 124.83 104.17 128.92 100.54 117.57 98.5 116.21 101.9"/><polygon class="h" points="144.67 107.13 155.92 102.13 159.55 106.66 158.19 112.56 154.79 114.38 144.67 107.13"/><polygon class="i" points="154.79 114.38 158.19 120.96 158.19 126.03 148.49 119.86 154.79 114.38"/><polygon class="i" points="158.19 120.96 166.13 119.15 165.68 123.23 158.19 126.03 158.19 120.96"/><polygon class="g" points="168.25 105.24 175.44 116.42 169.54 128.9 155.47 140.93 160.46 122.78 165.11 109.95 168.25 105.24"/></g><polygon class="h" points="93.29 155 99.42 155.68 98.28 151.14 94.2 147.28 93.29 155"/><polygon class="f" points="154.11 138.21 145.71 140.88 131.87 131.57 113.71 142.46 108.5 137.75 128.69 117.96 140.49 127.03 154.11 138.21"/><polygon class="f" points="154.79 114.38 148.49 112.93 142.99 116.65 142.16 115.97 146.39 111.43 141.17 104.62 154.79 114.38"/></g><polygon class="f" points="117.57 98.5 115.08 96.85 113.49 97.08 112.67 99.45 114.17 101.16 116.21 101.9 117.57 98.5"/></g><g><polygon class="h" points="61.95 141.53 58.44 143.84 55.72 143.44 58.74 135.66 58.44 141.53 61.95 141.53"/><g><polygon class="g" points="97.88 86.44 76.32 75.42 68.66 103.21 86.86 106.56 97.88 86.44"/><polygon class="f" points="97.88 86.44 91.17 75.9 76.32 75.42 86.21 80.48 82.61 91.23 83.97 91.91 89.52 82.17 97.88 86.44"/><polygon class="i" points="86.86 106.56 66.74 131.47 59.08 129.07 68.66 103.21 86.86 106.56"/><polygon class="i" points="89.37 101.97 104.1 115.18 94.52 118.05 82.49 111.96 86.86 106.56 89.37 101.97"/><polygon class="h" points="87.1 67.3 85.42 77.82 91.65 80.69 96.92 76.38 97.4 68.24 92.61 65.36 87.1 67.3"/><polygon class="g" points="104.1 115.18 103.62 124.76 95 125.72 94.52 118.05 104.1 115.18"/><polygon class="g" points="103.62 124.76 99.79 139.61 96.23 139.61 95 125.72 103.62 124.76"/><polygon class="g" points="66.74 131.47 61.95 141.53 58.44 141.53 59.08 129.07 66.74 131.47"/><polygon class="h" points="99.79 139.61 108.73 139.61 108.41 138.17 100.98 135.02 99.79 139.61"/><polygon class="i" points="76.32 75.42 68.66 94.1 73.93 95.06 81.59 80.69 76.32 75.42"/><polygon class="f" points="91.77 102.74 105.98 114.83 97.83 117.73 82.4 110.01 66.74 129.08 58.1 127.31 67.97 101.97 82.04 104.4 90.01 100.81 91.77 102.74"/><polygon class="i" points="78.24 107.52 68.66 94.1 73.93 95.06 80.63 106.73 78.24 107.52"/><g><polygon class="g" points="88.45 93.55 94.33 108.81 92.63 109.62 86.84 93.99 88.45 93.55"/><polygon class="g" points="81.26 106.48 88.39 103.33 91.35 106.17 88.06 97.28 87.9 101.78 81.03 104.92 81.26 106.48"/><polygon class="g" points="91.95 102.64 138.25 79.53 139.82 77.73 137.83 77.4 90.51 98.89 91.95 102.64"/><polygon class="g" points="80.06 108.66 81.26 106.48 81.03 104.92 78.67 104.6 77.49 107.41 80.06 108.66"/></g><polygon class="f" points="89.28 103.7 88.32 99.93 83.09 102.8 85.93 106.63 89.28 103.7"/><polygon class="f" points="82.47 107.1 81.51 103.33 76.28 106.21 79.12 110.04 82.47 107.1"/></g></g><g><g><polygon class="g" points="39.72 84.71 52.72 84.71 61.32 92.37 57.05 117.2 38.75 117.2 39.72 84.71"/><polygon class="i" points="38.75 117.2 32.14 144.27 39.72 146.44 57.05 117.2 38.75 117.2"/><polygon class="i" points="57.05 117.2 71.13 133.44 64.63 141.02 38.64 117.2 57.05 117.2"/><polygon class="g" points="73.29 154.02 78.71 152.93 71.13 133.44 64.63 141.02 73.29 154.02"/><polygon class="g" points="34.31 158.35 39.72 146.44 32.14 144.27 29.98 158.35 34.31 158.35"/><polygon class="h" points="78.71 152.93 86.29 158.35 86.29 160.11 73.29 158.35 73.29 154.02 78.71 152.93"/><polygon class="h" points="34.31 158.35 35.39 163.76 29.98 163.76 28.89 162.68 29.98 158.35 34.31 158.35"/><polygon class="i" points="39.72 84.71 24.56 84.71 24.56 89.52 39.46 92.97 39.72 84.71"/></g><polygon class="f" points="43.36 84.71 47.71 92.37 47.71 104.8 49.52 104.85 50.06 92.97 58.13 89.53 52.72 84.71 43.36 84.71"/><polygon class="f" points="38.75 117.2 30.92 137.75 40.65 140.42 57.05 117.2 38.75 117.2"/><polygon class="f" points="71.67 129.95 57.05 117.2 47.23 125.9 63.34 138.15 71.67 129.95"/><polygon class="i" points="58.13 90.61 61.32 92.37 62.46 99.87 47.3 100.96 48.38 94.46 58.13 90.61"/><polygon class="i" points="48.38 94.46 36.47 90.13 34.31 93.38 47.3 100.96 48.38 94.46"/><polygon class="h" points="45.14 85.8 49.47 73.88 55.67 73.88 58.13 77.13 57.23 85.8 55.96 85.8 54.88 90.13 50.56 90.13 45.14 85.8"/><g><polygon class="g" points="26.87 80.96 41.07 89.07 40.26 90.78 25.9 82.32 26.87 80.96"/><polygon class="g" points="29.45 95.52 32.99 88.58 37.08 88.91 28.92 84.1 31.64 87.68 28.29 94.46 29.45 95.52"/><polygon class="g" points="35.32 85.79 56.62 38.63 56.69 36.24 54.94 37.24 31.84 83.8 35.32 85.79"/><polygon class="g" points="29.9 97.97 29.45 95.52 28.29 94.46 26.26 95.7 27.12 98.63 29.9 97.97"/></g><polygon class="f" points="28.08 90.13 31.06 84.71 36.47 90.13 34.31 93.38 28.08 90.13"/></g></g></g><g id="e"/></svg>