<?xml version="1.0" encoding="UTF-8"?><svg id="a" xmlns="http://www.w3.org/2000/svg" viewBox="0 0 200 200"><defs><style>.c{fill:#fff;}</style></defs><g id="b"><g><path class="c" d="M33,152.33V33c44.67,0,89.33,0,134,0,0,44.67,0,89.33,0,134-44.67,0-89.33,0-134,0,0-3.56,0-7.11,0-10.67,.2,.39,.44,.77,.59,1.18,2.04,5.69,6.64,9.04,11.97,8.7,5.81-.37,9.95-4.33,11.12-10.54,.18-.94,.38-2.07,1-2.7,5.56-5.7,11.22-11.31,17.23-17.32,5.13,5.28,10.04,10.35,15.25,15.72,1.83-1.98,3.41-3.69,4.98-5.41,.37-.4,.71-.84,.79-.94-10.37-17.45-24.26-31.21-41.27-41.46l-6.27,6.43c4.81,4.78,9.76,9.69,14.89,14.78-5.65,5.65-11.27,11.3-16.94,16.91-.43,.43-1.14,.76-1.74,.81-6.25,.49-9.7,4.25-11.61,9.83Zm56.06-25.71c15.5-14.71,31.21-29.6,46.91-44.51,5.96-5.66,13.06-10.56,17.51-17.23,4.5-6.75,6.38-15.25,9.38-23,1.02-2.63,1.95-5.29,3.12-8.49-1.66,.54-2.69,.82-3.68,1.2-8.39,3.2-16.8,6.34-25.13,9.68-1.78,.71-3.55,1.86-4.86,3.23-19.47,20.4-38.87,40.88-58.27,61.34-.57,.6-1.09,1.25-1.25,1.43l16.27,16.34Z"/><path d="M33,152.33c1.91-5.59,5.35-9.34,11.61-9.83,.6-.05,1.31-.38,1.74-.81,5.66-5.61,11.29-11.26,16.94-16.91-5.13-5.09-10.08-10-14.89-14.78l6.27-6.43c17.01,10.24,30.9,24.01,41.27,41.46-.08,.1-.42,.53-.79,.94-1.57,1.72-3.15,3.42-4.98,5.41-5.21-5.37-10.13-10.43-15.25-15.72-6.01,6.01-11.67,11.62-17.23,17.32-.61,.63-.82,1.76-1,2.7-1.16,6.21-5.3,10.16-11.12,10.54-5.32,.34-9.93-3.01-11.97-8.7-.15-.41-.39-.79-.59-1.18v-4Z"/><path d="M89.06,126.63l-16.27-16.34c.16-.18,.68-.83,1.25-1.43,19.41-20.46,38.8-40.94,58.27-61.34,1.32-1.38,3.09-2.52,4.86-3.23,8.34-3.33,16.74-6.48,25.13-9.68,.99-.38,2.03-.66,3.68-1.2-1.18,3.21-2.1,5.87-3.12,8.49-3,7.75-4.88,16.25-9.38,23-4.45,6.67-11.55,11.57-17.51,17.23-15.7,14.91-31.41,29.8-46.91,44.51Z"/></g></g></svg>