<?xml version="1.0" encoding="UTF-8"?><svg xmlns="http://www.w3.org/2000/svg" viewBox="0 0 200 200"><defs><style>.f{fill:#e8cd7d;}.g{fill:#8d3866;}.h{fill:#db9951;}.i{fill:#361731;}</style></defs><g id="a"/><g id="b"/><g id="c"><g><path class="g" d="M147.4,76.99l1.19-1.9-2.34-3.32,.74-.48,1.74-.62,1.31-1.82-2.86,.93-.66,1.14-.91,.6-1.08,.08-5.43-9.2-10.18-11.1-12.22-6.15-.23,.61,.58,.3,1,12.41-15.23-11.7-.09,.75,.72,.6-5.5,20.4-2.36-5.67-10.97-11.46-20.63-12.19-.57,.6,3.1,31.49-.56-.25-4.27,4.06,.77,6.74-15.38,1.99v5.65l14.2,5.27-1.22-7.38h0l3.93,23.76-7.55,25.02,2.5-.06-4.18,15.45-8.17,4.86,14.17-1.61,.05-3.26,5.2-15.63,2.46-.06,3.35-8.14,3.29-3.88,5.84,6.68,2.51,5.34,1.65,.05,1.25,2.6-2.74,11.93-7.11,4.39h13.16l-1.18-4.39,1.53-4.33,3.71,7.7v3.06l-1.87,4.02h4.68l3.68-1.84-1.55-5.24-5.67-16.09,.55-1.56h.49l-.24-.71,1.93-5.46,1.15-2.32,2.84,.32-.1-5.82,.54-1.08,1.58,2.52,1.02,4.38,1.78,.08,.81,1.29,4.36,23.45,.19,2.59,8.92,1.77-4.36-4.74-2.35-22.45-.28-1.58,1.88,.09-5.86-22.82-.39-2.29,13.54,14.78-.14,.33,.62,1.03,4.2-8.74,.07,.22-4.02,18.05,4.02,.35v2.2l-1.51,15.65-9.69,4.68,14.36-.97-.1-3.71,4.77-15.33,1.6-5.25,1.84,3.06h0l1.12,1.86,6.11,18.59,1.53,5.35,4.49,.03,.94-1.37-1.88-4.01-2.03-20.2-.46-2.01,1.47-.26-3.74-12.69,6.65,7.45-.03,.29h.48l1.81-15.46v-10.62l-6.03-19.64Zm-30.03-30.77l11.02,5.73,9.17,10.84,4.95,8.94-.88,.06,.26,2.15-11.64,7.62-.04-.15,1.16-.62-.88-3.49-.86-.39,1.05-.27,1.99,.09,2.32-1.77-3.23-.26-1.3,1.19-1.67,.45-1.79-6.41-8.06-10.78-.45-.35-1.11-12.58Zm.17,41.41l1.1-.6,.18-.08,.1,.24-.2,.21-1.18,.23Zm-27.62-11.93l-.87,1.81,.21,.71-7.6,2.71,.83,5.99h0l-.83-5.99-8.37,1.34,.18-1.49,16.47-5.08Zm11.35,8.93v.29l-2.3,.31,.07-.3,2.13-.56,.1,.26Zm-2.09-.35l.25-1.12-.44-4.51h.01l1.95,5.15-1.77,.48Zm-15.73,9.64l5.59,1.49,2.29,11.59-1.24,6.05-4.95-7.01-1.69-12.13Zm19.47-9.23l-.09-.77,16.89-4.43,.03,.43-1.35,2.25-.89,.23-13.34,2.12-1.25,.17Zm23.89-7.05v.02l-.31,.14-1.3,2.21-4.87-.28-.03-.37,6.52-1.71Zm-6.59,.98l-1.51-17.22,6.32,8.91,1.6,6.58-6.41,1.72Zm7.64,4.04l.15-.08,.09,.36-.24-.28Zm-24.13-34.31l14.01,11.71,.46,.65,1.46,18.06-16.9,4.54-.48-4.34-.62-1.49,2.13-1.07-.71-3.99h-2.59l4.04-1.25h2l2.24-1.87-3.24-.12-1.25,1.25-4.92,1.55-1.2-2.9,5.56-20.74Zm-39.68-8.23l19.29,12.49,9.98,10.97,3.46,9.16-.02,.08-.56,.18-1.13-.56-4.12,1.12-.62,1.28-16.9,5.33-1.56-6.49-4.67-2.11-3.15-31.45Zm21.2,66.78l4.74,6.63-1.3,6.34-2.86-8.77-.58-4.2Zm35.87,10.77l-13.85-15.04-1.47-8.57,8.8-4.82-3.7,6.06,11.08,3.44-2.09-6.92-2.18-.19,.23-.97,3.18-.18,.6,.38-1.83,.96,5.11,16.93-3.89,8.92Zm30.09,4.28l-6.95-7.82-2.63-8.93-5.43-21.94-5.24,2.75,.02-1.8-.6-2.16,11.58-7.5,.35,2.96-2.38,3.08-3.73,2.68,2.37,9.56,5.44-7.83,2.55-3.61v-.66l5.35,15.91,.76,10.57-1.45,14.74Z"/><g><g><polygon class="i" points="151.14 122.72 152.67 107.2 151.91 96.63 145.12 76.43 137.56 62.79 128.4 51.95 116.45 45.74 116.68 45.13 128.91 51.28 139.09 62.39 147.07 75.9 153.44 96.63 153.44 107.26 151.62 122.72 151.14 122.72"/><polygon class="i" points="119.91 91.82 136.2 83.25 141.64 105.19 125.68 110.95 119.91 91.82"/><polygon class="h" points="139.94 80.58 136.2 83.25 138.57 92.82 144.01 84.99 139.94 80.58"/><polygon class="h" points="142.32 77.5 146.56 81.38 144.01 84.99 139.94 80.58 142.32 77.5"/><polygon class="h" points="119.91 91.82 113.8 91.28 110.91 95.29 122 98.74 119.91 91.82"/><polygon class="h" points="115.33 88.07 110.91 95.29 116.45 97.02 118.72 87.4 115.33 88.07"/><polygon class="h" points="141.64 105.19 147.24 129.94 138.07 131.55 125.68 110.95 141.64 105.19"/><polygon class="h" points="125.68 131.55 133.51 131.87 141.64 105.19 125.68 110.95 125.68 131.55"/><polygon class="i" points="138.07 131.55 144.18 150.14 149.27 150.14 147.24 129.94 138.07 131.55"/><polygon class="i" points="133.51 131.87 128.74 147.2 124.17 147.2 125.68 131.55 133.51 131.87"/><polygon class="f" points="119.91 91.82 126.59 92.21 128.48 96.63 129.58 96.15 128.58 91.28 136.2 83.25 119.91 91.82"/><polygon class="f" points="125.68 110.95 121.66 129 132.64 129.94 133.44 114.82 136.95 129.68 148.26 127.67 141.64 105.19 125.68 110.95"/><polygon class="g" points="117.53 83.66 119.91 79.71 125.68 80.04 129.58 84.73 129.24 89.54 124.85 92.82 119.91 89.7 117.53 83.66"/><polygon class="g" points="149.27 150.14 151.14 154.16 150.2 155.53 145.71 155.49 144.18 150.14 149.27 150.14"/><polygon class="g" points="128.74 147.2 128.84 150.91 114.48 151.88 124.17 147.2 128.74 147.2"/><polygon class="f" points="117.36 46.06 121.05 88 120.42 88 117.02 45.93 117.36 46.06"/><polygon class="f" points="151.31 122.05 121.05 88 120.42 88 151.31 122.58 151.31 122.05"/><g><polygon class="h" points="150.04 68.85 147.18 69.78 146.52 70.92 146.99 71.29 148.73 70.67 150.04 68.85"/><polygon class="h" points="118.5 89.26 146.52 70.92 146.99 71.29 118.88 89.48 118.5 89.26"/></g><polygon class="f" points="118.72 87.4 120.25 85.8 123.3 89.27 122 90.43 117.95 90.65 118.72 87.4"/><polygon class="f" points="142.32 77.5 141.64 71.79 146.05 71.48 148.6 75.09 146.56 78.34 146.56 81.38 142.32 77.5"/></g><g><polygon class="i" points="87.34 86.78 104.18 84.54 107.79 105.61 91.34 107.01 87.34 86.78"/><polygon class="h" points="88.46 129.18 91.34 107.01 107.79 105.61 95.7 129.93 88.46 129.18"/><polygon class="h" points="112.06 129.93 107.79 105.61 91.34 107.01 105.3 129.31 112.06 129.93"/><polygon class="i" points="83.6 150.38 88.46 129.18 95.7 129.93 88.46 150.38 83.6 150.38"/><polygon class="i" points="105.3 129.31 109.66 152.75 114.4 152.38 112.06 129.93 105.3 129.31"/><polygon class="i" points="104.18 84.54 117.52 82.42 118.64 87.03 105.81 94.06 104.18 84.54"/><polygon class="i" points="124.88 80.55 117.52 82.42 118.64 87.03 125.77 83.79 124.88 80.55"/><polygon class="i" points="89.05 95.42 77.24 92.27 76.49 88.48 87.34 86.78 89.05 95.42"/><polygon class="f" points="104.18 84.54 97.57 88.24 98.13 94.06 96.57 94.51 95.7 88.24 87.34 86.78 104.18 84.54"/><polygon class="f" points="91.34 107.01 87.34 126.53 99.69 127.94 99.44 113.82 102.71 127.94 113.66 128.43 107.79 105.61 91.34 107.01"/><polygon class="g" points="91.62 86.21 89.05 77.51 90.96 73.56 95.07 72.44 98.57 74.17 99.44 83.16 98.57 87.03 91.62 86.21"/><polygon class="i" points="76.49 88.48 87.84 85.53 89.05 89.38 77.24 92.27 76.49 88.48"/><polygon class="f" points="126.5 77.8 124.88 80.55 125.77 83.79 131.37 80.8 130.49 77.3 129.12 76.68 126.5 77.8"/><polygon class="g" points="83.6 150.38 76.49 154.78 89.65 154.78 88.46 150.38 83.6 150.38"/><polygon class="g" points="109.66 152.75 109.85 155.35 118.77 157.12 114.4 152.38 109.66 152.75"/><polyline class="f" points="103.43 48.1 92.83 87.4 93.27 87.4 103.8 48.12 103.43 48.1"/><polygon class="f" points="121.51 118.08 93.27 87.4 92.83 87.4 121.26 118.46 121.51 118.08"/><g><polygon class="h" points="134.99 74.95 131.76 74.69 130.46 75.88 130.68 76.64 132.67 76.72 134.99 74.95"/><polygon class="h" points="93.21 85.89 130.46 75.88 130.68 76.64 93.44 86.4 93.21 85.89"/></g><polygon class="i" points="102.81 46.75 118.94 59.15 127 69.92 130.99 84.2 130.85 95.8 128.6 104.5 121.41 119.46 120.79 118.43 127.35 103.39 129.54 88.84 125.03 70.33 117.76 60.06 102.71 47.5 102.81 46.75"/><polygon class="f" points="88.96 84.41 87.84 85.53 89.09 89.4 93.83 87.4 92.95 83.91 91.58 83.29 88.96 84.41"/></g><g><polygon class="i" points="63.97 39.17 84.6 51.36 95.57 62.83 102.29 78.99 103.8 92.6 102.43 103.12 96.2 121.7 95.32 120.58 100.81 102 101.27 84.63 93.33 63.59 83.35 52.61 63.97 40.06 63.97 39.17"/><polygon class="h" points="108.79 69.32 105.55 69.2 104.3 70.44 104.55 71.19 106.55 71.19 108.79 69.32"/><polygon class="i" points="59.56 84.47 81.65 80.93 85.85 111.1 63.97 111.1 59.56 84.47"/><polygon class="h" points="95.57 82.92 83.19 91.96 81.65 80.93 91.83 77.3 95.57 82.92"/><polygon class="h" points="96.2 75.06 91.83 77.3 95.57 82.92 99.19 78.43 96.2 75.06"/><polygon class="h" points="59.56 84.47 47.06 83.79 47.06 89.44 61.26 94.71 59.56 84.47"/><polygon class="h" points="63.97 111.1 59.56 133.65 66.72 133.65 85.85 111.1 63.97 111.1"/><polygon class="h" points="91.83 134.45 84.41 134.45 63.97 111.1 85.85 111.1 91.83 134.45"/><polygon class="i" points="66.72 133.65 60.78 151.51 54.73 151.51 59.56 133.65 66.72 133.65"/><polygon class="i" points="84.41 134.45 93.7 153.75 98.64 153.75 91.83 134.45 84.41 134.45"/><polygon class="g" points="60.78 151.51 60.73 154.76 46.56 156.37 54.73 151.51 60.78 151.51"/><polygon class="g" points="93.7 153.75 93.7 156.81 91.83 160.83 96.51 160.83 100.19 158.99 98.64 153.75 93.7 153.75"/><polygon class="f" points="96.2 75.06 97.44 72.44 103.1 72.44 103.8 76.43 100.31 78.18 99.19 78.43 96.2 75.06"/><polygon class="g" points="62.57 82.92 61.67 75.06 65.94 71 71.88 73.69 73.5 80.42 73 84.63 70.01 86.09 62.57 82.92"/><polygon class="f" points="63.97 111.1 56.41 136.12 68.44 135.82 75.44 118.82 83.44 135.82 94 136.12 85.85 111.1 63.97 111.1"/><polygon class="f" points="81.65 80.93 73.5 86.09 72 93.27 70.01 93.27 67.51 86.41 59.56 84.47 81.65 80.93"/><polygon class="h" points="64.4 81.54 47.06 83.79 47.06 89.44 65.77 86.41 64.4 81.54"/><polygon class="h" points="67.51 82.04 104.3 70.44 104.55 71.19 67.76 82.54 67.51 82.04"/><polygon class="f" points="62.95 81.73 66.35 80.93 68.24 81.54 68.94 84.63 65.77 86.41 62.95 81.73"/><polygon class="f" points="63.97 39.17 63.4 39.77 67.51 81.54 68.21 81.54 63.97 39.17"/><polygon class="f" points="96.2 121.7 68.26 82.17 68.01 82.79 95.85 121.7 96.2 121.7"/></g></g></g></g><g id="d"/><g id="e"/></svg>