<?xml version="1.0" encoding="UTF-8"?><svg xmlns="http://www.w3.org/2000/svg" viewBox="0 0 200 200"><defs><style>.f{fill:#e8cd7d;}.g{fill:#8d3866;}.h{fill:#db9951;}.i{fill:#361731;}</style></defs><g id="a"><g><path class="g" d="M159.2,94.75l1.77-.04,13.09-1.11-3.75-1.23-9.35,1.23-2.48,.1-2.36-3.38,7.36-.2,10.58,3.48v-1.9l-9.98-4.67-8.26-.15v-.1h-1.03l.2-2.84-7.52,.33,.16,3.3-.62,.17,.05-.96h-5.22l-.06,1.39h-2.56l-3.9,2.67-5.66,1.5-7.66,1.7v1.1l-14.74,.58-4.51-7.54,16.45-.33v-1.13l-17,.53-2.47-4.12,13.16,.85,14.53,4.35v-2.11l-13.6-5.17-10.24-1.41-4.88,.32-.29-2.55-5.05,.82-2.39,.2-.29-3.48-5.01-3.06-2.92-1.53-1.81-3.34-.67,.45,.24-.86,3.51-.35v-1.4h-5.68l-2.44,1.75-8.78,1.77h-8.24l1.47-3.53-1.06-6.71-6-.71-2.65,2.15,.18,7.38-7.77,4.59-.87,2.93-1.81-4.94-5.46-1.06-5.34,.41-2.7,.54v3.62l-.35-.1-2.35,4.18,.47,6.16,5.87,4.08h8.6l.68,.39,1.53,7.44-.05,.04,1.87,4.21,.23-.04-2.16,12.57,1.52,.04-.11,1h0l-12.1-.56-4.06,1.74-.25,.78-1.37,.06-.66,4.31,2.35,.21,.14,.92,1.74,.87,3.58,.44v4.12l2.32,4.44,6.2,1.1,3.21-2.56,.43,5.36v5.08l3.78,1.19,1.15-1.15-1.41-5.12,2.14-14.48,1.95-.11-2.26,3.09v5.62l2.32,4.44,6.2,1.1,.92-.73,.29,2.06,9.64,1.65,.35-1.41-6-2.83-.3-1.77v-.87l.86-.69v-6.99l-.89-1.67v-1.62l10.98-.6v1.52h-1.25v7.04l15.19,.27-1.7,1.28-.47,7.61,6.52,5.74,8.07-.93,3.57-4.66v-7.61l-.61-.48,5.47,.97,1.92-1.53,33.21,.59-.17,2.78,5.85,5.15,5.69-.66-.12,1.91,5.85,5.15,7.24-.84,3.2-4.18v-6.82l-2.65-2.06,7.24,.13v-10.19l-16.66-23.88Zm-85.74,17.47v-.07l2.96-3.04,2.56,1.49v1.27l-5.52,.35Zm-17.97,.47l.11,.65-1.25,.08,1.07-.88,.07,.15Zm27.94-2.99l-.09-7.66,3.98-4.07,6.97,10.98,.03,1.97-8.31,.52-2.58-1.74Zm-4.45-3.01l-.12-.08,.12-.12v.2Zm-20.41-13.78l-1.13-3.28,2.18-.59,10.2-.2,.09,.64-6.89,6.43-4.44-3Zm11.27-4.07l.76-.02-.67,.62-.09-.61Zm24.11-4.98l.05,3.52-.14,.13-3.8,.12-1.48-.86-.91-.84,2.15-1.77,.26-.12,3.87-.18Zm-1.6,5.11l-.97-.56,1.59-.03-.62,.6Zm-1.51,5.39l3.27,1.52,.06,4.3-3.54-5.6,.21-.21Zm-17.13-4.28l1.92,1.16-4.81,3.94-.33-2.12,3.22-2.98Zm9.95,2.13l2.02,3.18-2.39,2.3-.07-5.49h.44Zm34.76,25.56l-4.05,.04v-.17l-.07-.13,8.88-6.81,2.68,1.56-7.43,5.52Zm9.83-4.13l6.79,3.95-12.38,.14,5.58-4.08Zm2.85-2.08l10.01-7.32-.53,12.85-9.49-5.53Zm-2.41-1.41l-2.73-1.59,15.47-11.87-.17,4.13-12.57,9.33Zm19.63-15.13l.77-.02-.52,.38-.26-.36Zm1.99-1l-2.62,.1-.93-1.3,.09-1.75,3.61-.6-.15,3.54Zm-8.78,.14l-.29,.22-1.7,.07,2.02-1.3-.04,1.02Zm-1.38,1.05l-16.07,12.25-2.49-1.45,16.69-10.75,1.86-.04Zm-18.86,14.37l-5.74,4.38v-4.06l2.98-1.92,2.76,1.61Zm-7.95-3.7l-.84-1.41,1.57,.91-.73,.5Zm-3.44,2.35l-2.72,1.87-6.47,.41-.71-1.13-.38-10.95,6.01,2.79,4.27,7.01Zm-10.47-15.15l-.08-2.16,2,3.28-1.93-1.12Zm-28.74-4.85l-.94,.03-.1-.66,.09,.66-8.21,.26,4.72-1.27,3.41-.59v.94l1.04,.63Zm-16.98,20.35l.19,.44-2.53,2.07,.12-.46,2.22-2.05Zm7.78-7.2l.65-.6,1.07,.62-1.33,1.09-.38-1.12Zm4.06-3.76l4.85-4.49,.29,2.14-3.89,3.19-1.25-.84Zm5.71,1.84l.3,2.22-1.64-1.11,1.34-1.11Zm.2-.16l7.52-6.2v8.73l-2.96,2.85-4.16-2.81-.4-2.58Zm1.85,7.99l-.53,.51-.14-.9,.67,.39Zm23.52,9.9l-1.19,.81h-1v-.69l2.19-.12Zm48.7,.27l.85-17.09,.91-.67,2.62,3.75-.57,13.97-3.81,.04Zm-15.6-23.59l1.25-.21-1.72,1.18-6.6,.26,7.07-1.23Zm-1.42,1.62l-11.48,7.86-8.01-4.67-1.61-2.69,21.09-.51Zm-61.45-21.83l8.83-3.72h.69l-1.64,1.11-1.5,6.88-.87-.4-2.92,3.37v2.99l-.35,.08-10.64,3.25-1.43,.38,.9-17.48h0l-.28,5.38,9.2-1.85Zm-23.32,19.83l-1.3,.91,1.34-.96,.13-3.28,.93,.54-.52,3.04-.58-.26Zm19.08,17.26l-.51-1.96,1.56-.49-.74-2.13,3.41-2.81,5.7,3.32,.2,1.45-4.62,4.45-5,.31v-2.14Zm17.53,7.34v.08l-1.95,.02,1.95-.11Zm83.07,2.68l.74-3.51-9.87,.11,.35-7.14,4.92,7.03h4.59l-9.22-12.94,.29-5.85,16.65,22.37-8.46-.08Z"/><g><g><polygon class="h" points="127.4 88.32 112.87 83.97 92.76 82.68 66.23 87.26 49.46 91.77 49.46 89.68 58.65 87.22 69.29 83.97 82.12 81.03 103.55 79.62 113.8 81.03 127.4 86.2 127.4 88.32"/><polygon class="h" points="97 113.22 78.06 83.38 83.1 82.68 102.41 113.22 97 113.22"/><polygon class="i" points="96.39 88.67 71.54 114.09 66.23 114.09 95.21 86.2 96.39 88.67"/><polygon class="i" points="99.09 83.62 98.38 77.39 93.33 78.21 76.18 79.66 76.18 84.67 99.09 83.62"/><polygon class="f" points="100.09 112.29 99.09 83.62 93.91 81.03 94.32 111.69 100.09 112.29"/><polygon class="i" points="83.1 82.68 83.47 113.22 78.97 113.22 78.97 80.6 83.1 82.68"/><polygon class="g" points="38.94 83.97 42.57 75.57 40.35 69.52 34.89 68.46 29.55 68.87 26.84 69.4 26.84 77.5 38.94 83.97"/><polygon class="h" points="83.47 113.22 39.09 87.35 30.49 87.35 24.61 83.27 24.14 77.1 26.49 72.93 35.83 75.48 44.11 83.15 87.49 112.44 83.47 113.22"/><polygon class="i" points="54.1 116.39 49.46 122.74 49.46 128.35 51.78 132.79 57.97 133.9 63.73 129.31 63.73 122.33 60.56 116.39 54.1 116.39"/><polygon class="i" points="104.73 111.69 100.09 118.04 100.09 123.65 102.41 128.1 108.6 129.2 114.36 124.62 114.36 117.63 111.19 111.69 104.73 111.69"/><polygon class="i" points="85.11 113.81 80.35 115.22 80.35 120.83 82.67 125.28 88.87 126.38 94.63 121.8 94.63 114.81 91.57 113.81 85.11 113.81"/><polygon class="i" points="36.59 113.93 31.95 120.27 31.95 125.89 34.27 130.33 40.47 131.43 46.23 126.85 46.23 119.86 43.05 113.93 36.59 113.93"/><polygon class="f" points="45.17 115.92 42.59 112.99 30.49 112.44 26.43 114.18 25.9 115.8 26.63 120.45 28.37 121.33 39.77 122.74 42.82 122.27 45.76 118.86 45.17 115.92"/><polygon class="h" points="115.54 109.58 36.83 114.51 36.83 120.45 115.54 116.17 115.54 109.58"/><polygon class="h" points="24.14 119.33 36.83 120.45 36.83 114.51 24.8 115.02 24.14 119.33"/><polygon class="h" points="115.54 109.58 99.44 82.68 94.32 82.68 110.88 109.87 115.54 109.58"/><polygon class="h" points="91.61 82.68 89.22 80.09 48.06 113.81 54.35 113.41 91.61 82.68"/><polygon class="f" points="80.29 83.97 78.18 81.74 43.51 114.09 48.06 113.81 80.29 83.97"/><polyline class="f" points="42.57 89.38 119.18 87.85 119.18 86.72 42.15 89.13 42.57 89.38"/></g><g><polygon class="i" points="58.22 68.36 50.8 66.94 43.03 71.54 45.15 88.84 57.16 88.84 58.22 68.36"/><polygon class="h" points="58.22 68.36 67.1 68.36 67.05 73.66 57.85 75.5 58.22 68.36"/><polygon class="h" points="75.88 66.59 75.88 69.93 67.05 73.66 67.1 68.36 75.88 66.59"/><polygon class="f" points="75.88 69.93 79.55 69.93 80.49 66.59 84.01 66.24 84.01 64.84 78.33 64.84 75.88 66.59 75.88 69.93"/><polyline class="f" points="43.03 71.54 54.22 71.54 54.22 78.19 55.17 77.57 55.91 71.11 58.22 68.36 50.8 66.94 43.03 71.54"/><polygon class="h" points="50.63 113.96 42.49 113.96 45.15 88.84 57.16 88.84 50.63 113.96"/><polygon class="h" points="57.16 88.84 62.81 110.74 55.48 112.69 45.15 88.84 57.16 88.84"/><polygon class="f" points="57.16 88.84 63.87 108.3 55.54 110.89 52.47 99.95 49.83 112.18 41.18 111.96 45.15 88.84 57.16 88.84"/><polygon class="h" points="43.03 71.54 39.13 84.65 44.09 85.31 49.09 71.93 43.03 71.54"/><polygon class="h" points="43.77 93.44 41.3 95.2 39.13 84.65 44.09 85.31 43.77 93.44"/><polygon class="i" points="44.11 134.23 47.62 134.23 50.63 113.96 42.49 113.96 44.11 134.23"/><polygon class="i" points="55.48 112.69 58.57 130.88 62.87 130.88 62.81 110.74 55.48 112.69"/><polygon class="g" points="44.11 134.23 44.11 139.31 47.89 140.51 49.04 139.35 47.62 134.23 44.11 134.23"/><polygon class="g" points="58.57 130.88 59.18 135.23 68.82 136.88 69.17 135.47 63.17 132.64 62.87 130.88 58.57 130.88"/><polygon class="g" points="53.28 57.41 59.28 58.11 60.34 64.82 58.13 70.12 52.77 70.12 50.8 66.94 50.63 59.56 53.28 57.41"/><polygon class="f" points="45.23 94.14 43.73 93.48 41.24 95.22 43.11 99.44 46.46 98.81 46.46 96 45.23 94.14"/></g><g><polygon class="i" points="94.28 118.93 139.2 88.16 146.9 89.69 102.57 118.24 94.28 118.93"/><polygon class="i" points="109.91 118.24 143.78 92.43 142.17 96.1 112.42 118.93 109.91 118.24"/><polygon class="i" points="117.76 118.24 153.03 92.06 151.08 96.93 121.57 118.51 117.76 118.24"/><polygon class="i" points="149.41 136.19 143.56 131.04 143.98 124.22 148.99 120.46 154.85 120.46 159.85 124.36 159.85 131.18 156.65 135.35 149.41 136.19"/><polygon class="h" points="164.16 117.26 143.42 88.16 139.2 88.16 159.57 117.26 164.16 117.26"/><polygon class="h" points="174.05 93.59 174.05 91.69 164.07 87.02 150.59 86.77 129.64 92.34 121.98 94.04 121.98 95.25 129.92 93.87 150.44 90.47 163.47 90.11 174.05 93.59"/><polygon class="f" points="73.82 121.99 73.82 118.24 164.16 117.26 163.03 122.6 73.82 121.99"/><polygon class="f" points="154.25 118.24 155.81 86.77 150.59 86.77 149.3 118.24 154.25 118.24"/><polygon class="f" points="145.48 118.24 147.04 86.77 141.82 86.77 140.53 118.24 145.48 118.24"/><polygon class="f" points="174.05 93.59 170.3 92.36 160.94 93.59 160.96 94.7 174.05 93.59"/><polyline class="f" points="104.53 96.07 160.96 94.7 160.94 93.59 104.14 95.84 104.53 96.07"/><polyline class="f" points="69.64 87.61 74.39 118.24 73.82 118.24 69.64 87.61"/><polyline class="g" points="175.86 120.88 175.86 118.63 154.98 88.7 151.08 92.89 171.91 120.88 175.86 120.88"/><polygon class="h" points="149.83 126.17 111.96 104.17 90.38 94.15 84.81 92.2 77.21 92.2 69.64 87.61 69.64 80.9 72.56 77.52 84.54 83.01 88.57 86.77 151.64 123.52 149.83 126.17"/><polygon class="i" points="86.35 85.93 82.87 85.52 76.74 82.45 72.98 78.97 74.44 78.97 79.66 81.2 85.23 84.12 86.35 85.93"/><polyline class="g" points="86.62 85.66 91.36 83.43 90.66 74.94 85.65 71.87 82.73 70.34 80.92 67 74.93 71.04 73.26 78.7 77.02 82.18 83.14 85.24 86.62 85.66"/><polygon class="h" points="175.86 120.88 175.86 128.82 72.56 127 72.56 119.95 175.86 120.88"/><polygon class="i" points="160.82 142.59 154.98 137.44 155.39 130.62 160.41 126.86 166.26 126.86 171.26 130.76 171.26 137.58 168.06 141.76 160.82 142.59"/><polygon class="i" points="92.11 141.9 85.59 136.15 86.05 128.55 91.64 124.36 98.17 124.36 103.75 128.7 103.75 136.31 100.18 140.97 92.11 141.9"/><polygon class="g" points="154.98 83.93 147.46 84.26 147.74 90.11 154.55 90.11 154.98 83.93"/></g></g></g></g><g id="b"/><g id="c"/><g id="d"/><g id="e"/></svg>