<?xml version="1.0" encoding="UTF-8"?><svg xmlns="http://www.w3.org/2000/svg" viewBox="0 0 200 200"><defs><style>.f{fill:#e8cd7d;}.g{fill:#8d3866;}.h{fill:#db9951;}.i{fill:#361731;}</style></defs><g id="a"/><g id="b"/><g id="c"/><g id="d"/><g id="e"><g><g><polygon class="g" points="191.67 50.26 180.36 50.44 179.13 51.59 180.19 52.49 191.67 50.26"/><path class="g" d="M183.74,94.88l-1.24-1.88-4.65-5.19-2.78-3.34h-.04l-2.09-3.83-1.28,3.36-2.26-3.8-.07,1.35-14.67,5.36-7.18,8.59,.47,1.78-1.58,1.6,.66,.59-6.9,6.43v-3.43l-1.84-1.08-.57,.3,.27-9.75,12.27-2.77-.59-2.21-3.54-9.67,.19-.34,1.77,.48,1.37,1.37,2.07-1.07-1.07-2.03-1.79,.69-1.75-.5,.24-.43-3.6-1.56-.58,.88-.36-.1-.58-3.17,.79-2.69-1.47-.38-1.81,6.49,.46-1.64-4.1-.97v-.98l-1.62-2.21-1.5-2.43-2.98-4.52-2.39-3.39,.11-.53,49.69-6.02,.03,.02,1.17,.83,.71-1.53-.69-1.46-1.17,1.27-49.49,5.66,.45-2.19-1.76,2.34-1.86,.21-.29-3.35-3.77,1.94-1.32-1.14,.74,3.08h0l-.32-1.33-1.83,1.58-.85,.1-1.6-.88-.45,.58-2.28-.81,.05-.02-3.58-11.51-1.03-.84,2.33-2.23,.53-6.68-3.73-4.13-1.96,.11-3.6,4.66,.51,5.49-9.92,1.5-3.25,23.96-8.35-2.09-2.55,2.96-2.54-4.75-9.06,1.79-1.16,3.03,2.23-1.48,4.62,4.41h3.33l-1.55,1.8,.84,11.52-5.22,10.2-.66,4.1-.54,.03-1.03-4.66-3.83-1.47-4.32,.31,.2-.9-1.18-3.09-.69-.19,1.4-.84,1.94-6.18-2.65-3.83-4.56-1.03-1.62,3.97-.65,6.23-1.26-.34-6.62,13.1h3.86l-.05,.25-25.98,1.64,.06,1.54,25.62-1.79-1.45,6.89,.02,.04h0l-.02-.04v.04l-.44,.1-1.6,10.64-13.55,3.49-3.34,4.34H12.92l-4.59,4.34,1.18,13.98,5.15,2.35,1.18,8.39,3.24-10.15-1.6-8.42,5.57-5.86,4.71,12.51,5.15,7.95,6.28,6.12,1.1,2.86-.61,1.91,3.83,2.21-.46-3.22,1.49,1.45,.73,4.56h4.57l-1.91-5.89-5.61-5.78-.54-4.22,2.33-11.18,12.95-1.25v2.48l10.45,1.12-4.2-4.2,7.35-.71-.91,.72,13.98-2.55-.93,7.75-4.16,1.31-.77,4.89,7.29-4.28,2.36-10.93-2.01-2.47h2.64l2.64,7.94-1.84,1.04-2.27-.2-.8,5.04,4.27-2.9,3.28-2.98-2.88-10.84-3.02-1.99-.78-.03-2.43-9.33,.44-2.35-1.9,.56-.17-1.02h3.55l-1.91-3.4v-3.83l5.83,4.2,3.28,2.54,2.65-3.76-.53-2.06h.38l-1.23-3.28-1.27-4.94-.73-1.34-.42-1.51,13.22-.92,3.31,2.21-2.26,6.6-.53,3.42-1.97,8.43-1.5,3.56-5.85,4.36-4.6-2.64,3.45,7.51,14.88-5.45,2.35-1.11-4.39-2.53h.4l-1.71-2.92,1.71-7.64,3.82-4.61,.65-4.04,1.22,.81,.89,6.25-3.29-.66-1.58,4.21,3.82,2.24,4.21-3.03-.53-12.11,.41-3.56,4.15-.59,2.14,8.37,.35,.04,1.27,4.52-.71,9.2-9.96,4.68-.37-.05-.86,.62-4,1.88-.78,2.38-1.28,3.8v.11l-.29,.92,1.7,11.77-4.79,3.53-2.8,10.15-.59,4.56h4.57l-1.91-3.97,3.24-6.03,13.1-8.24,4.12-6.77,3.68-.24v.24l2.35,7.36,3.38,.59-.29-7.95h-.05l.08-.59,9.24-.59,9.01-6.4,15.42-2.72-1.03,8.26-4.59,1.39-.85,5.21,8.04-4.56,2.6-11.64-4.83-5.73h0l2.61,3.1h2.91l2.91,8.46-2.03,1.11-2.5-.22-.88,5.37,4.71-3.09,3.62-3.17-3.18-11.55-3.34-2.12-4.12,1.33-2.4-9.22,.44-2.35-1.17,.35-.3-1.67,2.35-5.44,3.97-1.92,10.86,7.36,4-2.21,1.77-4.71-.68-1.03h.68l-3.32-4Zm-44.18,11.55l-2.09,1.95,.08-1.44,.75,.33,1.27-.84Zm-33.79-38.59l-2.76-.27,.31-1.1,5.08,1.38,.34,1.4-2.19,2.1-1.03-.17,1.09-1.63-.83-1.72Zm15.79,10.92l.81,1.51-1.43,1.1,.12-.7,.5-1.9Zm.39-1.48l1.08-4.12,5.54,2.64-2.59,3.95,1.08,6.27-2.74,2.27v-8.55l-2.38-2.46Zm-7.05-16.57l-6.08,5.24-5.03-1.18,1.04-3.75,8.5-1.03,1.56,.72Zm-13.57,9.42l.21,.02,.28,.45-.61-.1,.12-.37Zm17.29,24.76l.04-.25h3.41l.31,1.23-3.86-.13,.1-.85h0Zm20.58-18.65l-1.17,4.19,1.24,.55,1.22-4.14-.46,1.58,2.2-2.58,.06,.02-.26,.39,.89,1.02,.27,.16,1.79,8.51-6.78-1.48-3.29-.23v-5.81l-1.08-1.02,2.08-.68v-1.37l3.29,.89Zm-29.39-17.85l1.26,.58-5.86,.67,1.6-5.74,3,4.5Zm-30.95,30.97l5.27-2.5,2.34,1.4-1.9,3-3.99-.14-8.05,5.18,6.32-6.94Zm-10.15,10.87l-.03,.19-.04-.19h.07Zm-11.32,1.01l2,4.88,4.43,4.91-1.34,2.59-2.29,.71-3.9-8.21,1.09-4.88Zm-8.06,16.47l-2.16,.67,2.14-.72,.02,.05Zm42.6-20.18l-.02-.09-.42,.11h-.21l-.4-.71,4.57-3.21,2.08,1.25h3.74l2.82,1.88-12.16,.77Z"/></g><g><g><g><polygon class="i" points="98.98 61.74 98.85 60.36 177.27 51.39 177.22 52.27 98.98 61.74"/><polygon class="i" points="191.67 50.26 180.19 52.49 179.13 51.59 191.67 50.26"/><polygon class="i" points="177.22 52.27 177.25 52.29 178.42 53.12 179.13 51.59 177.27 51.39 177.22 52.27"/><polygon class="i" points="191.67 50.26 180.36 50.44 179.13 51.59 191.67 50.26"/><polygon class="i" points="177.27 51.39 178.44 50.13 179.13 51.59 177.27 51.39"/></g><polygon class="g" points="123.03 73.17 121.06 80.67 118.62 94.89 97.54 94.89 84.13 86.86 78.86 89.36 74.79 84.69 73.95 73.17 80.64 65.4 100.58 70.4 106.54 71.36 120.63 57.83 126 57.83 135.91 71.36 135.91 76.72 132.71 77.77 123.03 73.17"/><polygon class="g" points="110.46 113.45 114.28 115.69 118.49 112.66 115.33 109.9 112.04 109.24 110.46 113.45"/><polygon class="h" points="118.62 94.89 101.28 94.89 108.77 99.87 106.51 106.48 105.98 109.9 104.01 118.33 102.45 122.04 108.75 122.04 107.04 119.12 108.75 111.48 112.57 106.87 113.22 102.83 114.44 103.65 115.33 109.9 118.49 112.66 117.96 100.55 118.62 94.89"/><polygon class="h" points="74.79 84.69 69.57 94.89 68.07 104.27 70.7 104.9 72.18 96.7 78.86 89.36 74.79 84.69"/><polygon class="i" points="64.9 100.55 68.66 100.55 68.07 104.27 70.7 104.9 66.8 105.69 64.25 102.53 64.9 100.55"/><polygon class="h" points="95.45 93.64 87.44 99.27 83.25 94.89 87.94 89.1 95.45 93.64"/><polygon class="h" points="84.28 108.45 87.44 99.27 83.25 94.89 81.12 108.45 84.28 108.45"/><polygon class="i" points="86.19 115.97 84.28 112.57 81.12 112.57 79.91 115.97 86.19 115.97"/><rect class="h" x="81.12" y="108.45" width="3.16" height="4.12"/><polygon class="g" points="127.27 59.55 128.23 54.86 126 57.83 127.27 59.55"/><polygon class="g" points="122.66 57.83 119.23 54.86 120.07 58.36 120.63 57.83 122.66 57.83"/><polygon class="i" points="108.75 122.04 107.04 119.12 104.01 118.33 102.45 122.04 108.75 122.04"/><polygon class="i" points="110.46 113.45 114.28 115.69 118.49 112.66 115.33 109.9 112.04 109.24 110.46 113.45"/><polygon class="i" points="124.68 58.16 124.32 54.07 120.55 56 122.66 57.83 124.68 58.16"/><polygon class="i" points="119.65 56.61 108.09 66.58 108.88 69.87 120.07 58.36 119.65 56.61"/><polygon class="i" points="78.09 68.36 75.55 63.61 66.48 65.4 65.33 68.43 67.56 66.95 72.18 71.36 75.5 71.36 78.09 68.36"/><polygon class="f" points="103.88 73.69 111.31 79.75 120.21 81.94 122.37 80.27 121.52 78.7 121.78 77.12 124.32 79.75 124.32 94.64 114.1 94.64 104.53 85.54 99.38 77.49 103.88 73.69"/><polygon class="f" points="85.77 71.85 78.73 70.14 74.76 75.4 74.76 83.26 79.39 86.99 85.77 81.4 85.77 71.85"/><polygon class="f" points="119.68 59.34 114.28 63.69 110.85 67.64 110.85 70.81 115.86 65.92 119.68 60.85 119.68 59.34"/><polygon class="f" points="135.87 71.72 132.32 71.72 130.88 66.71 127.71 62.24 123.76 58.68 127.33 58.68 129.81 62.2 132.8 66.71 135.87 71.72"/><polygon class="i" points="109.1 45.65 104.26 41.71 92.23 43.53 88.76 69.14 102.28 70.21 109.1 45.65"/><polygon class="h" points="88.76 69.14 88.87 84.47 94.97 84.95 100.72 69.82 88.76 69.14"/><polygon class="i" points="82.98 93.78 88.87 84.47 94.97 84.95 87.79 94.16 82.98 93.78"/><polygon class="g" points="87.58 100.75 87.79 94.16 82.98 93.78 84.6 99.98 87.58 100.75"/><polygon class="f" points="109.1 45.65 105.13 45.74 104.07 50.13 103.05 50.33 103.69 45.62 92.23 43.53 104.26 41.71 109.1 45.65"/><polygon class="f" points="88.76 69.14 86.66 83.17 97.02 83.27 101.37 70.01 88.76 69.14"/><g><polygon class="h" points="112.64 57.18 112.68 57.16 109.1 45.65 106.74 53.79 109.81 58.39 115.04 60.78 116.02 58.38 112.64 57.18"/><polygon class="h" points="96.24 44.64 92.23 43.53 92.66 58.22 101.37 70.01 103.01 67.63 95.33 54.47 96.24 44.64"/></g><polygon class="f" points="105.76 67.84 103 67.58 101.41 69.95 102.84 72.22 104.82 72.23 106.6 69.56 105.76 67.84"/><polygon class="f" points="115.07 60.79 117.44 58.55 115.37 57.41 113.83 59.39 114.55 60.37 115.07 60.79"/><polygon class="g" points="101.64 36.54 105.25 31.88 107.2 31.77 110.93 35.9 110.4 42.58 107.33 45.51 102.34 44.05 101.64 36.54"/></g><g><polygon class="g" points="166.45 120.08 164.1 106.83 149.24 97.41 127.6 117.58 124.66 137.88 143.06 136.71 166.45 120.08"/><polygon class="g" points="110.39 125.67 127.6 117.58 124.66 137.88 120.54 144.65 109.73 144.65 108.03 132.88 110.39 125.67"/><polygon class="i" points="161.01 142.45 161.86 137.23 166.45 135.84 169.05 137.88 161.01 142.45"/><g><polygon class="h" points="104.94 148.18 102.14 158.34 101.55 162.9 106.12 162.9 104.2 158.93 107.44 152.89 120.54 144.65 109.73 144.65 104.94 148.18"/><polygon class="h" points="174.99 120.52 171.65 118.4 166.45 120.08 152.06 130.3 167.48 127.58 166.45 135.84 169.05 137.88 171.65 126.24 169.69 123.92 172.34 123.61 175.25 132.06 173.22 133.17 174.55 135.23 178.17 132.06 174.99 120.52"/></g><polygon class="i" points="169.84 138.32 174.55 135.23 173.22 133.17 170.72 132.96 169.84 138.32"/><polygon class="g" points="149.24 97.41 161.16 87.85 169.05 86.91 170.43 99.47 166.45 101.39 164.1 106.83 149.24 97.41"/><polygon class="g" points="181.29 106.83 170.43 99.47 169.05 86.91 169.4 80.2 171.65 83.99 172.93 80.64 175.25 84.91 182.49 93 187.06 99.92 185.29 104.62 181.29 106.83"/><polygon class="i" points="112.74 124.56 104.94 120.08 96.66 126.24 92.06 123.61 95.51 131.11 110.39 125.67 112.74 124.56"/><polygon class="i" points="106.12 162.9 104.2 158.93 102.14 158.34 101.55 162.9 106.12 162.9"/><polyline class="i" points="169.05 86.91 169.4 81.52 154.65 86.91 147.47 95.5 148.37 98.89 169.05 86.91"/><polygon class="i" points="138.2 84.46 129.66 83.87 121.13 90.94 126.28 109.33 137.61 105.65 138.2 84.46"/><polygon class="h" points="126.28 109.33 128.34 126.99 135.18 126.99 137.61 105.65 126.28 109.33"/><polygon class="i" points="128.34 137.88 128.34 126.99 135.18 126.99 133.73 137.88 128.34 137.88"/><polygon class="g" points="134.08 145.83 133.78 137.88 128.34 137.88 130.69 145.24 134.08 145.83"/><g><polygon class="i" points="138.03 80.44 141.37 68.46 142.84 68.83 139.27 80.98 138.03 80.44"/><polygon class="i" points="148.68 76.4 142.63 74.68 142.05 71.52 140.02 78.43 142.22 75.84 148.1 77.43 148.68 76.4"/><polygon class="i" points="140.02 73.31 99.5 63.77 97.65 64.05 98.78 65.24 139.2 76.24 140.02 73.31"/><polygon class="i" points="150.47 75.7 148.68 76.4 148.1 77.43 149.47 78.8 151.53 77.73 150.47 75.7"/></g><polygon class="f" points="138.2 84.46 133.57 88.2 133.57 94.31 132.46 94.62 131.28 89.03 121.13 90.94 129.66 83.87 138.2 84.46"/><polygon class="f" points="168.96 86.52 160.42 88.44 150.27 94.92 146.37 98.88 148.35 100.65 157.66 94.01 165.28 89.91 168.51 88.88 168.96 86.52"/><polygon class="f" points="187.06 98.89 183.77 98.89 181.17 93.15 177.05 88.88 172.19 85.05 175.06 84.46 182.05 92.85 187.06 98.89"/><polygon class="f" points="149.09 102.86 144.53 106.98 149.97 113.16 161.3 119.64 167.78 120.67 165.13 110.51 165.57 108.16 163.07 108.89 149.09 102.86"/><polygon class="f" points="123.63 124.2 115.24 123.17 109.96 126.99 108.32 131.85 108.76 137.88 112.3 141.27 117.45 142.3 125.47 131.97 123.63 124.2"/><polygon class="f" points="126.28 109.33 125.03 125.6 136.58 124.79 137.61 105.65 126.28 109.33"/><g><polygon class="h" points="149.68 86.97 145.85 76.52 143.06 76.81 144.98 85.94 138.2 84.46 137.99 91.94 150.27 89.17 149.68 86.97"/><polygon class="h" points="126.57 91.23 121.13 90.94 124.66 104.77 135.55 106.05 135.55 102.86 128.93 101.39 126.57 91.23"/></g><polygon class="f" points="138.29 101.39 135.55 102.86 135.55 106.05 138.29 107.28 140.13 106.05 140.13 102.47 138.29 101.39"/><polygon class="f" points="145.34 78.69 147.17 75.47 143.57 73.91 142.03 76.25 142.92 77.27 145.34 78.69"/><polygon class="g" points="125.98 79.75 129.11 74.97 130.99 74.72 134.91 78.43 134.91 84.93 132.17 88 127.23 86.97 125.98 79.75"/></g><g><g><polygon class="i" points="21.4 103.53 21.33 101.99 109.38 96.43 109.27 97.4 21.4 103.53"/><polygon class="i" points="125.52 95.98 112.57 97.82 111.45 96.75 125.52 95.98"/><polygon class="i" points="109.27 97.4 109.31 97.43 110.57 98.42 111.45 96.75 109.38 96.43 109.27 97.4"/><polygon class="i" points="125.52 95.98 112.88 95.54 111.45 96.75 125.52 95.98"/><polygon class="i" points="109.38 96.43 110.76 95.08 111.45 96.75 109.38 96.43"/></g><g><polygon class="g" points="83.38 120.4 62.49 113.63 45.42 118.93 29.96 122.91 23.05 131.88 27.76 144.39 44.09 141.15 71.61 138.5 85.15 131.59 83.38 120.4"/><polygon class="g" points="83.38 120.4 81.48 109.06 77.06 95.09 68.81 101.42 62.49 113.63 83.38 120.4"/><polygon class="g" points="93.39 115.49 96.04 111.72 93.39 101.45 90.75 96.59 92.07 91.71 88.91 94.5 82.35 93.33 77.06 95.09 81.48 109.06 84.12 108.63 90.11 112.95 93.39 115.49"/><polygon class="i" points="40.28 161.31 39.68 163.23 43.5 165.44 42.91 161.31 40.28 161.31"/><polygon class="i" points="77.84 150.72 78.61 145.83 82.77 144.52 85.13 146.44 77.84 150.72"/><polygon class="h" points="90.51 130.13 87.48 128.15 84 128 69.73 139.32 83.71 136.77 82.77 144.52 85.13 146.44 87.48 135.51 85.47 133.04 88.11 133.04 90.75 140.97 88.91 142.02 90.11 143.95 93.39 140.97 90.51 130.13"/><polygon class="i" points="85.84 146.85 90.11 143.95 88.91 142.02 86.64 141.81 85.84 146.85"/><polygon class="h" points="47.92 162.35 42.3 156.56 41.76 152.34 44.09 141.15 38.79 142.19 38.79 142.18 27.76 144.39 32.91 152.34 39.18 158.46 40.28 161.31 42.12 161.31 44.53 163.67 47.92 162.35"/><polygon class="i" points="49.83 168.23 47.92 162.35 44.53 163.67 45.26 168.23 49.83 168.23"/><polygon class="f" points="95.89 109.66 94.71 109.66 93.24 103.92 91.33 99.07 90.3 97.89 91.92 97.45 93.68 103.77 95.89 109.66"/><polygon class="f" points="68.23 111.13 63.66 115.25 69.11 121.43 80.44 127.91 86.91 128.94 84.27 118.78 84.71 116.43 82.21 117.17 68.23 111.13"/><polygon class="f" points="42.77 123.05 34.38 122.02 29.1 125.85 25.84 130.12 26.28 136.15 29.96 142.18 36.59 141.15 44.61 130.82 42.77 123.05"/><polygon class="i" points="88.18 95.09 88.83 91.41 80.59 91.12 71.9 96.71 69.26 99.65 69.7 101.13 77.06 96.82 81.37 95.09 88.18 95.09"/><polygon class="i" points="26.62 127.24 12.92 127.24 8.33 131.59 9.51 145.57 14.66 147.92 15.84 156.31 19.07 146.16 17.48 137.74 23.05 131.88 26.62 127.24"/><polygon class="f" points="88.68 94.5 81.18 94.21 70.43 99.95 67.2 102.16 68.81 103.33 76.91 98.33 82.06 96.56 86.91 95.97 88.68 94.5"/></g><polygon class="i" points="59.4 92.3 58.22 89.21 50.12 87 45.56 108.63 56.31 106.13 59.4 92.3"/><polygon class="h" points="43.5 100.1 50.12 87 47.36 100.1 43.5 100.1"/><polygon class="h" points="45.56 108.63 54.24 124.08 61.46 123.35 56.31 106.13 45.56 108.63"/><polygon class="i" points="57.04 136.85 54.24 124.22 61.46 123.35 61.46 137.47 57.04 136.85"/><polygon class="h" points="45.56 108.63 45.71 118.88 50.27 117.34 45.56 108.63"/><polygon class="f" points="50.12 87 54.83 91.56 59.4 92.3 58.22 89.21 50.12 87"/><polygon class="g" points="51.3 88.18 52.04 81.11 53.66 77.14 58.22 78.17 60.87 81.99 58.93 88.18 56.08 89.88 51.3 88.18"/><polygon class="f" points="56.31 106.13 63.07 120.4 51.01 121.73 45.56 108.63 46.89 118.49 43.5 119.52 45.12 108.78 56.31 106.13"/><polygon class="h" points="58.51 92.15 53.51 92.15 59.4 103.88 60.87 101.26 58.51 92.15"/><polygon class="i" points="67.34 94.36 63.52 92.88 54.24 93.55 59.4 106.13 68.96 116.72 70.14 107.01 67.34 94.36"/><polygon class="g" points="57.04 136.85 57.04 142.39 67.49 143.51 61.46 137.47 57.04 136.85"/></g></g></g></g></svg>