<?xml version="1.0" encoding="UTF-8"?><svg id="a" xmlns="http://www.w3.org/2000/svg" viewBox="0 0 200 200"><defs><style>.b{fill:#e8cd7d;}.c{fill:#8d3866;}.d{fill:#db9951;}.e{fill:#361731;}</style></defs><path class="c" d="M160.12,70.82l1.51-2.41-2.97-4.22,.94-.61,2.2-.78,1.66-2.31-3.63,1.17-.83,1.44-1.16,.76-1.37,.1-6.89-11.67-12.92-14.08-15.5-7.8-.29,.78,.73,.38,1.27,15.74-19.31-14.84-.12,.95,.91,.76-6.98,25.87-2.99-7.19-13.92-14.54-26.17-15.47-.72,.76,3.93,39.94-.7-.32-5.42,5.15,.98,8.55-19.51,2.53v7.17l18.01,6.69-1.55-9.36h0l4.98,30.14-9.58,31.73,3.17-.08-5.3,19.6-10.36,6.17,17.97-2.04,.06-4.13,6.6-19.82,3.11-.08,4.25-10.32,4.17-4.92,7.41,8.47,3.19,6.77,2.09,.06,1.59,3.29-3.47,15.13-9.02,5.57h16.69l-1.5-5.57,1.94-5.49,4.7,9.76v3.88l-2.37,5.1h5.93l4.67-2.34-1.97-6.64-7.19-20.4,.7-1.98,.62,.02-.3-.92,2.45-6.92,1.46-2.94,3.6,.41-.13-7.38,.68-1.37,2,3.19,1.29,5.56,2.26,.1,1.03,1.64,5.54,29.74,.24,3.29,11.31,2.24-5.54-6.01-2.98-28.47-.35-2.01,2.38,.11-7.43-28.95-.5-2.91,17.17,18.75-.18,.42,.79,1.31,5.32-11.09,.09,.29-5.1,22.9,5.1,.44v2.79l-1.92,19.85-12.29,5.94,18.21-1.23-.13-4.71,6.05-19.44,2.03-6.66,2.34,3.88h0l1.42,2.36,7.75,23.58,1.94,6.79,5.7,.04,1.19-1.74-2.38-5.09-2.57-25.62-.58-2.55,1.87-.33-4.74-16.09,8.44,9.45-.04,.37h.61l2.3-19.61v-13.47l-7.65-24.91ZM122.04,31.79l13.98,7.27,11.63,13.74,6.28,11.34-1.11,.08,.32,2.73-14.77,9.67-.05-.19,1.47-.79-1.11-4.43-1.09-.5,1.33-.35,2.53,.11,2.95-2.25-4.1-.33-1.65,1.51-2.12,.57-2.27-8.13-10.23-13.67-.58-.44-1.4-15.95Zm.21,52.53l1.4-.76,.23-.1,.12,.31-.25,.27-1.49,.29Zm-35.03-15.13l-1.11,2.29,.26,.9-9.65,3.44,1.06,7.6h0l-1.06-7.6-10.62,1.7,.22-1.89,20.88-6.44Zm14.39,11.32v.37l-2.92,.39,.09-.38,2.71-.71,.12,.33Zm-2.64-.44l.32-1.42-.55-5.71v-.02l2.48,6.55-2.25,.61Zm-19.95,12.23l7.09,1.89,2.9,14.7-1.57,7.68-6.28-8.89-2.14-15.38Zm24.69-11.7l-.11-.97,21.43-5.62,.04,.55-1.72,2.85-1.13,.29-16.92,2.69-1.59,.21Zm30.3-8.95v.02l-.4,.17-1.65,2.8-6.18-.35-.04-.47,8.27-2.17Zm-8.36,1.24l-1.92-21.83,8.01,11.3,2.03,8.35-8.13,2.18Zm9.69,5.12l.19-.1,.11,.46-.3-.36Zm-30.6-43.52l17.78,14.85,.58,.82,1.85,22.91-21.44,5.76-.61-5.5-.78-1.89,2.71-1.35-.89-5.06h-3.28l5.13-1.58h2.53l2.85-2.37-4.11-.16-1.58,1.58-6.24,1.97-1.53-3.68,7.05-26.3Zm-50.32-10.44l24.46,15.84,12.65,13.92,4.38,11.61-.03,.1-.71,.22-1.43-.71-5.22,1.42-.79,1.63-21.43,6.76-1.98-8.23-5.92-2.68-3.99-39.89Zm26.89,84.69l6.01,8.4-1.65,8.04-3.63-11.12-.74-5.33Zm45.49,13.66l-17.56-19.08-1.86-10.87,11.16-6.11-4.69,7.68,14.06,4.37-2.65-8.78-2.77-.24,.29-1.23,4.03-.23,.77,.48-2.32,1.22,6.48,21.47-4.93,11.32Zm38.16,5.43l-8.82-9.92-3.34-11.32-6.89-27.83-6.65,3.49,.03-2.29-.77-2.74,14.69-9.51,.45,3.75-3.01,3.9-4.74,3.39,3,12.13,6.9-9.92,3.23-4.58v-.83l6.78,20.18,.97,13.4-1.84,18.7Z"/><g><g><polygon class="e" points="164.86 128.81 166.8 109.13 165.83 95.73 157.22 70.11 147.64 52.8 136.02 39.06 120.87 31.18 121.16 30.4 136.66 38.21 149.58 52.29 159.7 69.43 167.78 95.73 167.78 109.2 165.48 128.81 164.86 128.81"/><polygon class="e" points="125.25 89.62 145.92 78.76 152.81 106.59 132.57 113.88 125.25 89.62"/><polygon class="d" points="150.66 75.37 145.92 78.76 148.92 90.89 155.82 80.97 150.66 75.37"/><polygon class="d" points="153.67 71.47 159.05 76.39 155.82 80.97 150.66 75.37 153.67 71.47"/><polygon class="d" points="125.25 89.62 117.5 88.94 113.84 94.03 127.9 98.4 125.25 89.62"/><polygon class="d" points="119.44 84.87 113.84 94.03 120.87 96.21 123.74 84.02 119.44 84.87"/><polygon class="d" points="152.81 106.59 159.91 137.98 148.29 140.01 132.57 113.88 152.81 106.59"/><polygon class="d" points="132.57 140.01 142.5 140.42 152.81 106.59 132.57 113.88 132.57 140.01"/><polygon class="e" points="148.29 140.01 156.04 163.6 162.48 163.6 159.91 137.98 148.29 140.01"/><polygon class="e" points="142.5 140.42 136.45 159.86 130.65 159.86 132.57 140.01 142.5 140.42"/><polygon class="b" points="125.25 89.62 133.72 90.12 136.13 95.73 137.52 95.12 136.25 88.94 145.92 78.76 125.25 89.62"/><polygon class="b" points="132.57 113.88 127.47 136.78 141.4 137.98 142.41 118.79 146.86 137.65 161.2 135.09 152.81 106.59 132.57 113.88"/><polygon class="c" points="122.24 79.27 125.25 74.26 132.57 74.68 137.52 80.63 137.09 86.74 131.52 90.89 125.25 86.94 122.24 79.27"/><polygon class="c" points="162.48 163.6 164.86 168.69 163.67 170.43 157.98 170.38 156.04 163.6 162.48 163.6"/><polygon class="c" points="136.45 159.86 136.58 164.57 118.36 165.8 130.65 159.86 136.45 159.86"/><polygon class="b" points="122.02 31.59 126.7 84.78 125.9 84.78 121.59 31.42 122.02 31.59"/><polygon class="b" points="165.08 127.97 126.7 84.78 125.9 84.78 165.08 128.64 165.08 127.97"/><g><polygon class="d" points="163.47 60.5 159.83 61.67 159 63.11 159.6 63.59 161.81 62.8 163.47 60.5"/><polygon class="d" points="123.46 86.38 159 63.11 159.6 63.59 123.95 86.66 123.46 86.38"/></g><polygon class="b" points="123.74 84.02 125.68 81.98 129.56 86.4 127.9 87.86 122.77 88.15 123.74 84.02"/><polygon class="b" points="153.67 71.47 152.81 64.22 158.41 63.83 161.64 68.41 159.05 72.53 159.05 76.39 153.67 71.47"/></g><g><polygon class="e" points="83.95 83.23 105.3 80.39 109.89 107.12 89.01 108.89 83.95 83.23"/><polygon class="d" points="85.37 137.01 89.01 108.89 109.89 107.12 94.54 137.96 85.37 137.01"/><polygon class="d" points="115.29 137.96 109.89 107.12 89.01 108.89 106.72 137.17 115.29 137.96"/><polygon class="e" points="79.2 163.9 85.37 137.01 94.54 137.96 85.37 163.9 79.2 163.9"/><polygon class="e" points="106.72 137.17 112.26 166.91 118.27 166.43 115.29 137.96 106.72 137.17"/><polygon class="e" points="105.3 80.39 122.22 77.7 123.65 83.55 107.37 92.46 105.3 80.39"/><polygon class="e" points="131.56 75.33 122.22 77.7 123.65 83.55 132.69 79.44 131.56 75.33"/><polygon class="e" points="86.11 94.19 71.13 90.19 70.18 85.39 83.95 83.23 86.11 94.19"/><polygon class="b" points="105.3 80.39 96.92 85.08 97.63 92.46 95.65 93.04 94.54 85.08 83.95 83.23 105.3 80.39"/><polygon class="b" points="89.01 108.89 83.95 133.64 99.6 135.43 99.29 117.52 103.44 135.43 117.32 136.06 109.89 107.12 89.01 108.89"/><polygon class="c" points="89.37 82.51 86.11 71.48 88.53 66.47 93.75 65.04 98.18 67.24 99.29 78.65 98.18 83.55 89.37 82.51"/><polygon class="e" points="70.18 85.39 84.58 81.65 86.11 86.54 71.13 90.19 70.18 85.39"/><polygon class="b" points="133.61 71.85 131.56 75.33 132.69 79.44 139.79 75.64 138.67 71.21 136.93 70.42 133.61 71.85"/><polygon class="c" points="79.2 163.9 70.18 169.47 86.87 169.47 85.37 163.9 79.2 163.9"/><polygon class="c" points="112.26 166.91 112.5 170.2 123.81 172.44 118.27 166.43 112.26 166.91"/><polyline class="b" points="104.35 34.17 90.91 84.02 91.46 84.02 104.82 34.2 104.35 34.17"/><polygon class="b" points="127.28 122.94 91.46 84.02 90.91 84.02 126.97 123.41 127.28 122.94"/><g><polygon class="d" points="144.38 68.23 140.28 67.89 138.63 69.41 138.91 70.37 141.44 70.48 144.38 68.23"/><polygon class="d" points="91.38 82.11 138.63 69.41 138.91 70.37 91.67 82.75 91.38 82.11"/></g><polygon class="e" points="103.56 32.46 124.02 48.18 134.25 61.85 139.3 79.97 139.13 94.68 136.28 105.71 127.16 124.68 126.37 123.38 134.69 104.3 137.47 85.85 131.74 62.36 122.52 49.35 103.44 33.41 103.56 32.46"/><polygon class="b" points="86 80.23 84.58 81.65 86.16 86.56 92.18 84.02 91.06 79.6 89.32 78.81 86 80.23"/></g><g><polygon class="e" points="54.3 22.85 80.47 38.31 94.38 52.85 102.9 73.35 104.82 90.62 103.08 103.95 95.18 127.52 94.07 126.1 101.03 102.53 101.61 80.51 91.54 53.81 78.88 39.89 54.3 23.98 54.3 22.85"/><polygon class="d" points="111.15 61.09 107.04 60.93 105.46 62.51 105.77 63.46 108.3 63.46 111.15 61.09"/><polygon class="e" points="48.71 80.31 76.73 75.81 82.05 114.08 54.3 114.08 48.71 80.31"/><polygon class="d" points="94.38 78.33 78.67 89.8 76.73 75.81 89.64 71.21 94.38 78.33"/><polygon class="d" points="95.18 68.37 89.64 71.21 94.38 78.33 98.97 72.64 95.18 68.37"/><polygon class="d" points="48.71 80.31 32.86 79.44 32.86 86.61 50.86 93.3 48.71 80.31"/><polygon class="d" points="54.3 114.08 48.71 142.68 57.8 142.68 82.05 114.08 54.3 114.08"/><polygon class="d" points="89.64 143.7 80.22 143.7 54.3 114.08 82.05 114.08 89.64 143.7"/><polygon class="e" points="57.8 142.68 50.25 165.33 42.59 165.33 48.71 142.68 57.8 142.68"/><polygon class="e" points="80.22 143.7 92.01 168.17 98.27 168.17 89.64 143.7 80.22 143.7"/><polygon class="c" points="50.25 165.33 50.19 169.45 32.22 171.49 42.59 165.33 50.25 165.33"/><polygon class="c" points="92.01 168.17 92.01 172.05 89.64 177.15 95.57 177.15 100.24 174.82 98.27 168.17 92.01 168.17"/><polygon class="b" points="95.18 68.37 96.76 65.04 103.93 65.04 104.82 70.11 100.4 72.32 98.97 72.64 95.18 68.37"/><polygon class="c" points="52.53 78.33 51.38 68.37 56.81 63.22 64.33 66.63 66.39 75.17 65.76 80.51 61.96 82.36 52.53 78.33"/><polygon class="b" points="54.3 114.08 44.72 145.81 59.97 145.43 68.85 123.86 78.99 145.43 92.4 145.81 82.05 114.08 54.3 114.08"/><polygon class="b" points="76.73 75.81 66.39 82.36 64.49 91.46 61.96 91.46 58.8 82.76 48.71 80.31 76.73 75.81"/><polygon class="d" points="54.84 76.59 32.86 79.44 32.86 86.61 56.58 82.76 54.84 76.59"/><polygon class="d" points="58.8 77.22 105.46 62.51 105.77 63.46 59.11 77.86 58.8 77.22"/><polygon class="b" points="53 76.83 57.32 75.81 59.72 76.59 60.61 80.51 56.58 82.76 53 76.83"/><polygon class="b" points="54.3 22.85 53.58 23.6 58.8 76.59 59.68 76.59 54.3 22.85"/><polygon class="b" points="95.18 127.52 59.75 77.38 59.43 78.17 94.73 127.52 95.18 127.52"/></g></g></svg>