<?xml version="1.0" encoding="UTF-8"?><svg id="a" xmlns="http://www.w3.org/2000/svg" viewBox="0 0 572 663"><defs><style>.b{fill:#e8cd7d;}.c{fill:#8d3866;}.d{fill:#db9951;}.e{fill:#361731;}</style></defs><polygon class="e" points="293.58 576.71 163.01 550.57 58.39 444.78 35.19 301.22 93.79 163.17 230.26 84.52 359.89 84.52 494.95 189.53 536.81 332.29 465.45 500.23 293.58 576.71"/><polygon class="c" points="255.83 188.35 262.9 225.71 262.9 250.93 223.18 270.54 198.8 307.51 198.8 355.91 230.85 395.28 268.41 404.66 268.41 442.53 259.76 469.95 280.6 459.33 293.98 467.19 289.65 441.63 290.44 404.66 331.73 381.45 352.97 327.18 332.91 277.23 288.08 251.27 283.36 220.6 287.18 188.35 271.56 195.43 255.83 188.35"/><polygon class="b" points="277.26 385.58 319.34 366.31 332.72 321.08 311.08 282.54 267.03 270.35 225.74 293.16 219.05 341.14 238.72 375.36 277.26 385.58"/><path class="d" d="M293.66,579.17c-.49-.18-131.03-25.1-131.48-25.25-.59-.03-105.16-105.32-105.72-105.46l-.6-.6-.15-.88-24.12-143.4-.17-1.02,.41-.99,57.87-138.36,.57-1.35,1.31-.76L227.62,81.71l1.19-.7h1.44l129.63-.77h2.03c39.87,30.93,99.82,76.11,139.19,106.83,13.59,46.08,29.09,98.95,42.17,145.09l.67,2.37-.94,2.16c-16.94,38.98-37.6,86.55-54.75,125.43-6.34,14.53-12.82,29-19.23,43.5-15.08,6.42-30.14,12.9-45.22,19.24-39.86,16.7-90.28,38.1-130.16,54.3h0Zm-.15-1.37c38.85-18.62,88.43-42.14,127.64-60.43,14.12-6.64,28.26-13.15,42.37-19.71l-2.44,2.48c5.75-14.08,11.43-28.19,17.24-42.24,16.08-39.34,35.97-87.24,52.29-126.48l-.26,4.53c-13.59-45.08-29.08-97.35-42.22-142.66l2.46,3.61c-37.52-29.64-96.56-75.77-134.41-105.85l3.71,1.27-129.63-.76,2.64-.71L96.01,168.79l1.87-2.11-59.33,137.74,.24-2.01,22.29,143.7-.75-1.48,103.9,106.51-.88-.47,130.16,27.13h0Z"/><g><path class="b" d="M198.78,149.87c-.81-.41-1.69-.77-2.65-1.08-.96-.31-1.9-.46-2.81-.46-1.27,0-2.27,.29-3.03,.88-.75,.59-1.13,1.38-1.13,2.36,0,.74,.25,1.37,.74,1.88,.49,.51,1.12,.95,1.9,1.33,.77,.37,1.6,.72,2.47,1.05,.72,.26,1.44,.57,2.16,.93,.72,.36,1.37,.8,1.95,1.33,.58,.52,1.04,1.17,1.37,1.93s.51,1.7,.51,2.81c0,1.27-.31,2.41-.93,3.44-.62,1.03-1.51,1.83-2.67,2.42-1.16,.59-2.54,.88-4.16,.88-1.03,0-2.01-.11-2.96-.34-.95-.23-1.83-.54-2.63-.93-.81-.39-1.53-.8-2.16-1.21l1.41-2.49c.52,.37,1.12,.73,1.8,1.06,.68,.34,1.38,.61,2.13,.8,.74,.2,1.46,.29,2.16,.29,.76,0,1.5-.13,2.23-.39,.72-.26,1.32-.68,1.8-1.24,.48-.57,.72-1.32,.72-2.26,0-.79-.21-1.45-.64-2-.42-.54-.98-1.01-1.67-1.39-.69-.38-1.43-.72-2.24-1.03-.76-.26-1.52-.57-2.27-.92-.75-.35-1.45-.77-2.09-1.26-.64-.49-1.17-1.1-1.57-1.82-.4-.72-.61-1.59-.61-2.62,0-1.24,.3-2.33,.9-3.26,.6-.93,1.42-1.66,2.47-2.19,1.05-.53,2.25-.82,3.6-.87,1.53,0,2.87,.19,4.04,.56s2.2,.82,3.09,1.34l-1.21,2.45Z"/><path class="b" d="M213.08,155.76l4.02,9.13-.62,.07,3.73-9.19h2.98l-6.22,14.37-4.35-9.29-3.99,9.29-6.25-14.37h3.01l4.19,9.55-1.05-.23,3.01-7-1.11-2.32h2.65Z"/><path class="b" d="M224.92,162.4c0-1.35,.32-2.57,.97-3.67,.64-1.09,1.54-1.95,2.68-2.58,1.15-.63,2.45-.95,3.91-.95s2.75,.32,3.86,.95c1.11,.63,1.98,1.49,2.6,2.58,.62,1.09,.93,2.31,.93,3.67s-.31,2.57-.93,3.67c-.62,1.09-1.49,1.96-2.6,2.6-1.11,.64-2.41,.96-3.89,.96s-2.75-.3-3.88-.9c-1.12-.6-2.01-1.44-2.67-2.52-.66-1.08-.98-2.35-.98-3.81Zm3.08,.03c0,.87,.2,1.66,.59,2.37s.92,1.27,1.57,1.68c.65,.42,1.4,.62,2.22,.62s1.6-.21,2.26-.62c.65-.41,1.17-.98,1.55-1.68,.38-.71,.57-1.5,.57-2.37s-.19-1.66-.57-2.37c-.38-.71-.9-1.28-1.55-1.7-.65-.43-1.41-.64-2.26-.64s-1.58,.22-2.24,.65c-.67,.44-1.19,1.01-1.57,1.72s-.57,1.49-.57,2.34Z"/><path class="b" d="M246.68,155.76l.29,3.93-.13-.56c.35-.81,.85-1.5,1.5-2.09s1.35-1.04,2.09-1.34c.74-.31,1.37-.47,1.9-.49l-.13,3.08c-1.05-.09-1.96,.1-2.73,.57-.77,.47-1.39,1.08-1.83,1.83-.45,.75-.67,1.57-.67,2.44v6.18h-3.04v-13.55h2.75Z"/><path class="b" d="M261.18,169.63c-1.26,0-2.4-.3-3.4-.9-1-.6-1.81-1.45-2.41-2.55-.6-1.1-.9-2.37-.9-3.81s.32-2.79,.95-3.86c.63-1.07,1.48-1.89,2.55-2.45,1.07-.57,2.27-.85,3.6-.85,1.07,0,2.09,.23,3.06,.69s1.73,1.09,2.27,1.9l-.16,1.08v-14.89h3.04v25.33h-3.04v-3.37l.36,.85c-.65,.83-1.49,1.51-2.5,2.04s-2.15,.8-3.42,.8Zm.95-2.58c.81,0,1.52-.15,2.14-.46s1.15-.71,1.57-1.23c.43-.51,.73-1.12,.9-1.82v-2.58c-.17-.66-.49-1.23-.93-1.73-.45-.5-.98-.89-1.6-1.16-.62-.27-1.31-.41-2.08-.41-.81,0-1.56,.2-2.26,.59-.7,.39-1.25,.94-1.67,1.64s-.62,1.5-.62,2.42,.21,1.7,.62,2.41c.41,.71,.97,1.28,1.67,1.7,.7,.42,1.45,.64,2.26,.64Z"/><path class="b" d="M278.88,169.57c-.96,0-1.89-.17-2.8-.51s-1.65-.85-2.24-1.52l1.28-1.77c.59,.55,1.18,.96,1.77,1.23s1.18,.41,1.77,.41c.44,0,.84-.05,1.21-.16,.37-.11,.67-.29,.9-.56,.23-.26,.34-.6,.34-1.01,0-.5-.16-.89-.47-1.16-.32-.27-.71-.5-1.19-.67-.48-.17-1-.34-1.57-.49-1.11-.37-1.96-.88-2.55-1.54s-.88-1.45-.88-2.39c0-.72,.18-1.39,.54-2.01,.36-.62,.9-1.13,1.62-1.54,.72-.4,1.59-.61,2.62-.61,.94,0,1.78,.12,2.52,.34,.74,.23,1.44,.62,2.09,1.16l-1.21,1.9c-.39-.41-.86-.72-1.39-.93-.54-.21-1.02-.31-1.46-.31-.39,0-.76,.06-1.1,.18-.34,.12-.61,.29-.82,.52-.21,.23-.31,.52-.31,.87-.02,.46,.12,.82,.44,1.1,.32,.27,.71,.5,1.19,.67,.48,.17,.97,.35,1.47,.52,.66,.2,1.24,.46,1.77,.79s.94,.73,1.26,1.21c.32,.48,.47,1.08,.47,1.8,0,.81-.19,1.55-.57,2.24-.38,.69-.96,1.23-1.73,1.64s-1.76,.61-2.96,.61Z"/><path class="b" d="M291.15,155.76l.26,3.04-.16-.26c.5-1.03,1.22-1.84,2.14-2.44,.93-.6,2-.9,3.22-.9,.74,0,1.41,.13,2,.38,.59,.25,1.07,.6,1.46,1.05,.38,.45,.63,.99,.74,1.62l-.16,.13c.52-1,1.25-1.78,2.18-2.34,.93-.56,1.9-.83,2.93-.83,1.33,0,2.38,.38,3.16,1.15,.77,.76,1.18,1.73,1.23,2.91v10.05h-3.08v-8.93c-.02-.7-.19-1.28-.51-1.75s-.87-.71-1.65-.74c-.79,0-1.49,.23-2.11,.7-.62,.47-1.1,1.08-1.44,1.83-.34,.75-.52,1.58-.54,2.47v6.41h-3.08v-8.93c-.02-.7-.2-1.28-.54-1.75-.34-.47-.9-.71-1.69-.74-.79,0-1.48,.23-2.09,.7-.61,.47-1.09,1.09-1.44,1.85-.35,.76-.52,1.59-.52,2.49v6.38h-3.08v-13.55h2.78Z"/><path class="b" d="M321.03,169.63c-1.26,0-2.42-.27-3.45-.82s-1.86-1.35-2.47-2.4c-.61-1.06-.92-2.35-.92-3.88s.32-2.84,.95-3.93,1.48-1.93,2.55-2.52c1.07-.59,2.24-.88,3.5-.88s2.34,.29,3.22,.87c.88,.58,1.54,1.26,1.98,2.04l-.2,.49,.29-2.85h2.81v13.55h-3.04v-3.53l.36,.79c-.11,.22-.32,.5-.62,.83-.31,.34-.69,.68-1.16,1.03-.47,.35-1.02,.64-1.65,.87-.63,.23-1.35,.34-2.16,.34Zm.82-2.52c.76,0,1.45-.14,2.06-.43,.61-.28,1.12-.69,1.52-1.21,.4-.52,.68-1.13,.83-1.83v-2.65c-.17-.65-.48-1.23-.92-1.72s-.96-.87-1.57-1.15c-.61-.27-1.28-.41-2-.41-.83,0-1.58,.2-2.26,.59-.68,.39-1.22,.94-1.62,1.64-.4,.7-.6,1.52-.6,2.45,0,.87,.21,1.67,.62,2.39s.97,1.29,1.67,1.7c.7,.42,1.45,.62,2.26,.62Z"/><path class="b" d="M337.32,155.76l.23,3.3-.1-.52c.41-1,1.11-1.8,2.09-2.41,.98-.6,2.13-.9,3.44-.9s2.31,.38,3.12,1.13c.82,.75,1.24,1.73,1.26,2.93v10.01h-3.08v-8.97c-.02-.72-.23-1.31-.64-1.78-.4-.47-1.03-.7-1.88-.7-.76,0-1.47,.22-2.11,.65-.64,.44-1.15,1.04-1.51,1.8-.36,.76-.54,1.65-.54,2.65v6.35h-3.08v-13.55h2.78Z"/></g><g><path class="b" d="M145.68,475.35c-.39,.26-.93,.56-1.6,.88-.68,.33-1.47,.6-2.37,.82s-1.9,.33-2.99,.33c-1.81-.02-3.45-.35-4.92-.98-1.47-.63-2.73-1.49-3.76-2.58s-1.83-2.35-2.37-3.78c-.55-1.43-.82-2.95-.82-4.57,0-1.77,.28-3.4,.85-4.89s1.38-2.79,2.44-3.89c1.06-1.1,2.3-1.96,3.73-2.57,1.43-.61,2.99-.92,4.7-.92,1.42,0,2.7,.19,3.86,.57,1.16,.38,2.15,.82,2.98,1.33l-1.28,3.01c-.65-.46-1.45-.88-2.39-1.28-.94-.39-1.96-.59-3.08-.59s-2.25,.23-3.27,.69-1.93,1.1-2.71,1.93c-.79,.83-1.4,1.79-1.85,2.88-.45,1.09-.67,2.28-.67,3.57s.2,2.45,.61,3.55c.4,1.1,.98,2.06,1.73,2.88s1.66,1.46,2.73,1.91c1.07,.46,2.27,.69,3.6,.69,1.2,0,2.27-.19,3.21-.56,.94-.37,1.71-.79,2.32-1.24l1.34,2.81Z"/><path class="b" d="M155.89,477.45c-1.26,0-2.42-.27-3.45-.82s-1.86-1.35-2.47-2.4c-.61-1.06-.92-2.35-.92-3.88s.32-2.84,.95-3.93,1.48-1.93,2.55-2.52c1.07-.59,2.24-.88,3.5-.88s2.34,.29,3.22,.87c.88,.58,1.54,1.26,1.98,2.04l-.2,.49,.29-2.85h2.81v13.55h-3.04v-3.53l.36,.79c-.11,.22-.32,.5-.62,.83-.31,.34-.69,.68-1.16,1.03-.47,.35-1.02,.64-1.65,.87-.63,.23-1.35,.34-2.16,.34Zm.82-2.52c.76,0,1.45-.14,2.06-.43,.61-.28,1.12-.69,1.52-1.21,.4-.52,.68-1.13,.83-1.83v-2.65c-.17-.65-.48-1.23-.92-1.72s-.96-.87-1.57-1.15c-.61-.27-1.28-.41-2-.41-.83,0-1.58,.2-2.26,.59-.68,.39-1.22,.94-1.62,1.64-.4,.7-.6,1.52-.6,2.45,0,.87,.21,1.67,.62,2.39s.97,1.29,1.67,1.7c.7,.42,1.45,.62,2.26,.62Z"/><path class="b" d="M174.94,477.51l-7.53-13.94h3.63l5.07,10.77-1.87-.1,4.68-10.67h3.4l-7.23,13.94h-.16Z"/><path class="b" d="M190.71,477.45c-1.26,0-2.42-.27-3.45-.82s-1.86-1.35-2.47-2.4c-.61-1.06-.92-2.35-.92-3.88s.32-2.84,.95-3.93,1.48-1.93,2.55-2.52c1.07-.59,2.24-.88,3.5-.88s2.34,.29,3.22,.87c.88,.58,1.54,1.26,1.98,2.04l-.2,.49,.29-2.85h2.81v13.55h-3.04v-3.53l.36,.79c-.11,.22-.32,.5-.62,.83-.31,.34-.69,.68-1.16,1.03-.47,.35-1.02,.64-1.65,.87-.63,.23-1.35,.34-2.16,.34Zm.82-2.52c.76,0,1.45-.14,2.06-.43,.61-.28,1.12-.69,1.52-1.21,.4-.52,.68-1.13,.83-1.83v-2.65c-.17-.65-.48-1.23-.92-1.72s-.96-.87-1.57-1.15c-.61-.27-1.28-.41-2-.41-.83,0-1.58,.2-2.26,.59-.68,.39-1.22,.94-1.62,1.64-.4,.7-.6,1.52-.6,2.45,0,.87,.21,1.67,.62,2.39s.97,1.29,1.67,1.7c.7,.42,1.45,.62,2.26,.62Z"/><path class="b" d="M204.22,451.79h3.08v25.33h-3.08v-25.33Z"/><path class="b" d="M215.28,463.57l.29,3.93-.13-.56c.35-.81,.85-1.5,1.5-2.09s1.35-1.04,2.09-1.34c.74-.31,1.37-.47,1.9-.49l-.13,3.08c-1.05-.09-1.96,.1-2.73,.57-.77,.47-1.39,1.08-1.83,1.83-.45,.75-.67,1.57-.67,2.44v6.18h-3.04v-13.55h2.75Z"/><path class="b" d="M229.39,477.22l-6.54-13.65h3.44l5.46,12.11-2.36,1.54Zm-3.37,6.41l8.93-20.06h2.81l-8.74,20.06h-3.01Z"/></g><g><path class="b" d="M52.36,322.47l10.31-24.64h.2l10.34,24.64h-3.63l-7.72-19.67,2.26-1.47-8.61,21.14h-3.14Zm6.05-8.97h8.8l1.05,2.75h-10.77l.92-2.75Z"/><path class="b" d="M79.61,308.92l.29,3.93-.13-.56c.35-.81,.85-1.5,1.5-2.09,.65-.59,1.35-1.04,2.09-1.34s1.37-.47,1.9-.49l-.13,3.08c-1.05-.09-1.96,.1-2.73,.57-.77,.47-1.39,1.08-1.83,1.83-.45,.75-.67,1.57-.67,2.44v6.18h-3.04v-13.55h2.75Z"/><path class="b" d="M99.61,321.19c-.61,.5-1.34,.89-2.19,1.18-.85,.28-1.7,.43-2.55,.43-1.46,0-2.75-.29-3.88-.88-1.12-.59-2-1.42-2.63-2.49-.63-1.07-.95-2.32-.95-3.76s.34-2.69,1.01-3.75c.68-1.06,1.55-1.88,2.63-2.45,1.08-.58,2.25-.87,3.52-.87,1.07,0,2.03,.15,2.9,.44,.86,.29,1.61,.71,2.24,1.26l-1.54,1.96c-.37-.28-.85-.55-1.42-.8-.58-.25-1.22-.38-1.91-.38-.81,0-1.54,.2-2.21,.61-.67,.4-1.19,.95-1.57,1.64-.38,.69-.57,1.47-.57,2.34s.2,1.63,.59,2.32c.39,.7,.94,1.25,1.64,1.67,.7,.42,1.51,.62,2.42,.62,.57,0,1.1-.09,1.59-.26,.49-.17,.93-.41,1.33-.72l1.57,1.9Z"/><path class="b" d="M103.5,322.47v-25.33h3.01v14.92l-.07-.56c.46-.89,1.16-1.64,2.11-2.23,.95-.59,2.08-.88,3.39-.88s2.31,.38,3.12,1.13c.82,.75,1.24,1.73,1.26,2.93v10.01h-3.08v-8.97c-.02-.72-.24-1.31-.64-1.78s-1.03-.7-1.88-.7c-.76,0-1.47,.22-2.11,.67-.64,.45-1.14,1.05-1.5,1.82s-.54,1.64-.54,2.62v6.35h-3.08Z"/><path class="b" d="M127.91,322.79c-1.55,0-2.88-.31-3.99-.93s-1.97-1.47-2.58-2.55c-.61-1.08-.92-2.32-.92-3.71s.34-2.54,1.03-3.63,1.6-1.96,2.73-2.62c1.13-.65,2.4-.98,3.8-.98,1.79,0,3.27,.52,4.45,1.57,1.18,1.05,1.98,2.49,2.42,4.32l-11.19,3.93-.72-1.8,9.13-3.37-.62,.46c-.26-.72-.7-1.34-1.31-1.87-.61-.52-1.41-.79-2.39-.79-.83,0-1.57,.2-2.21,.59-.64,.39-1.15,.93-1.52,1.62s-.56,1.49-.56,2.41,.19,1.73,.57,2.45,.92,1.28,1.6,1.69c.69,.4,1.47,.6,2.34,.6,.59,0,1.16-.11,1.72-.33,.56-.22,1.08-.5,1.59-.85l1.37,2.26c-.68,.46-1.43,.83-2.27,1.11-.84,.28-1.66,.43-2.47,.43Z"/><path class="b" d="M141.36,308.92l.29,3.93-.13-.56c.35-.81,.85-1.5,1.5-2.09s1.35-1.04,2.09-1.34c.74-.31,1.37-.47,1.9-.49l-.13,3.08c-1.05-.09-1.96,.1-2.73,.57-.77,.47-1.39,1.08-1.83,1.83-.45,.75-.67,1.57-.67,2.44v6.18h-3.04v-13.55h2.75Z"/><path class="b" d="M154.74,322.73c-.96,0-1.89-.17-2.8-.51s-1.65-.85-2.24-1.52l1.28-1.77c.59,.55,1.18,.96,1.77,1.23s1.18,.41,1.77,.41c.44,0,.84-.05,1.21-.16,.37-.11,.67-.29,.9-.56,.23-.26,.34-.6,.34-1.01,0-.5-.16-.89-.47-1.16-.32-.27-.71-.5-1.19-.67-.48-.17-1-.34-1.57-.49-1.11-.37-1.96-.88-2.55-1.54s-.88-1.45-.88-2.39c0-.72,.18-1.39,.54-2.01,.36-.62,.9-1.13,1.62-1.54,.72-.4,1.59-.61,2.62-.61,.94,0,1.78,.12,2.52,.34,.74,.23,1.44,.62,2.09,1.16l-1.21,1.9c-.39-.41-.86-.72-1.39-.93-.54-.21-1.02-.31-1.46-.31-.39,0-.76,.06-1.1,.18-.34,.12-.61,.29-.82,.52-.21,.23-.31,.52-.31,.87-.02,.46,.12,.82,.44,1.1,.32,.27,.71,.5,1.19,.67,.48,.17,.97,.35,1.47,.52,.66,.2,1.24,.46,1.77,.79s.94,.73,1.26,1.21c.32,.48,.47,1.08,.47,1.8,0,.81-.19,1.55-.57,2.24-.38,.69-.96,1.23-1.73,1.64s-1.76,.61-2.96,.61Z"/></g><g><path class="b" d="M380.62,303.14c-.81-.41-1.69-.77-2.65-1.08-.96-.31-1.9-.46-2.81-.46-1.27,0-2.27,.29-3.03,.88-.75,.59-1.13,1.38-1.13,2.36,0,.74,.25,1.37,.74,1.88,.49,.51,1.12,.95,1.9,1.33,.77,.37,1.6,.72,2.47,1.05,.72,.26,1.44,.57,2.16,.93,.72,.36,1.37,.8,1.95,1.33,.58,.52,1.04,1.17,1.37,1.93s.51,1.7,.51,2.81c0,1.27-.31,2.41-.93,3.44-.62,1.03-1.51,1.83-2.67,2.42-1.16,.59-2.54,.88-4.16,.88-1.03,0-2.01-.11-2.96-.34-.95-.23-1.83-.54-2.63-.93-.81-.39-1.53-.8-2.16-1.21l1.41-2.49c.52,.37,1.12,.73,1.8,1.06,.68,.34,1.38,.61,2.13,.8,.74,.2,1.46,.29,2.16,.29,.76,0,1.5-.13,2.23-.39,.72-.26,1.32-.68,1.8-1.24,.48-.57,.72-1.32,.72-2.26,0-.79-.21-1.45-.64-2-.42-.54-.98-1.01-1.67-1.39-.69-.38-1.43-.72-2.24-1.03-.76-.26-1.52-.57-2.27-.92-.75-.35-1.45-.77-2.09-1.26-.64-.49-1.17-1.1-1.57-1.82-.4-.72-.61-1.59-.61-2.62,0-1.24,.3-2.33,.9-3.26,.6-.93,1.42-1.66,2.47-2.19,1.05-.53,2.25-.82,3.6-.87,1.53,0,2.87,.19,4.04,.56s2.2,.82,3.09,1.34l-1.21,2.45Z"/><path class="b" d="M394.66,322.91c-1.03,0-2.01-.24-2.96-.72-.95-.48-1.67-1.12-2.18-1.93l.16-.95v9.78h-3.04v-20.25h2.65l.42,3.47-.33-.98c.65-.83,1.48-1.51,2.49-2.04,1-.53,2.13-.8,3.37-.8s2.41,.3,3.42,.9c1.01,.6,1.82,1.45,2.4,2.55,.59,1.1,.88,2.38,.88,3.84s-.32,2.7-.95,3.78c-.63,1.08-1.5,1.91-2.6,2.49-1.1,.58-2.35,.87-3.75,.87Zm-.59-2.42c.87,0,1.67-.2,2.39-.61s1.3-.96,1.75-1.67c.45-.71,.67-1.51,.67-2.41s-.21-1.73-.62-2.44c-.42-.71-.97-1.27-1.65-1.67-.69-.4-1.46-.61-2.31-.61-.79,0-1.49,.15-2.13,.44-.63,.29-1.16,.7-1.57,1.23-.42,.52-.71,1.14-.88,1.87v2.29c.11,.65,.37,1.25,.79,1.8,.41,.55,.93,.98,1.55,1.29s1.29,.47,2.01,.47Z"/><path class="b" d="M412.36,322.91c-1.55,0-2.88-.31-3.99-.93-1.11-.62-1.97-1.47-2.58-2.55-.61-1.08-.92-2.32-.92-3.71s.34-2.54,1.03-3.63c.69-1.09,1.6-1.96,2.73-2.62,1.13-.65,2.4-.98,3.8-.98,1.79,0,3.27,.52,4.45,1.57,1.18,1.05,1.98,2.49,2.42,4.32l-11.19,3.93-.72-1.8,9.13-3.37-.62,.46c-.26-.72-.7-1.34-1.31-1.87-.61-.52-1.41-.79-2.39-.79-.83,0-1.57,.2-2.21,.59-.64,.39-1.15,.93-1.52,1.62s-.56,1.49-.56,2.41,.19,1.73,.57,2.45c.38,.72,.92,1.28,1.6,1.69,.69,.4,1.47,.6,2.34,.6,.59,0,1.16-.11,1.72-.33,.56-.22,1.08-.5,1.59-.85l1.37,2.26c-.68,.46-1.43,.83-2.27,1.11-.84,.28-1.66,.43-2.47,.43Z"/><path class="b" d="M428.72,322.91c-1.26,0-2.42-.27-3.45-.82s-1.86-1.35-2.47-2.4c-.61-1.06-.92-2.35-.92-3.88s.32-2.84,.95-3.93,1.48-1.93,2.55-2.52c1.07-.59,2.24-.88,3.5-.88s2.34,.29,3.22,.87c.88,.58,1.54,1.26,1.98,2.04l-.2,.49,.29-2.85h2.81v13.55h-3.04v-3.53l.36,.79c-.11,.22-.32,.5-.62,.83-.31,.34-.69,.68-1.16,1.03-.47,.35-1.02,.64-1.65,.87-.63,.23-1.35,.34-2.16,.34Zm.82-2.52c.76,0,1.45-.14,2.06-.43,.61-.28,1.12-.69,1.52-1.21,.4-.52,.68-1.13,.83-1.83v-2.65c-.17-.65-.48-1.23-.92-1.72s-.96-.87-1.57-1.15c-.61-.27-1.28-.41-2-.41-.83,0-1.58,.2-2.26,.59-.68,.39-1.22,.94-1.62,1.64-.4,.7-.6,1.52-.6,2.45,0,.87,.21,1.67,.62,2.39s.97,1.29,1.67,1.7c.7,.42,1.45,.62,2.26,.62Z"/><path class="b" d="M444.98,309.03l.29,3.93-.13-.56c.35-.81,.85-1.5,1.5-2.09s1.35-1.04,2.09-1.34c.74-.31,1.37-.47,1.9-.49l-.13,3.08c-1.05-.09-1.96,.1-2.73,.57-.77,.47-1.39,1.08-1.83,1.83-.45,.75-.67,1.57-.67,2.44v6.18h-3.04v-13.55h2.75Z"/><path class="b" d="M457.32,309.03l.26,3.04-.16-.26c.5-1.03,1.22-1.84,2.14-2.44,.93-.6,2-.9,3.22-.9,.74,0,1.41,.13,2,.38,.59,.25,1.07,.6,1.46,1.05,.38,.45,.63,.99,.74,1.62l-.16,.13c.52-1,1.25-1.78,2.18-2.34,.93-.56,1.9-.83,2.93-.83,1.33,0,2.38,.38,3.16,1.15,.77,.76,1.18,1.73,1.23,2.91v10.05h-3.08v-8.93c-.02-.7-.19-1.28-.51-1.75s-.87-.71-1.65-.74c-.79,0-1.49,.23-2.11,.7-.62,.47-1.1,1.08-1.44,1.83-.34,.75-.52,1.58-.54,2.47v6.41h-3.08v-8.93c-.02-.7-.2-1.28-.54-1.75-.34-.47-.9-.71-1.69-.74-.79,0-1.48,.23-2.09,.7-.61,.47-1.09,1.09-1.44,1.85-.35,.76-.52,1.59-.52,2.49v6.38h-3.08v-13.55h2.78Z"/><path class="b" d="M487.2,322.91c-1.26,0-2.42-.27-3.45-.82s-1.86-1.35-2.47-2.4c-.61-1.06-.92-2.35-.92-3.88s.32-2.84,.95-3.93,1.48-1.93,2.55-2.52c1.07-.59,2.24-.88,3.5-.88s2.34,.29,3.22,.87c.88,.58,1.54,1.26,1.98,2.04l-.2,.49,.29-2.85h2.81v13.55h-3.04v-3.53l.36,.79c-.11,.22-.32,.5-.62,.83-.31,.34-.69,.68-1.16,1.03-.47,.35-1.02,.64-1.65,.87-.63,.23-1.35,.34-2.16,.34Zm.82-2.52c.76,0,1.45-.14,2.06-.43,.61-.28,1.12-.69,1.52-1.21,.4-.52,.68-1.13,.83-1.83v-2.65c-.17-.65-.48-1.23-.92-1.72s-.96-.87-1.57-1.15c-.61-.27-1.28-.41-2-.41-.83,0-1.58,.2-2.26,.59-.68,.39-1.22,.94-1.62,1.64-.4,.7-.6,1.52-.6,2.45,0,.87,.21,1.67,.62,2.39s.97,1.29,1.67,1.7c.7,.42,1.45,.62,2.26,.62Z"/><path class="b" d="M503.49,309.03l.23,3.3-.1-.52c.41-1,1.11-1.8,2.09-2.41,.98-.6,2.13-.9,3.44-.9s2.31,.38,3.12,1.13c.82,.75,1.24,1.73,1.26,2.93v10.01h-3.08v-8.97c-.02-.72-.23-1.31-.64-1.78-.4-.47-1.03-.7-1.88-.7-.76,0-1.47,.22-2.11,.65-.64,.44-1.15,1.04-1.51,1.8-.36,.76-.54,1.65-.54,2.65v6.35h-3.08v-13.55h2.78Z"/></g><g><path class="b" d="M332.45,475.35c-.39,.26-.93,.56-1.6,.88-.68,.33-1.47,.6-2.37,.82s-1.9,.33-2.99,.33c-1.81-.02-3.45-.35-4.92-.98s-2.73-1.49-3.76-2.58-1.83-2.35-2.37-3.78c-.55-1.43-.82-2.95-.82-4.57,0-1.77,.28-3.4,.85-4.89s1.38-2.79,2.44-3.89c1.06-1.1,2.3-1.96,3.73-2.57,1.43-.61,2.99-.92,4.7-.92,1.42,0,2.7,.19,3.86,.57,1.16,.38,2.15,.82,2.98,1.33l-1.28,3.01c-.65-.46-1.45-.88-2.39-1.28-.94-.39-1.96-.59-3.08-.59s-2.25,.23-3.27,.69-1.93,1.1-2.72,1.93-1.4,1.79-1.85,2.88c-.45,1.09-.67,2.28-.67,3.57s.2,2.45,.61,3.55c.4,1.1,.98,2.06,1.73,2.88s1.66,1.46,2.73,1.91c1.07,.46,2.27,.69,3.6,.69,1.2,0,2.27-.19,3.21-.56,.94-.37,1.71-.79,2.32-1.24l1.34,2.81Z"/><path class="b" d="M342.66,477.45c-1.26,0-2.42-.27-3.45-.82s-1.86-1.35-2.47-2.4c-.61-1.06-.92-2.35-.92-3.88s.32-2.84,.95-3.93,1.48-1.93,2.55-2.52c1.07-.59,2.24-.88,3.5-.88s2.34,.29,3.22,.87c.88,.58,1.54,1.26,1.98,2.04l-.2,.49,.29-2.85h2.81v13.55h-3.04v-3.53l.36,.79c-.11,.22-.32,.5-.62,.83-.31,.34-.69,.68-1.16,1.03-.47,.35-1.02,.64-1.65,.87-.63,.23-1.35,.34-2.16,.34Zm.82-2.52c.76,0,1.45-.14,2.06-.43,.61-.28,1.12-.69,1.52-1.21,.4-.52,.68-1.13,.83-1.83v-2.65c-.17-.65-.48-1.23-.92-1.72s-.96-.87-1.57-1.15c-.61-.27-1.28-.41-2-.41-.83,0-1.58,.2-2.26,.59-.68,.39-1.22,.94-1.62,1.64-.4,.7-.6,1.52-.6,2.45,0,.87,.21,1.67,.62,2.39s.97,1.29,1.67,1.7c.7,.42,1.45,.62,2.26,.62Z"/><path class="b" d="M357.48,457.62h3.11v6.02h3.7v2.39h-3.7v11.09h-3.11v-11.09h-2.45v-2.39h2.45v-6.02Z"/><path class="b" d="M373.58,477.45c-1.26,0-2.42-.27-3.45-.82s-1.86-1.35-2.47-2.4c-.61-1.06-.92-2.35-.92-3.88s.32-2.84,.95-3.93,1.48-1.93,2.55-2.52c1.07-.59,2.24-.88,3.5-.88s2.34,.29,3.22,.87c.88,.58,1.54,1.26,1.98,2.04l-.2,.49,.29-2.85h2.81v13.55h-3.04v-3.53l.36,.79c-.11,.22-.32,.5-.62,.83-.31,.34-.69,.68-1.16,1.03-.47,.35-1.02,.64-1.65,.87-.63,.23-1.35,.34-2.16,.34Zm.82-2.52c.76,0,1.45-.14,2.06-.43,.61-.28,1.12-.69,1.52-1.21,.4-.52,.68-1.13,.83-1.83v-2.65c-.17-.65-.48-1.23-.92-1.72s-.96-.87-1.57-1.15c-.61-.27-1.28-.41-2-.41-.83,0-1.58,.2-2.26,.59-.68,.39-1.22,.94-1.62,1.64-.4,.7-.6,1.52-.6,2.45,0,.87,.21,1.67,.62,2.39s.97,1.29,1.67,1.7c.7,.42,1.45,.62,2.26,.62Z"/><path class="b" d="M395.11,477.45c-1.03,0-2.01-.24-2.96-.72-.95-.48-1.67-1.12-2.18-1.93l.16-.95v9.78h-3.04v-20.25h2.65l.42,3.47-.33-.98c.65-.83,1.48-1.51,2.49-2.04,1-.53,2.13-.8,3.37-.8s2.41,.3,3.42,.9c1.01,.6,1.82,1.45,2.4,2.55,.59,1.1,.88,2.38,.88,3.84s-.32,2.7-.95,3.78c-.63,1.08-1.5,1.91-2.6,2.49-1.1,.58-2.35,.87-3.75,.87Zm-.59-2.42c.87,0,1.67-.2,2.39-.61s1.3-.96,1.75-1.67c.45-.71,.67-1.51,.67-2.41s-.21-1.73-.62-2.44c-.42-.71-.97-1.27-1.65-1.67-.69-.4-1.46-.61-2.31-.61-.79,0-1.49,.15-2.13,.44-.63,.29-1.16,.7-1.57,1.23-.42,.52-.71,1.14-.88,1.87v2.29c.11,.65,.37,1.25,.79,1.8,.41,.55,.93,.98,1.55,1.29s1.29,.47,2.01,.47Z"/><path class="b" d="M410.85,477.64c-1.27,0-2.3-.38-3.09-1.13-.8-.75-1.22-1.73-1.26-2.93v-10.01h3.08v8.93c.04,.72,.26,1.31,.65,1.78,.39,.47,1,.71,1.83,.74,.74,0,1.41-.22,2.01-.67,.6-.45,1.08-1.06,1.46-1.83,.37-.77,.56-1.65,.56-2.63v-6.32h3.04v13.55h-2.78l-.26-3.34,.2,.62c-.28,.61-.69,1.16-1.21,1.65-.52,.49-1.15,.88-1.88,1.16-.73,.28-1.51,.42-2.34,.42Z"/><path class="b" d="M424.37,451.79h3.08v25.33h-3.08v-25.33Z"/><path class="b" d="M433.99,457.62h3.11v6.02h3.7v2.39h-3.7v11.09h-3.11v-11.09h-2.45v-2.39h2.45v-6.02Z"/></g><g><path class="b" d="M192.58,184.23l-22.16,24.05-22.24,23.98-22.22,23.99c-7.45,7.96-15.13,15.7-22.88,23.37l-1.32-1.25c7.26-8.14,14.59-16.21,22.15-24.06l22.81-23.44,22.79-23.45,22.87-23.38,.2,.19Z"/><path class="b" d="M90.98,291.05c3.28-7.67,6.37-18.11,6.71-26.08l6.24,12.45,12.75,5.58c-7.94,.75-18.21,4.38-25.7,8.05Z"/></g><g><path class="b" d="M96.62,340.38l16.02,20.15,15.94,20.21,15.96,20.19c5.31,6.73,10.38,13.66,15.36,20.65l-1.64,1.26c-5.45-6.63-10.81-13.33-15.92-20.22l-15.32-20.68-15.34-20.66-15.26-20.72,.22-.17Z"/><path class="b" d="M169.17,435.39c-7.06-4.45-16.88-9.14-24.7-10.73l13.28-4.2,7.52-11.72c-.51,7.96,1.46,18.67,3.91,26.64Z"/></g><g><path class="b" d="M247.32,467.63c6.93-.29,13.85-.55,20.78-.73l10.39-.3c3.46-.11,6.93-.32,10.39-.26v2.85c-3.46,.06-6.93-.15-10.39-.26l-10.39-.3c-6.93-.18-13.85-.44-20.78-.73v-.28Z"/><path class="b" d="M305.49,467.77c-7.82,2.9-17.52,7.85-23.53,13.09l4.74-13.09-4.74-13.09c6.01,5.24,15.71,10.19,23.53,13.09Z"/></g><g><path class="b" d="M373.54,429.29l13.48-18.02,13.55-17.96,13.53-17.98c4.49-6.01,9.24-11.81,14.06-17.56l1.73,1.35c-4.41,6.07-8.89,12.09-13.63,17.9l-14.16,17.48-14.14,17.5-14.21,17.44-.22-.17Z"/><path class="b" d="M439.25,345.36c-2.53,7.95-4.59,18.64-4.16,26.61l-7.4-11.79-13.23-4.32c7.83-1.51,17.7-6.11,24.8-10.49Z"/></g><g><path class="b" d="M438.7,291.15l-23.52-23.49-23.44-23.57-23.46-23.55c-7.77-7.9-15.32-16.01-22.8-24.19l1.29-1.26c7.97,7.71,15.86,15.48,23.53,23.48l22.88,24.12,22.89,24.1,22.81,24.18-.2,.19Z"/><path class="b" d="M334.55,183.8c7.53,3.58,17.84,7.09,25.79,7.75l-12.69,5.73-6.09,12.52c-.43-7.97-3.64-18.37-7.01-26Z"/></g><g><path class="d" d="M171.91,299.1l40.27-.5,40.27-.39c13.42-.1,26.84-.35,40.27-.41,6.71,.02,13.42,.04,20.13,.18l10.07,.17,10.07,.28v1.59l-10.07,.28-10.07,.17c-6.71,.15-13.42,.17-20.13,.18-13.42-.05-26.84-.31-40.27-.41l-40.27-.39-40.27-.5v-.28Z"/><path class="d" d="M349.59,299.23c-7.82,2.9-17.52,7.85-23.53,13.09l4.74-13.09-4.74-13.09c6.01,5.24,15.71,10.19,23.53,13.09Z"/></g><g><path class="d" d="M355.67,332.27l-38.79,24.09-38.85,23.99c-12.96,7.97-25.84,16.08-38.84,24l-9.79,5.87-9.85,5.78-9.85,5.76-9.92,5.66-.77-1.27,9.61-6.17,9.67-6.07,9.68-6.05,9.74-5.96c13.03-7.86,26.19-15.52,39.25-23.32l39.25-23.32,39.31-23.23,.14,.24Z"/><path class="d" d="M185.2,435.39c5.18-6.53,10.91-15.79,13.34-23.39l2.73,13.65,10.83,8.74c-7.86-1.37-18.72-.57-26.91,1Z"/></g><g><path class="d" d="M353.53,429.5l-44.25-24.25-44.19-24.35c-14.72-8.14-29.52-16.14-44.19-24.36l-10.98-6.22-10.92-6.33-10.91-6.34-10.85-6.44,.69-1.23,11.15,5.91,11.1,6,11.09,6.02,11.03,6.13c14.66,8.24,29.2,16.71,43.81,25.03l43.81,25.04,43.75,25.14-.13,.24Z"/><path class="d" d="M163.1,322.47c8.24,1.3,19.12,1.73,26.93,.1l-10.54,9.1-2.28,13.73c-2.68-7.51-8.71-16.58-14.11-22.93Z"/></g><g><path class="d" d="M180.06,415.3l17.93-50.25,18.04-50.21c6.04-16.73,11.92-33.51,18.05-50.21l4.66-12.5,4.77-12.46c3.15-8.32,6.42-16.59,9.68-24.86l1.28,.47c-2.87,8.42-5.74,16.84-8.73,25.21l-4.44,12.58-4.55,12.54c-6.14,16.69-12.53,33.29-18.77,49.94l-18.78,49.94-18.89,49.9-.26-.1Z"/><path class="d" d="M259.56,199.45c.03,8.34,1.32,19.15,4.17,26.6l-10.66-8.96-13.92-.07c7-3.83,14.99-11.23,20.41-17.57Z"/></g><g><path class="d" d="M274.86,205.27l21.09,49.23,20.98,49.27c6.97,16.43,14.1,32.8,20.97,49.28l5.1,12.38,4.99,12.42c3.36,8.27,6.6,16.59,9.84,24.91l-1.26,.52c-3.63-8.16-7.27-16.31-10.78-24.52l-5.32-12.29-5.21-12.33c-6.87-16.48-13.49-33.05-20.27-49.57l-20.26-49.57-20.15-49.62,.25-.11Z"/><path class="d" d="M363.62,418.35c-5.69-6.1-13.99-13.14-21.15-16.67l13.91-.67,10.26-9.41c-2.52,7.57-3.36,18.43-3.02,26.76Z"/></g></svg>