<?xml version="1.0" encoding="UTF-8"?><svg xmlns="http://www.w3.org/2000/svg" viewBox="0 0 200 200"><defs><style>.f{fill:#e8cd7d;}.g{fill:#8d3866;}.h{fill:#db9951;}.i{fill:#361731;}</style></defs><g id="a"/><g id="b"/><g id="c"/><g id="d"><g><g><polygon class="g" points="177.23 55.67 161.58 55.61 160.29 57.43 162.09 58.93 177.23 55.67"/><polygon class="g" points="154.32 64.15 139.24 68.33 138.5 70.44 140.63 71.4 154.32 64.15"/><polygon class="g" points="157.8 104.9 159.85 106.03 174.09 99.93 158.72 102.86 157.8 104.9"/><path class="g" d="M155.13,104.85l-.03,.05-39.36,11.23-1.48-2.08-.56,.39-6.52-4.34-9.27-11.08-1.07,7.85h0l1.07-7.85-2.21-.11,.05-.25,2.83-2.89v-8.06l-.49-.45,.12-.59,38.15-14.7,2.14,1.19v-2.72l-1.74-1.9-.94,2.07-.02,.05-37.17,13.98,.67-3.28,2.83-1.4-13.37-13.56h-.62l.14-1.55,10.27-.96,.36,1.16h6.28l-.63-1.72,53.25-4.99,1.74,1.72,.73-2.62-1.15-2.3-1.46,1.73-.04,.05-53.73,4.59-.19-.53-4.12-5.16-9.04-16.09-1.08,11.96,5.15,6.58,3.31,3.76-9.47,.81,2.08-23.1-1.49-.04,2.4-4.93-.45-7.69-8.59-1.36-3.16,12.43,.51,1.29-5.71-.16-4.74,25.19-4.9,.42-.96-.81-5.57,1.21,.57-2.27,5.2-7.91,7.71-1.54,2.69-14.28-11.98,8.82-8.36,12.88-1.9,4.98h-.03v.08l-1,2.63,4.41,1.19-.85,5.91-6.24-2.65-5.43,25.77-3.21,8.02-3.09,1.16,.64,2.22,1.31-.5-5.92,14.78,2.28,.3-.35,1.14-9.27,21.47-2.26,5.65,8.59-.23-.41-5.43,11.71-20.59,8.6-13.44,8.35,14.14,1.73,4.07-8.41,2.4,.45,2.26,8.83-2.6,5.44,12.85v5.23l.49-.02-8.89,14.15v5.39l2.71,2.98,2.94-2.71-.22-5.65,13.33-16.58,1.05-1.79,3.24,1.19,2.85-11.56,2.88-4.9,3.97,4.86,2.96,6.18,2.28,.22,1.11,1.36-2.49,20.57,.65,3.16h13.14l-9.27-5.43,4.97-17.18-.72-1.76,1.85,.18-10.02-20.82,13.65-4.02,1.56,1.56,5.38-3.16-.26-.36,38.73-11.4,2.03,1.36,.21-2.71-1.57-2.03-1.1,1.98Zm-78.76,19.81l-.18-.26-.9,.36-4.28-11.03,5.18-4.22,1.83,10.55-1.65,4.61Zm10.02-36.96l-9.14,1.69-4.33-3.86,7.25-8.72,6.86,6.86-.64,4.03Zm-19.79-17.9l-.18-2.9,2.03-.19-1.85,3.09Zm-1.33,26.82l-2.26,.9-1.87-.45,1.18-2.3,3.24-2.64,5.87,2.75-6,2.26-.16-.51Zm2.39,30.27l-.71-1.98,3.05-.36-11.25-22.65,.2-.08h2.76l4.68-1.58-.36-1.15,7.89-3.04,2.19,1.03,9.39-3.84-.02,.14-3.77,4.88-7.53-.36-8.82,12.66,6.54,15.56-.66,.27,.88,2.21-3.81,1.09-.65-2.79Zm5.26,3.69l.58,1.45,.26-.09-2.97,8.29-1.98-8.44,4.11-1.21Zm22.72-8.7l-.66-1.37,1.48-10.78h.29l7.5,5.58,5,2.22-.71,.49,.14,.14-13.03,3.72Z"/></g><g><g><polygon class="h" points="99.6 79.96 88.07 67.3 69.08 65.72 59.59 87.42 71.34 87.42 80.17 76.8 90.1 86.74 99.6 79.96"/><polygon class="i" points="59.59 87.42 46.25 101.66 51.9 103.24 71.34 87.42 59.59 87.42"/><polygon class="i" points="99.6 79.96 94.4 105.27 88.07 106.13 90.1 86.74 99.6 79.96"/><polygon class="i" points="69.08 65.72 74.05 39.27 90.56 39.72 88.07 67.3 69.08 65.72"/><polygon class="f" points="74.05 39.27 81.97 43.34 81.06 49.67 82.87 49.89 84.23 43.56 90.56 39.72 74.05 39.27"/><g><polygon class="h" points="53.71 60.97 58.46 63 63.66 55.09 71.37 53.55 74.05 39.27 62.07 48.08 53.71 60.97"/><polygon class="h" points="99.6 55.81 90.56 39.72 89.48 51.68 94.62 58.26 98.02 62.1 103.72 60.97 99.6 55.81"/></g><polygon class="f" points="68.63 66.39 58.79 82.82 69.27 87.22 80.41 74.06 91.55 85.2 102.14 79.96 88.77 66.39 68.63 66.39"/><polygon class="g" points="51.9 103.24 46.25 101.66 42.86 104.37 42.86 111.5 46.7 111.15 51.9 103.24"/><polygon class="g" points="88.07 106.13 88.07 109.71 101.18 109.71 94.4 105.27 88.07 106.13"/><polygon class="g" points="82.42 25.7 91.01 27.06 91.46 34.75 87.62 42.66 80.16 40.4 79.25 38.14 82.42 25.7"/><g><polygon class="i" points="51.77 65.95 51.78 68.26 157.83 58.33 157.64 56.91 51.77 65.95"/><polygon class="i" points="177.23 55.67 161.58 55.61 160.29 57.43 177.23 55.67"/><polygon class="i" points="157.64 56.91 157.68 56.87 159.14 55.13 160.29 57.43 157.83 58.33 157.64 56.91"/><polygon class="i" points="177.23 55.67 162.09 58.93 160.29 57.43 177.23 55.67"/><polygon class="i" points="157.83 58.33 159.56 60.05 160.29 57.43 157.83 58.33"/></g><polygon class="f" points="98.92 65.04 98.02 62.1 103.72 60.97 105.2 65.04 98.92 65.04"/><polygon class="f" points="53.71 60.97 50.77 68.65 56.65 70.24 58.46 63 53.71 60.97"/></g><g><polygon class="g" points="25.03 147.48 22.77 153.13 31.36 152.9 30.95 147.48 25.03 147.48"/><g><g><polygon class="i" points="36.35 108.06 36.99 110.28 136.37 71.97 135.81 70.66 36.35 108.06"/><polygon class="i" points="154.32 64.15 139.24 68.33 138.5 70.44 154.32 64.15"/><polygon class="i" points="135.81 70.66 135.83 70.6 136.77 68.54 138.5 70.44 136.37 71.97 135.81 70.66"/><polygon class="i" points="154.32 64.15 140.63 71.4 138.5 70.44 154.32 64.15"/><polygon class="i" points="136.37 71.97 138.51 73.16 138.5 70.44 136.37 71.97"/></g><polygon class="i" points="42.66 98.87 48.08 73.11 68.88 81.92 58.71 101.81 42.66 98.87"/><polygon class="h" points="67.65 126.88 58.71 101.81 42.66 98.87 34.3 126 42.66 126.88 51.26 113.44 59.61 127.58 67.65 126.88"/><polygon class="i" points="34.3 126 25.03 147.48 30.95 147.48 42.66 126.88 34.3 126"/><polygon class="i" points="67.65 126.88 72.27 146.57 67.65 146.57 59.61 127.58 67.65 126.88"/><g><polygon class="h" points="89.45 87.12 77.25 89.38 68.88 81.92 64.03 91.41 76.11 97.07 91.03 90.96 89.45 87.12"/><polygon class="h" points="58.71 101.81 61.71 101.81 63 97.52 61.14 97.07 58.71 101.81"/></g><polygon class="f" points="89.45 87.12 93.07 84.41 97.12 87.46 91.03 90.96 89.45 87.12"/><polygon class="f" points="63 97.52 65.26 96.61 66.39 100.23 61.71 101.81 63 97.52"/><polygon class="g" points="67.65 146.57 67.65 151.8 72.95 151.54 72.27 146.57 67.65 146.57"/><polygon class="f" points="48.08 73.11 56.22 79.66 55.16 86.45 56.74 87.12 58.71 80.86 68.88 81.92 48.08 73.11"/><polygon class="f" points="42.66 98.87 32.37 124.56 40.92 125.7 51.05 111.52 60.16 125.7 70 124.55 58.71 101.81 42.66 98.87"/><polygon class="g" points="54.19 76.72 55.77 65.74 63.46 64.06 66.39 66.55 67.07 77.63 61.42 80.34 54.19 76.72"/></g></g><g><polygon class="i" points="74.18 97.89 97.91 99.02 94.97 120.5 78.02 120.04 74.18 97.89"/><g><polygon class="h" points="74.18 97.89 65.36 110.55 71.92 126.15 75.31 124.79 71.01 113.71 76.19 109.49 74.18 97.89"/><polygon class="h" points="107.18 110.1 97.91 99.02 96.48 109.52 104.24 115.3 110.34 118.01 113.96 114.62 107.18 110.1"/></g><polygon class="h" points="105.37 146.04 94.97 120.5 78.02 120.04 71.46 146.49 78.02 149.35 88.04 132.29 98.36 144.91 105.37 146.04"/><polygon class="i" points="71.46 146.49 59.26 165.93 64.69 165.93 78.02 149.35 71.46 146.49"/><polygon class="i" points="98.36 144.91 95.88 165.48 100.4 163.22 105.37 146.04 98.36 144.91"/><polygon class="g" points="59.26 165.93 59.26 171.32 61.97 174.3 64.91 171.58 64.69 165.93 59.26 165.93"/><polygon class="g" points="100.4 163.22 109.67 168.64 96.52 168.64 95.88 165.48 100.4 163.22"/><polygon class="f" points="74.18 97.89 84.8 100.83 87.06 108.06 89.4 108.06 89.1 101.06 97.91 99.02 74.18 97.89"/><polygon class="f" points="78.02 120.04 69.43 144.01 82.31 148.75 87.5 127.72 94.97 143.33 106.5 144.46 94.97 120.5 78.02 120.04"/><polygon class="g" points="85.48 93.37 87.06 83.42 91.7 81.47 98.59 87.72 98.59 95.78 94.52 99.93 81.64 98.34 85.48 93.37"/><g><polygon class="i" points="52.93 134.06 53.38 136.32 155.55 106.25 155.1 104.9 52.93 134.06"/><polygon class="i" points="174.09 99.93 158.72 102.86 157.8 104.9 174.09 99.93"/><polygon class="i" points="155.1 104.9 155.13 104.85 156.23 102.86 157.8 104.9 155.55 106.25 155.1 104.9"/><polygon class="i" points="174.09 99.93 159.85 106.03 157.8 104.9 174.09 99.93"/><polygon class="i" points="155.55 106.25 157.59 107.61 157.8 104.9 155.55 106.25"/></g><polygon class="f" points="108.52 118.01 114.26 114.05 117.08 118.01 111.7 121.17 108.52 118.01"/><polygon class="f" points="71.24 126.37 76.19 124.39 79.83 129.76 73.5 132.02 71.24 126.37"/></g></g></g></g><g id="e"/></svg>