<?xml version="1.0" encoding="UTF-8"?><svg xmlns="http://www.w3.org/2000/svg" viewBox="0 0 200 200"><defs><style>.f{fill:#e8cd7d;}.g{fill:#8d3866;}.h{fill:#db9951;}.i{fill:#361731;}</style></defs><g id="a"/><g id="b"><g><g><polygon class="g" points="159.55 106.66 155.92 102.13 144.67 107.13 154.79 114.38 158.19 112.56 159.55 106.66"/><polygon class="g" points="168.25 105.24 165.11 109.95 161.38 120.23 158.19 120.96 154.79 114.38 141.17 104.62 129 118.19 128.69 117.96 108.5 137.75 109.33 138.51 108.59 138.94 108.41 138.17 100.98 135.02 99.79 139.61 107.44 139.61 94.2 147.28 93.29 155 99.42 155.68 98.28 151.14 115.08 142.52 131.21 133.14 143.88 140.74 138.68 154.32 138.68 158.36 150.25 158.63 143.44 155.23 149.11 143.88 152.04 138.86 154.11 138.21 140.49 127.03 140.36 126.93 148.49 119.86 158.19 126.03 159.72 125.45 155.47 140.93 169.54 128.9 175.44 116.42 168.25 105.24"/><path class="g" d="M104.09,115.51l1.9-.67-13.88-11.82-1.36-3.54h0l1.22,3.16,20.51-10.23,1.93,.75,2.53,2.54-.69,1.92-1.15-.76-1.59,.23-.81,2.37,1.5,1.72,.69,.25-.12,.32-1.56,1.32,.95,2.27,2.23-.95-.57-1.94,.23-.61,.2,.07,8.62,2.27,11.56,5.78,4.78-5.33-12.25-4.08-11.35-2.04-.26-.17,.79-2.11,3.38-.33,2.76,1.06,.52-1.52-4.99-1.84,1.87-5.77,16.6-8.28,1.57-1.81-2-.33-15,6.82,10.51-32.44-.14-1.97-1.36,1.08-12.69,34.99-27.91,12.68,6.64-12.12-8.36-4.27h0l8.36,4.27-4.54-7.13,3.58-2.93,.48-8.14-4.79-2.87-5.51,1.94-1.34,8.43-9.43-.3-7.66,18.68,1.81,2.54-1.52,5.5-.98-.17-7.19,18.48-3.73-3.25,2.95-17.15,2.46-.18-1.14-7.5-3.19-2.84h0l-2.54-2.25,.37-1.48h1.26l.9-8.66-2.46-3.25h-6.21l-3.94,10.83h-5.81l-.11,3.53h0l.11-3.53h-3.92l20.81-46.08,.08-2.39-1.76,1.01-23.1,46.55-4.97-2.84-.97,1.36,4.06,2.39h0l-1.04-.61,.47,.61h-4.82v4.8l4.22,.98,1.17,.61-1.66,3.36-2.03,1.24,.86,2.92,2.78-.65-.45-2.45,1.88-3.7,2.97,1.55,5.07,2.96-.63,20.87h-.11l.08,.07-7.8,20.48,2.64,.72-1.41,5.79-2.17,14.08-1.08,4.33,1.08,1.08h5.41l-1.08-5.41,5.41-11.91,10.72-18.09,2.09,1.59,6.21,5.69-.3,5.9,.3-5.87-3.01,7.78,2.71,.4,3.51-2.32,.98-2.06,1.7,1.55,8.66,12.99v4.33l12.99,1.77v-1.77l-7.58-5.41-7.58-19.49-1.38-1.6,1.93-1.9-2.17-1.89,13-16.09,12.03,6.09,.48,7.66,1.22,13.89h3.57l3.83-14.85,.46-9.25Zm12.68-23.04l-2.55-.94,3.53-1.76-.98,2.7Zm-77.25-1.24l.03-.88h0l-.03,.88h0Z"/></g><g><g><g><polygon class="i" points="112.45 90.88 124.77 95.43 124.24 96.95 111.77 92.14 112.45 90.88"/><polygon class="i" points="115.78 102.43 118.11 96.22 121.49 95.88 114.39 93.15 116.92 95.69 114.74 101.73 115.78 102.43"/><polygon class="i" points="119.78 93.59 133.34 51.78 133.2 49.8 131.84 50.89 116.76 92.47 119.78 93.59"/><polygon class="i" points="116.35 104.38 115.78 102.43 114.74 101.73 113.18 103.05 114.13 105.32 116.35 104.38"/></g><g><g><polyline class="i" points="109.86 138.21 94.2 147.28 93.29 155 99.42 155.68 98.28 151.14 115.08 142.52 109.86 138.21"/><polygon class="i" points="154.79 114.38 141.17 104.62 125.29 122.32 137.31 129.58 154.79 114.38"/><polygon class="h" points="152.43 138.21 128.79 118.05 125.29 122.32 109.86 138.21 115.08 142.52 131.21 133.14 149.11 143.88 152.43 138.21"/><polygon class="i" points="152.43 138.21 149.11 143.88 143.44 155.23 138.68 154.32 146.71 133.33 152.43 138.21"/><polygon class="g" points="138.68 158.36 138.68 154.32 143.44 155.23 150.25 158.63 138.68 158.36"/><polygon class="g" points="144.67 107.13 155.92 102.13 159.55 106.66 158.19 112.56 154.79 114.38 144.67 107.13"/><polygon class="i" points="168.25 105.24 175.44 116.42 169.54 128.9 155.47 140.93 160.46 122.78 165.11 109.95 168.25 105.24"/></g><polygon class="g" points="93.29 155 99.42 155.68 98.28 151.14 94.2 147.28 93.29 155"/><polygon class="f" points="154.11 138.21 145.71 140.88 131.87 131.57 113.71 142.46 108.5 137.75 128.69 117.96 140.49 127.03 154.11 138.21"/><polygon class="f" points="154.79 114.38 148.49 112.93 142.99 116.65 142.16 115.97 146.39 111.43 141.17 104.62 154.79 114.38"/></g><polygon class="f" points="117.57 98.5 115.08 96.85 113.49 97.08 112.67 99.45 114.17 101.16 116.21 101.9 117.57 98.5"/></g><g><polygon class="g" points="61.95 141.53 58.44 143.84 55.72 143.44 58.74 135.66 58.44 141.53 61.95 141.53"/><g><polygon class="i" points="97.88 86.44 76.32 75.42 68.66 103.21 86.86 106.56 97.88 86.44"/><polygon class="f" points="97.88 86.44 91.17 75.9 76.32 75.42 86.21 80.48 82.61 91.23 83.97 91.91 89.52 82.17 97.88 86.44"/><polygon class="h" points="104.1 115.18 89.37 101.97 86.86 106.56 68.66 103.21 59.08 129.07 66.74 131.47 82.49 111.96 94.52 118.05 104.1 115.18"/><polygon class="g" points="87.1 67.3 85.42 77.82 91.65 80.69 96.92 76.38 97.4 68.24 92.61 65.36 87.1 67.3"/><polygon class="i" points="104.1 115.18 103.62 124.76 95 125.72 94.52 118.05 104.1 115.18"/><polygon class="i" points="103.62 124.76 99.79 139.61 96.23 139.61 95 125.72 103.62 124.76"/><polygon class="i" points="66.74 131.47 61.95 141.53 58.44 141.53 59.08 129.07 66.74 131.47"/><polygon class="g" points="99.79 139.61 108.73 139.61 108.41 138.17 100.98 135.02 99.79 139.61"/><polygon class="f" points="91.77 102.74 105.98 114.83 97.83 117.73 82.4 110.01 66.74 129.08 58.1 127.31 67.97 101.97 82.04 104.4 90.01 100.81 91.77 102.74"/><g><polygon class="i" points="88.45 93.55 94.33 108.81 92.63 109.62 86.84 93.99 88.45 93.55"/><polygon class="i" points="81.26 106.48 88.39 103.33 91.35 106.17 88.06 97.28 87.9 101.78 81.03 104.92 81.26 106.48"/><polygon class="i" points="91.95 102.64 138.25 79.53 139.82 77.73 137.83 77.4 90.51 98.89 91.95 102.64"/><polygon class="i" points="80.06 108.66 81.26 106.48 81.03 104.92 78.67 104.6 77.49 107.41 80.06 108.66"/></g><polygon class="f" points="89.28 103.7 88.32 99.93 83.09 102.8 85.93 106.63 89.28 103.7"/><polygon class="f" points="82.47 107.1 81.51 103.33 76.28 106.21 79.12 110.04 82.47 107.1"/></g></g><g><g><polygon class="i" points="39.72 84.71 52.72 84.71 61.32 92.37 57.05 117.2 38.75 117.2 39.72 84.71"/><polygon class="h" points="71.13 133.44 57.05 117.2 38.75 117.2 38.64 117.2 38.73 117.28 32.14 144.27 39.72 146.44 50.57 128.13 64.63 141.02 71.13 133.44"/><polygon class="i" points="73.29 154.02 78.71 152.93 71.13 133.44 64.63 141.02 73.29 154.02"/><polygon class="i" points="34.31 158.35 39.72 146.44 32.14 144.27 29.98 158.35 34.31 158.35"/><polygon class="g" points="78.71 152.93 86.29 158.35 86.29 160.11 73.29 158.35 73.29 154.02 78.71 152.93"/><polygon class="g" points="34.31 158.35 35.39 163.76 29.98 163.76 28.89 162.68 29.98 158.35 34.31 158.35"/><polygon class="h" points="39.72 84.71 24.56 84.71 24.56 89.52 39.46 92.97 39.72 84.71"/></g><polygon class="f" points="43.36 84.71 47.71 92.37 47.71 104.8 49.52 104.85 50.06 92.97 58.13 89.53 52.72 84.71 43.36 84.71"/><polygon class="f" points="71.67 129.95 57.05 117.2 38.75 117.2 30.92 137.75 40.65 140.42 49.62 127.72 63.34 138.15 71.67 129.95"/><g><polygon class="h" points="117.57 98.5 116.21 101.9 124.83 104.17 136.39 109.95 141.17 104.62 128.92 100.54 117.57 98.5"/><polygon class="h" points="158.19 120.96 154.79 114.38 148.49 119.86 158.19 126.03 165.68 123.23 166.13 119.15 158.19 120.96"/><polygon class="h" points="76.32 75.42 68.66 94.1 78.24 107.52 80.63 106.73 73.93 95.06 81.59 80.69 76.32 75.42"/><polygon class="h" points="58.13 90.61 48.38 94.46 36.47 90.13 34.31 93.38 47.3 100.96 62.46 99.87 61.32 92.37 58.13 90.61"/></g><polygon class="g" points="45.14 85.8 49.47 73.88 55.67 73.88 58.13 77.13 57.23 85.8 55.96 85.8 54.88 90.13 50.56 90.13 45.14 85.8"/><g><polygon class="i" points="26.87 80.96 41.07 89.07 40.26 90.78 25.9 82.32 26.87 80.96"/><polygon class="i" points="29.45 95.52 32.99 88.58 37.08 88.91 28.92 84.1 31.64 87.68 28.29 94.46 29.45 95.52"/><polygon class="i" points="35.32 85.79 56.62 38.63 56.69 36.24 54.94 37.24 31.84 83.8 35.32 85.79"/><polygon class="i" points="29.9 97.97 29.45 95.52 28.29 94.46 26.26 95.7 27.12 98.63 29.9 97.97"/></g><polygon class="f" points="28.08 90.13 31.06 84.71 36.47 90.13 34.31 93.38 28.08 90.13"/></g></g></g></g><g id="c"/><g id="d"/><g id="e"/></svg>