<?xml version="1.0" encoding="utf-8"?>
<!-- Generator: Adobe Illustrator 26.2.1, SVG Export Plug-In . SVG Version: 6.00 Build 0)  -->
<svg version="1.1" id="Layer_1" xmlns="http://www.w3.org/2000/svg" xmlns:xlink="http://www.w3.org/1999/xlink" x="0px" y="0px"
	 viewBox="0 0 1920 1080" enable-background="new 0 0 1920 1080" xml:space="preserve">
<g>
	<linearGradient id="SVGID_1_" gradientUnits="userSpaceOnUse" x1="0.4922" y1="539.8991" x2="1919.6055" y2="539.8991">
		<stop  offset="0" style="stop-color:#333F4C"/>
		<stop  offset="0.2212" style="stop-color:#222B34"/>
		<stop  offset="0.5258" style="stop-color:#0F1418"/>
		<stop  offset="0.7954" style="stop-color:#040708"/>
		<stop  offset="1" style="stop-color:#000202"/>
	</linearGradient>
	<rect x="0.5" y="-0.1" fill="url(#SVGID_1_)" width="1919.1" height="1080"/>
	<g>
		
			<linearGradient id="SVGID_00000049195206471790486280000007073644305805493950_" gradientUnits="userSpaceOnUse" x1="1.5341" y1="539.8991" x2="1919.6726" y2="539.8991">
			<stop  offset="0" style="stop-color:#F1FBFE"/>
			<stop  offset="0.1926" style="stop-color:#E1E9EC"/>
			<stop  offset="0.5785" style="stop-color:#B6BBBE"/>
			<stop  offset="1" style="stop-color:#818284"/>
		</linearGradient>
		<polygon fill="url(#SVGID_00000049195206471790486280000007073644305805493950_)" points="1918.7,1079.9 1.5,1079.9 1.5,-0.1 
			1919.7,-0.1 		"/>
		
			<linearGradient id="SVGID_00000111166115033968894570000009491482079490631839_" gradientUnits="userSpaceOnUse" x1="610.5009" y1="656.6222" x2="1248.2812" y2="656.6222">
			<stop  offset="0" style="stop-color:#949998"/>
			<stop  offset="0.5469" style="stop-color:#A4A9AA"/>
			<stop  offset="1" style="stop-color:#B4B9BC"/>
		</linearGradient>
		<polygon fill="url(#SVGID_00000111166115033968894570000009491482079490631839_)" points="610.5,449.4 855.7,406.9 896.8,449.4 
			940.7,428.1 1000.6,460.9 1009.6,549.9 1103.4,549.9 1126.4,624.9 1126.4,651 1160.4,657.9 1204.4,704.9 1248.3,906.3 		"/>
		
			<linearGradient id="SVGID_00000112601446380841619150000013623918658955177659_" gradientUnits="userSpaceOnUse" x1="1283.8635" y1="317.7014" x2="2012.3864" y2="738.3142">
			<stop  offset="0" style="stop-color:#68676C"/>
			<stop  offset="0.1213" style="stop-color:#5D5C62"/>
			<stop  offset="0.465" style="stop-color:#41414A"/>
			<stop  offset="0.7692" style="stop-color:#31313B"/>
			<stop  offset="1" style="stop-color:#2B2B36"/>
		</linearGradient>
		<polygon fill="url(#SVGID_00000112601446380841619150000013623918658955177659_)" points="1613.7,-0.1 1496.1,160.9 1506.1,267.9 
			1429.2,267.9 1397.2,316.9 1414.2,368.9 1337.2,428.9 1351.2,514.9 1418.2,604.9 1366.9,634 1201.4,639.9 1043.5,734 
			1083.5,886.9 1919.7,898.9 1919.7,-0.1 		"/>
		
			<linearGradient id="SVGID_00000102534814430838247240000017477881342337983897_" gradientUnits="userSpaceOnUse" x1="167.0266" y1="693.7864" x2="960.916" y2="235.4341">
			<stop  offset="0" style="stop-color:#3D4147"/>
			<stop  offset="0.1996" style="stop-color:#40454D"/>
			<stop  offset="0.4626" style="stop-color:#48515D"/>
			<stop  offset="0.7598" style="stop-color:#556479"/>
			<stop  offset="1" style="stop-color:#627794"/>
		</linearGradient>
		<polygon fill="url(#SVGID_00000102534814430838247240000017477881342337983897_)" points="497.6,-0.1 617.9,228 734.4,228 
			795.8,356.9 772.8,459.9 888.7,511.9 959.2,462.5 1043.5,497.5 1071.5,596.9 1043.5,657.9 1112.5,670.9 1130.4,730.9 
			1303.2,828.3 451.1,809.9 39.5,472.9 -0.3,344 -0.3,-0.1 		"/>
		<polyline fill="#97A097" points="-0.3,784.6 1080.2,809.9 1919.7,848.9 1919.7,1079.9 0.5,1079.9 -0.3,784.6 		"/>
		
			<linearGradient id="SVGID_00000053536192952320944350000011996704084485422245_" gradientUnits="userSpaceOnUse" x1="1169.9003" y1="961.8991" x2="1169.9003" y2="633.9868">
			<stop  offset="0" style="stop-color:#C6CDCB"/>
			<stop  offset="0.3454" style="stop-color:#CCD2CE"/>
			<stop  offset="0.7997" style="stop-color:#DCE2D7"/>
			<stop  offset="1" style="stop-color:#E6EBDC"/>
		</linearGradient>
		<polygon fill="url(#SVGID_00000053536192952320944350000011996704084485422245_)" points="468.1,758.9 420.1,691.9 468.1,634 
			579,663.9 603.3,758.9 621.2,696.4 663.8,696.4 703.7,717.9 724.4,758.9 710.8,687.9 757.8,652.9 810.7,652.9 919.8,717.9 
			901.9,758.9 949.6,702.9 1000.6,679.9 1091.8,717.9 1067,784.6 1101.5,763.9 1171.6,784.6 1193.4,826.9 1219.4,769.9 
			1257.3,790.9 1316.3,742.9 1409.2,747.9 1416.2,834.9 1482.1,742.9 1605,753.9 1616,803.9 1622,848.9 1696.9,794.9 1783.8,814.9 
			1797.7,848.9 1919.7,878.9 1919.7,961.9 451.1,840.4 		"/>
		
			<linearGradient id="SVGID_00000047047950150534668550000002610159070379436446_" gradientUnits="userSpaceOnUse" x1="1248.2812" y1="961.7986" x2="1248.2812" y2="657.8991">
			<stop  offset="0" style="stop-color:#858D98"/>
			<stop  offset="0.3388" style="stop-color:#87909E"/>
			<stop  offset="0.7844" style="stop-color:#8E99AE"/>
			<stop  offset="1" style="stop-color:#929EB9"/>
		</linearGradient>
		<polygon fill="url(#SVGID_00000047047950150534668550000002610159070379436446_)" points="642.3,797.9 617.9,751.9 659.3,717.9 
			682.9,723.9 682.9,757.9 700.9,770.9 677.9,689.9 731.8,657.9 794.8,678.9 801.3,727.9 835.7,695.9 872.7,734.9 872.7,765.9 
			896.7,773.9 884.7,708.9 959.2,677.8 998.9,727.9 998.9,776.7 1043.5,797.9 1097.5,750.9 1151.8,797.9 1169.4,752 1207.4,727.9 
			1252.3,771.9 1232.1,818.4 1307.7,784.6 1361.7,818.4 1386.2,850.9 1425,797.9 1474.4,797.9 1508.4,826.2 1496.1,850.9 
			1539,803.9 1569,821.9 1562.8,850.9 1600,836.6 1670.9,872.9 1878.6,961.8 		"/>
		
			<linearGradient id="SVGID_00000161627622872479894820000004388927372334062229_" gradientUnits="userSpaceOnUse" x1="-0.3274" y1="899.0734" x2="1919.6726" y2="899.0734">
			<stop  offset="0" style="stop-color:#A8AD9E"/>
			<stop  offset="0.2285" style="stop-color:#AEB3A4"/>
			<stop  offset="0.5296" style="stop-color:#BEC3B4"/>
			<stop  offset="0.8699" style="stop-color:#DADFD0"/>
			<stop  offset="1" style="stop-color:#E6EBDC"/>
		</linearGradient>
		<polygon fill="url(#SVGID_00000161627622872479894820000004388927372334062229_)" points="-0.3,718.2 1919.7,924.9 1919.7,1079.9 
			-0.3,1070 		"/>
		
			<linearGradient id="SVGID_00000049906967020053941230000015990234566423469188_" gradientUnits="userSpaceOnUse" x1="-0.3274" y1="862.8991" x2="1919.6726" y2="862.8991">
			<stop  offset="0" style="stop-color:#354345"/>
			<stop  offset="0.2613" style="stop-color:#3A494A"/>
			<stop  offset="0.6057" style="stop-color:#48595A"/>
			<stop  offset="0.9951" style="stop-color:#607573"/>
			<stop  offset="1" style="stop-color:#607573"/>
		</linearGradient>
		<polygon fill="url(#SVGID_00000049906967020053941230000015990234566423469188_)" points="1,717.9 -0.3,980.8 157.4,980.9 
			363.3,980.9 400.1,983.9 703,980.9 1085.8,980.9 1319.3,997.9 1490.1,997.9 1919.7,1007.9 1919.7,924.9 		"/>
		<polygon fill="#5A6467" points="-0.3,1022.4 319.2,1059.9 633,1042.8 818,1079.9 -0.3,1079.9 		"/>
		
			<linearGradient id="SVGID_00000155129345635780992430000010013602766481082252_" gradientUnits="userSpaceOnUse" x1="-0.3274" y1="497.6652" x2="1043.5228" y2="497.6652">
			<stop  offset="0" style="stop-color:#333F4C"/>
			<stop  offset="0.2212" style="stop-color:#222B34"/>
			<stop  offset="0.5258" style="stop-color:#0F1418"/>
			<stop  offset="0.7954" style="stop-color:#040708"/>
			<stop  offset="1" style="stop-color:#000202"/>
		</linearGradient>
		<polygon fill="url(#SVGID_00000155129345635780992430000010013602766481082252_)" points="-0.3,50.4 201.3,282.9 236.3,439.9 
			423.1,492.9 438.1,639.9 553,671.9 536,760.9 618.9,871.9 683.3,808 756.8,830.9 822.5,871.9 1017.8,898.9 1043.5,913.9 
			1043.5,931.6 613.6,931.6 387.2,944.9 300.2,931.9 -0.3,930.2 		"/>
		
			<linearGradient id="SVGID_00000137826353666061808280000012224203746710653878_" gradientUnits="userSpaceOnUse" x1="150.4579" y1="980.8991" x2="150.4579" y2="809.8991">
			<stop  offset="0" style="stop-color:#15191E"/>
			<stop  offset="5.169499e-02" style="stop-color:#191D22"/>
			<stop  offset="0.4227" style="stop-color:#2F393C"/>
			<stop  offset="0.7509" style="stop-color:#3C494B"/>
			<stop  offset="1" style="stop-color:#414F51"/>
		</linearGradient>
		<polygon fill="url(#SVGID_00000137826353666061808280000012224203746710653878_)" points="-0.3,847.1 75.5,809.9 188.6,846.9 
			234.3,885.9 255.3,905.9 301.2,917.9 301.2,965.8 157.4,980.9 -0.3,971.9 		"/>
		
			<linearGradient id="SVGID_00000000902770459142456710000010104284841156139704_" gradientUnits="userSpaceOnUse" x1="395.6516" y1="980.8991" x2="395.6516" y2="924.8991">
			<stop  offset="0" style="stop-color:#15191E"/>
			<stop  offset="5.169499e-02" style="stop-color:#191D22"/>
			<stop  offset="0.4227" style="stop-color:#2F393C"/>
			<stop  offset="0.7509" style="stop-color:#3C494B"/>
			<stop  offset="1" style="stop-color:#414F51"/>
		</linearGradient>
		<polygon fill="url(#SVGID_00000000902770459142456710000010104284841156139704_)" points="340.2,967.9 370.2,933.9 412.1,924.9 
			444.4,941.5 451.1,960.9 439.1,972.9 363.3,980.9 		"/>
	</g>
	
		<linearGradient id="SVGID_00000072259100562045672790000000359724331937069978_" gradientUnits="userSpaceOnUse" x1="1732.0581" y1="976.2186" x2="1463.1249" y2="882.4466">
		<stop  offset="0" style="stop-color:#4A5C5C"/>
		<stop  offset="1" style="stop-color:#3A494B"/>
	</linearGradient>
	<polygon opacity="0.22" fill="url(#SVGID_00000072259100562045672790000000359724331937069978_)" points="1456.6,920.9 
		1743.2,944.3 1743.2,939.4 1451.8,915 	"/>
	
		<linearGradient id="SVGID_00000031207151267483998800000011255550349796330417_" gradientUnits="userSpaceOnUse" x1="1828.8376" y1="1014.093" x2="1655.0619" y2="953.5006" gradientTransform="matrix(1.0104 0 0 -0.6394 -16.9056 1612.3262)">
		<stop  offset="0" style="stop-color:#4A5C5C"/>
		<stop  offset="1" style="stop-color:#3A494B"/>
	</linearGradient>
	<polygon opacity="0.22" fill="url(#SVGID_00000031207151267483998800000011255550349796330417_)" points="1643.4,976 1822.5,986.2 
		1830.5,984.6 1842.6,985.2 1839.1,987.6 1842.6,990.7 1825.8,990.7 1821.4,988.2 1641.1,977 	"/>
	
		<linearGradient id="SVGID_00000172409374468402959570000011333408725931877802_" gradientUnits="userSpaceOnUse" x1="1851.7263" y1="1087.3651" x2="1677.9506" y2="1026.7727" gradientTransform="matrix(1.0104 0 0 -0.6394 -16.9056 1612.3262)">
		<stop  offset="0" style="stop-color:#4A5C5C"/>
		<stop  offset="1" style="stop-color:#3A494B"/>
	</linearGradient>
	<polygon opacity="0.22" fill="url(#SVGID_00000172409374468402959570000011333408725931877802_)" points="1666.2,928.7 
		1845.9,939.8 1853.9,938.2 1866,938.9 1862.5,941.2 1866,944.3 1849.2,944.3 1844.7,941.9 1664.5,930.6 	"/>
	
		<linearGradient id="SVGID_00000163754103521634465760000003078479257416255896_" gradientUnits="userSpaceOnUse" x1="1800.5724" y1="1007.2637" x2="1626.7966" y2="946.6713" gradientTransform="matrix(1.0104 0 0 -0.6394 -16.9056 1612.3262)">
		<stop  offset="0" style="stop-color:#4A5C5C"/>
		<stop  offset="1" style="stop-color:#3A494B"/>
	</linearGradient>
	<polygon opacity="0.22" fill="url(#SVGID_00000163754103521634465760000003078479257416255896_)" points="1614.8,980.4 
		1793.9,990.5 1802,989 1814,989.6 1810.5,992 1814,995 1797.2,995 1792.8,992.6 1612.6,981.4 	"/>
	
		<linearGradient id="SVGID_00000062170212447519151800000009633419850330555273_" gradientUnits="userSpaceOnUse" x1="585.7383" y1="789.2821" x2="585.7383" y2="606.695" gradientTransform="matrix(0.9387 -0.3448 0.3448 0.9387 -204.1587 242.9788)">
		<stop  offset="0" style="stop-color:#354345"/>
		<stop  offset="0.2613" style="stop-color:#3A494A"/>
		<stop  offset="0.6057" style="stop-color:#48595A"/>
		<stop  offset="0.9951" style="stop-color:#607573"/>
		<stop  offset="1" style="stop-color:#607573"/>
	</linearGradient>
	<polygon fill="url(#SVGID_00000062170212447519151800000009633419850330555273_)" points="577.5,602.2 589.6,789.1 596.8,789.6 
		582.1,600.5 	"/>
	
		<linearGradient id="SVGID_00000084493906180136582090000007604789070023761087_" gradientUnits="userSpaceOnUse" x1="525.2749" y1="339.8786" x2="525.2749" y2="157.3492" gradientTransform="matrix(0.865 0.5018 -0.5018 0.865 -40.2358 -29.4067)">
		<stop  offset="0" style="stop-color:#242D36"/>
		<stop  offset="0.4948" style="stop-color:#202830"/>
		<stop  offset="1" style="stop-color:#181F24"/>
	</linearGradient>
	<polygon fill="url(#SVGID_00000084493906180136582090000007604789070023761087_)" points="356,382.4 220.1,511.1 224.2,516.9 
		360.2,384.8 	"/>
	
		<linearGradient id="SVGID_00000165199091240506233630000012685045700754940549_" gradientUnits="userSpaceOnUse" x1="1794.7778" y1="68.4338" x2="1794.7778" y2="-114.1067" gradientTransform="matrix(1.0085 0.3978 -0.8244 1.0987 -274.7808 140.481)">
		<stop  offset="0" style="stop-color:#516362"/>
		<stop  offset="0.5713" style="stop-color:#39454C"/>
		<stop  offset="0.8552" style="stop-color:#2B3540"/>
	</linearGradient>
	<polygon fill="url(#SVGID_00000165199091240506233630000012685045700754940549_)" points="1653.5,738.7 1452,915 1456.2,920.8 
		1658.4,740.7 	"/>
	
		<linearGradient id="SVGID_00000138538237565944522050000017242700026126644867_" gradientUnits="userSpaceOnUse" x1="543.1707" y1="651.8644" x2="543.1707" y2="354.8369" gradientTransform="matrix(0.9948 0.1019 -0.1019 0.9948 -304.6195 190.4857)">
		<stop  offset="0" style="stop-color:#343F42"/>
		<stop  offset="0.3454" style="stop-color:#2F393D"/>
		<stop  offset="0.7997" style="stop-color:#20292D"/>
		<stop  offset="1" style="stop-color:#181F24"/>
	</linearGradient>
	<polygon fill="url(#SVGID_00000138538237565944522050000017242700026126644867_)" points="238.6,602.8 123,884.8 133.1,890.6 
		246.4,603.7 	"/>
	
		<linearGradient id="SVGID_00000089544934904217869180000012116108415489534864_" gradientUnits="userSpaceOnUse" x1="673.2271" y1="257.9414" x2="673.2271" y2="75.5277" gradientTransform="matrix(0.1261 0.992 -0.992 0.1261 569.2296 -123.8614)">
		<stop  offset="0" style="stop-color:#192026"/>
		<stop  offset="1" style="stop-color:#181F24"/>
	</linearGradient>
	<polygon fill="url(#SVGID_00000089544934904217869180000012116108415489534864_)" points="582.2,577.5 397.5,547.4 395.4,554.3 
		582.8,582.2 	"/>
	
		<linearGradient id="SVGID_00000112633732800710459200000000832316202256251803_" gradientUnits="userSpaceOnUse" x1="-14.5206" y1="347.4659" x2="-14.5206" y2="489.5475" gradientTransform="matrix(0.9021 0.4316 -0.4316 0.9021 264.9626 -134.599)">
		<stop  offset="0" style="stop-color:#000202"/>
		<stop  offset="0.4345" style="stop-color:#141A20"/>
		<stop  offset="1" style="stop-color:#333F4C"/>
	</linearGradient>
	<polygon fill="url(#SVGID_00000112633732800710459200000000832316202256251803_)" points="47.4,288.3 97.5,181.4 98.6,180.4 
		102.2,172.7 100.3,173.4 99.1,171.2 95.4,178.9 95.9,180.9 45.2,287.3 41.1,291.8 40.7,300.8 47.7,293.7 	"/>
	
		<linearGradient id="SVGID_00000003071383191471773900000009927282444572612258_" gradientUnits="userSpaceOnUse" x1="15.0834" y1="323.9785" x2="15.0834" y2="466.029" gradientTransform="matrix(0.765 0.6441 -0.6441 0.765 354.0713 -75.2153)">
		<stop  offset="0" style="stop-color:#000202"/>
		<stop  offset="0.4345" style="stop-color:#141A20"/>
		<stop  offset="1" style="stop-color:#333F4C"/>
	</linearGradient>
	<polygon fill="url(#SVGID_00000003071383191471773900000009927282444572612258_)" points="75.2,280.7 150.5,189.8 151.8,189.1 
		157.2,182.6 155.1,182.8 154.6,180.3 149.1,186.8 149,188.9 73.3,279.2 68.2,282.5 65.5,291.1 74.1,286 	"/>
	
		<linearGradient id="SVGID_00000103247156835353550920000008629086111080593551_" gradientUnits="userSpaceOnUse" x1="249.8722" y1="540.7883" x2="249.8722" y2="682.8388" gradientTransform="matrix(0.765 0.6441 -0.6441 0.765 354.0713 -75.2153)">
		<stop  offset="0" style="stop-color:#000202"/>
		<stop  offset="0.4349" style="stop-color:#141A20"/>
		<stop  offset="0.8552" style="stop-color:#2B3540"/>
	</linearGradient>
	<polygon fill="url(#SVGID_00000103247156835353550920000008629086111080593551_)" points="115.2,597.8 190.4,506.8 191.7,506.1 
		197.2,499.6 195.1,499.8 194.5,497.4 189.1,503.9 189,506 113.3,596.3 108.1,599.6 105.5,608.1 114,603.1 	"/>
	
		<linearGradient id="SVGID_00000034777877828825546900000008828024659553734795_" gradientUnits="userSpaceOnUse" x1="276.0475" y1="479.7553" x2="276.0475" y2="621.7405" gradientTransform="matrix(0.3391 0.9408 -0.9408 0.3391 647.7937 119.5488)">
		<stop  offset="0" style="stop-color:#000202"/>
		<stop  offset="0.4414" style="stop-color:#141A20"/>
		<stop  offset="0.8552" style="stop-color:#2A343F"/>
	</linearGradient>
	<polygon fill="url(#SVGID_00000034777877828825546900000008828024659553734795_)" points="170.1,586 280.7,545.1 282.2,545.2 
		290.2,542.3 288.3,541.4 289,539 281,541.9 279.9,543.6 169.2,583.8 163.1,584.1 156.5,590.1 166.4,590 	"/>
	
		<linearGradient id="SVGID_00000124867684689691389160000010962392265037042333_" gradientUnits="userSpaceOnUse" x1="200.4182" y1="578.3099" x2="200.4182" y2="720.4033" gradientTransform="matrix(0.949 0.3152 -0.3152 0.949 129.5811 -164.1907)">
		<stop  offset="0" style="stop-color:#000202"/>
		<stop  offset="0.4349" style="stop-color:#141A20"/>
		<stop  offset="0.8552" style="stop-color:#2B3540"/>
	</linearGradient>
	<polygon fill="url(#SVGID_00000124867684689691389160000010962392265037042333_)" points="97.9,569.5 134.2,457.1 135.2,456 
		137.9,447.9 136,448.9 134.6,446.8 131.9,454.9 132.5,456.9 95.6,568.8 92.1,573.8 92.8,582.7 98.8,574.8 	"/>
	
		<linearGradient id="SVGID_00000046303464859680610000000009905466579544430494_" gradientUnits="userSpaceOnUse" x1="1609.7123" y1="-112.13" x2="1609.7123" y2="29.9737" gradientTransform="matrix(0.9906 -0.1369 0.1369 0.9906 44.7615 1171.4865)">
		<stop  offset="0.1448" style="stop-color:#2B3540"/>
		<stop  offset="0.4981" style="stop-color:#3F4C52"/>
		<stop  offset="1" style="stop-color:#586A69"/>
	</linearGradient>
	<polygon fill="url(#SVGID_00000046303464859680610000000009905466579544430494_)" points="1642.3,966.7 1625.2,849.8 1625.6,848.4 
		1624.4,840 1623.1,841.6 1621,840.4 1622.1,848.8 1623.6,850.3 1639.9,967 1639,973.1 1643.5,980.8 1645.5,971 	"/>
	
		<linearGradient id="SVGID_00000043421280780606811400000012527146032471154060_" gradientUnits="userSpaceOnUse" x1="1125.443" y1="-766.944" x2="1125.443" y2="-624.8565" gradientTransform="matrix(0.9258 0.3781 -0.3781 0.9258 386.0903 1083.7339)">
		<stop  offset="0.1448" style="stop-color:#2B3540"/>
		<stop  offset="0.4981" style="stop-color:#3F4C52"/>
		<stop  offset="1" style="stop-color:#586A69"/>
	</linearGradient>
	<polygon fill="url(#SVGID_00000043421280780606811400000012527146032471154060_)" points="1670.4,918 1714.1,808.3 1715.1,807.2 
		1718.3,799.4 1716.4,800.2 1715.1,798 1711.9,805.9 1712.4,807.9 1668.1,917.1 1664.2,921.9 1664.3,930.8 1670.9,923.4 	"/>
	
		<linearGradient id="SVGID_00000114042300746776840860000011483522061728564620_" gradientUnits="userSpaceOnUse" x1="1705.3376" y1="475.1299" x2="1705.3376" y2="617.2027" gradientTransform="matrix(0.8696 -0.4938 0.4938 0.8696 -171.6373 1278.6503)">
		<stop  offset="0.1448" style="stop-color:#2B3540"/>
		<stop  offset="0.4981" style="stop-color:#3F4C52"/>
		<stop  offset="1" style="stop-color:#586A69"/>
	</linearGradient>
	<polygon fill="url(#SVGID_00000114042300746776840860000011483522061728564620_)" points="1609.8,960.5 1550.7,858.3 1550.5,856.8 
		1546.3,849.4 1545.8,851.5 1543.3,851.2 1547.5,858.5 1549.4,859.4 1607.7,961.8 1609.1,967.7 1616.1,973.2 1614.3,963.4 	"/>
	
		<linearGradient id="SVGID_00000127045304380254076380000004562453676473282227_" gradientUnits="userSpaceOnUse" x1="167.5838" y1="390.9278" x2="167.5838" y2="532.9283" gradientTransform="matrix(0.4732 0.8809 -0.8809 0.4732 510.9282 26.5267)">
		<stop  offset="0" style="stop-color:#000202"/>
		<stop  offset="0.4481" style="stop-color:#141B20"/>
		<stop  offset="0.8552" style="stop-color:#29343E"/>
	</linearGradient>
	<polygon fill="url(#SVGID_00000127045304380254076380000004562453676473282227_)" points="133.6,420.4 237.1,363.7 238.6,363.5 
		246,359.5 244,358.9 244.4,356.4 236.9,360.4 236.1,362.3 132.4,418.3 126.4,419.5 120.8,426.4 130.6,424.9 	"/>
	
		<linearGradient id="SVGID_00000082329836207492230130000003942847738875965628_" gradientUnits="userSpaceOnUse" x1="131.6892" y1="392.1557" x2="131.6892" y2="534.1247" gradientTransform="matrix(5.665752e-02 0.9984 -0.9984 5.665752e-02 710.3583 247.2727)">
		<stop  offset="0" style="stop-color:#000202"/>
		<stop  offset="0.4852" style="stop-color:#141B20"/>
		<stop  offset="0.8552" style="stop-color:#263039"/>
	</linearGradient>
	<polygon fill="url(#SVGID_00000082329836207492230130000003942847738875965628_)" points="198.7,409 316.5,401.4 317.9,401.9 
		326.3,401.4 324.7,400 326.1,397.9 317.7,398.4 316.1,399.7 198.5,406.6 192.6,405.2 184.6,409.1 194.1,411.8 	"/>
	
		<linearGradient id="SVGID_00000105417412078543800760000013316972400700316600_" gradientUnits="userSpaceOnUse" x1="179.1306" y1="406.6781" x2="179.1306" y2="548.7178" gradientTransform="matrix(0.7118 0.7024 -0.7024 0.7118 355.2686 -111.5716)">
		<stop  offset="0" style="stop-color:#000202"/>
		<stop  offset="0.4414" style="stop-color:#141A20"/>
		<stop  offset="0.8552" style="stop-color:#2A343F"/>
	</linearGradient>
	<polygon fill="url(#SVGID_00000105417412078543800760000013316972400700316600_)" points="107.9,395.3 190.1,310.6 191.5,310 
		197.4,304 195.3,304 194.9,301.5 189,307.6 188.7,309.6 106.1,393.7 100.8,396.6 97.4,404.9 106.4,400.5 	"/>
	
		<linearGradient id="SVGID_00000159432844556592545930000002431754357236775845_" gradientUnits="userSpaceOnUse" x1="-17.6578" y1="293.1713" x2="-17.6578" y2="421.6289" gradientTransform="matrix(0.9988 -4.931778e-02 4.931778e-02 0.9988 43.041 -170.5214)">
		<stop  offset="0" style="stop-color:#000202"/>
		<stop  offset="0.4345" style="stop-color:#141A20"/>
		<stop  offset="1" style="stop-color:#333F4C"/>
	</linearGradient>
	<polygon fill="url(#SVGID_00000159432844556592545930000002431754357236775845_)" points="46.3,238.7 40.2,132.1 40.6,130.8 
		40.3,123.1 39,124.6 37.1,123.3 37.5,131 38.7,132.4 44.1,238.8 42.8,244.2 46.3,251.5 48.8,242.8 	"/>
	
		<linearGradient id="SVGID_00000182513345188073575630000016912258669249775266_" gradientUnits="userSpaceOnUse" x1="-6.2142" y1="274.86" x2="-6.2142" y2="403.3133" gradientTransform="matrix(0.9792 0.2028 -0.2028 0.9792 149.6691 -160.6604)">
		<stop  offset="0" style="stop-color:#000202"/>
		<stop  offset="0.4345" style="stop-color:#141A20"/>
		<stop  offset="1" style="stop-color:#333F4C"/>
	</linearGradient>
	<polygon fill="url(#SVGID_00000182513345188073575630000016912258669249775266_)" points="65.1,220.6 85.9,115.9 86.7,114.8 
		88.2,107.3 86.6,108.4 85.1,106.7 83.6,114.2 84.4,115.9 63,220.3 60.3,225.1 61.9,233 66.5,225.3 	"/>
	
		<linearGradient id="SVGID_00000134960121728128513160000011095230068533444238_" gradientUnits="userSpaceOnUse" x1="694.0149" y1="668.4897" x2="694.0149" y2="810.5872" gradientTransform="matrix(0.9649 0.2627 -0.2627 0.9649 95.8945 -65.1041)">
		<stop  offset="0" style="stop-color:#000202"/>
		<stop  offset="1" style="stop-color:#0F151A"/>
	</linearGradient>
	<polygon fill="url(#SVGID_00000134960121728128513160000011095230068533444238_)" points="557.1,885.9 587.2,771.7 588.1,770.5 
		590.3,762.3 588.5,763.4 586.9,761.4 584.7,769.6 585.5,771.5 554.7,885.3 551.5,890.5 552.7,899.4 558.3,891.2 	"/>
	
		<linearGradient id="SVGID_00000079486853842031079680000001726199905655913131_" gradientUnits="userSpaceOnUse" x1="780.242" y1="456.4349" x2="780.242" y2="598.4854" gradientTransform="matrix(0.765 0.6441 -0.6441 0.765 354.0713 -75.2153)">
		<stop  offset="0" style="stop-color:#000202"/>
		<stop  offset="1" style="stop-color:#0F1317"/>
	</linearGradient>
	<polygon fill="url(#SVGID_00000079486853842031079680000001726199905655913131_)" points="575.2,874.9 650.5,783.9 651.8,783.2 
		657.2,776.7 655.1,776.9 654.6,774.5 649.1,781 649,783 573.3,873.3 568.2,876.7 565.5,885.2 574.1,880.1 	"/>
	
		<linearGradient id="SVGID_00000043448687297034303130000006392969550257068723_" gradientUnits="userSpaceOnUse" x1="1003.2142" y1="283.7458" x2="1003.2142" y2="353.5194" gradientTransform="matrix(0.9743 0.2254 -0.2254 0.9743 29.574 254.8824)">
		<stop  offset="0" style="stop-color:#5E7371"/>
		<stop  offset="0.1197" style="stop-color:#5A6F6D"/>
		<stop  offset="1" style="stop-color:#415152"/>
	</linearGradient>
	<polygon fill="url(#SVGID_00000043448687297034303130000006392969550257068723_)" points="929.2,818.8 941.8,762.2 942.3,761.6 
		943.2,757.5 942.3,758.1 941.5,757.1 940.6,761.2 941,762.1 928.1,818.5 926.6,821.1 927.3,825.5 929.9,821.3 	"/>
	
		<linearGradient id="SVGID_00000135678912615915732600000013276649229540993436_" gradientUnits="userSpaceOnUse" x1="997.8406" y1="287.8288" x2="997.8406" y2="357.6039" gradientTransform="matrix(0.9862 0.1655 -0.1655 0.9862 -1.3989 307.1119)">
		<stop  offset="0" style="stop-color:#5E7371"/>
		<stop  offset="0.1197" style="stop-color:#5A6F6D"/>
		<stop  offset="1" style="stop-color:#415152"/>
	</linearGradient>
	<polygon fill="url(#SVGID_00000135678912615915732600000013276649229540993436_)" points="925.1,818.1 934.2,760.8 934.6,760.2 
		935.3,756.1 934.4,756.7 933.6,755.8 932.9,759.9 933.4,760.8 923.9,817.9 922.6,820.6 923.6,824.9 925.9,820.6 	"/>
	
		<linearGradient id="SVGID_00000020370703528282203020000014383574095988847504_" gradientUnits="userSpaceOnUse" x1="793.0024" y1="275.9006" x2="793.0024" y2="345.6774" gradientTransform="matrix(1 0 0 1 -71.318 456.2758)">
		<stop  offset="0" style="stop-color:#415152"/>
		<stop  offset="1" style="stop-color:#3D4B4D"/>
	</linearGradient>
	<polygon fill="url(#SVGID_00000020370703528282203020000014383574095988847504_)" points="722.1,795 721.6,737 721.9,736.3 
		721.9,732.2 721.2,732.9 720.2,732.2 720.2,736.3 720.8,737.2 720.9,795 720,797.9 721.7,802 723.3,797.3 	"/>
	
		<linearGradient id="SVGID_00000145021911320972091800000001019026467251250092_" gradientUnits="userSpaceOnUse" x1="854.6299" y1="303.1034" x2="854.6299" y2="372.877" gradientTransform="matrix(0.9743 0.2254 -0.2254 0.9743 29.574 254.8824)">
		<stop  offset="0" style="stop-color:#415152"/>
		<stop  offset="1" style="stop-color:#3D4B4D"/>
	</linearGradient>
	<polygon fill="url(#SVGID_00000145021911320972091800000001019026467251250092_)" points="780.1,804.1 792.7,747.5 793.1,746.9 
		794.1,742.9 793.2,743.4 792.4,742.5 791.5,746.5 791.9,747.5 779,803.9 777.5,806.5 778.2,810.8 780.8,806.7 	"/>
	
		<linearGradient id="SVGID_00000021841976426026018510000012008690996217989797_" gradientUnits="userSpaceOnUse" x1="848.3511" y1="298.0699" x2="848.3511" y2="367.845" gradientTransform="matrix(0.9862 0.1655 -0.1655 0.9862 -1.3989 307.1119)">
		<stop  offset="0" style="stop-color:#415152"/>
		<stop  offset="1" style="stop-color:#3D4B4D"/>
	</linearGradient>
	<polygon fill="url(#SVGID_00000021841976426026018510000012008690996217989797_)" points="776,803.5 785.1,746.2 785.5,745.6 
		786.1,741.5 785.3,742.1 784.5,741.2 783.8,745.3 784.2,746.2 774.8,803.3 773.4,806 774.4,810.3 776.8,806 	"/>
	
		<linearGradient id="SVGID_00000112624535479113376510000002731027244175470258_" gradientUnits="userSpaceOnUse" x1="671.1694" y1="274.925" x2="671.1694" y2="344.7018" gradientTransform="matrix(1 0 0 1 -71.318 456.2758)">
		<stop  offset="0" style="stop-color:#415152"/>
		<stop  offset="1" style="stop-color:#3D4B4D"/>
	</linearGradient>
	<polygon fill="url(#SVGID_00000112624535479113376510000002731027244175470258_)" points="600.3,794 599.8,736 600.1,735.4 
		600.1,731.2 599.3,731.9 598.4,731.2 598.4,735.4 599,736.2 599.1,794.1 598.2,796.9 599.9,801 601.5,796.4 	"/>
	
		<linearGradient id="SVGID_00000166661040968203222590000016637532079223161276_" gradientUnits="userSpaceOnUse" x1="1084.1382" y1="239.9876" x2="1084.1382" y2="309.7612" gradientTransform="matrix(-0.9743 0.2254 0.2254 0.9743 1663.8866 254.8824)">
		<stop  offset="0" style="stop-color:#415152"/>
		<stop  offset="1" style="stop-color:#3D4B4D"/>
	</linearGradient>
	<polygon fill="url(#SVGID_00000166661040968203222590000016637532079223161276_)" points="675.5,794.4 662.9,737.8 662.5,737.2 
		661.6,733.1 662.4,733.7 663.2,732.7 664.2,736.8 663.7,737.7 676.7,794.1 678.2,796.7 677.4,801.1 674.8,796.9 	"/>
	
		<linearGradient id="SVGID_00000088105192645649231860000001186668217189689219_" gradientUnits="userSpaceOnUse" x1="915.9852" y1="300.5724" x2="915.9852" y2="370.3475" gradientTransform="matrix(-0.9862 0.1655 0.1655 0.9862 1694.8596 307.1119)">
		<stop  offset="0" style="stop-color:#5E7371"/>
		<stop  offset="0.1197" style="stop-color:#5A6F6D"/>
		<stop  offset="1" style="stop-color:#415152"/>
	</linearGradient>
	<polygon fill="url(#SVGID_00000088105192645649231860000001186668217189689219_)" points="851.2,817.1 842.1,759.9 841.7,759.2 
		841,755.1 841.9,755.7 842.7,754.8 843.4,759 842.9,759.9 852.4,817 853.7,819.6 852.7,823.9 850.4,819.6 	"/>
	
		<linearGradient id="SVGID_00000173848044412018946390000017925677837252695184_" gradientUnits="userSpaceOnUse" x1="1129.2721" y1="270.047" x2="1129.2721" y2="339.8237" gradientTransform="matrix(-1 0 0 1 1764.7786 456.2758)">
		<stop  offset="0" style="stop-color:#415152"/>
		<stop  offset="1" style="stop-color:#3D4B4D"/>
	</linearGradient>
	<polygon fill="url(#SVGID_00000173848044412018946390000017925677837252695184_)" points="635.1,789.2 635.6,731.2 635.3,730.5 
		635.3,726.3 636,727.1 637,726.3 637,730.5 636.4,731.3 636.3,789.2 637.2,792 635.5,796.1 633.9,791.5 	"/>
	
		<linearGradient id="SVGID_00000010311528461399571470000004512813414609050787_" gradientUnits="userSpaceOnUse" x1="1510.7697" y1="220.3859" x2="1510.7697" y2="290.1595" gradientTransform="matrix(0.9743 0.2254 -0.2254 0.9743 29.574 254.8824)">
		<stop  offset="0" style="stop-color:#5E7371"/>
		<stop  offset="1" style="stop-color:#4F6061"/>
	</linearGradient>
	<polygon fill="url(#SVGID_00000010311528461399571470000004512813414609050787_)" points="1438,871.5 1450.6,814.9 1451,814.3 
		1452,810.2 1451.1,810.7 1450.3,809.8 1449.4,813.9 1449.8,814.8 1436.9,871.2 1435.4,873.8 1436.1,878.1 1438.7,874 	"/>
	
		<linearGradient id="SVGID_00000113316321297514987420000010385160986512333722_" gradientUnits="userSpaceOnUse" x1="1508.3195" y1="255.6051" x2="1508.3195" y2="325.3802" gradientTransform="matrix(0.9862 0.1655 -0.1655 0.9862 -1.3989 307.1119)">
		<stop  offset="0" style="stop-color:#5E7371"/>
		<stop  offset="1" style="stop-color:#4F6061"/>
	</linearGradient>
	<polygon fill="url(#SVGID_00000113316321297514987420000010385160986512333722_)" points="1433.8,870.8 1443,813.5 1443.4,812.9 
		1444,808.8 1443.2,809.4 1442.4,808.5 1441.7,812.6 1442.1,813.5 1432.7,870.6 1431.3,873.3 1432.3,877.6 1434.7,873.3 	"/>
	
		<linearGradient id="SVGID_00000102534625597549497460000013123889912331944613_" gradientUnits="userSpaceOnUse" x1="1301.777" y1="328.5836" x2="1301.777" y2="398.3603" gradientTransform="matrix(1 0 0 1 -71.318 456.2758)">
		<stop  offset="0" style="stop-color:#3D4B4D"/>
		<stop  offset="1" style="stop-color:#475758"/>
	</linearGradient>
	<polygon fill="url(#SVGID_00000102534625597549497460000013123889912331944613_)" points="1230.9,847.7 1230.4,789.7 1230.7,789 
		1230.7,784.9 1229.9,785.6 1229,784.9 1229,789 1229.6,789.8 1229.7,847.7 1228.8,850.6 1230.5,854.6 1232.1,850 	"/>
	
		<linearGradient id="SVGID_00000011714461342563391570000007367433118107389058_" gradientUnits="userSpaceOnUse" x1="1362.1854" y1="239.7435" x2="1362.1854" y2="309.5172" gradientTransform="matrix(0.9743 0.2254 -0.2254 0.9743 29.574 254.8824)">
		<stop  offset="0" style="stop-color:#415152"/>
		<stop  offset="1" style="stop-color:#4B5C5D"/>
	</linearGradient>
	<polygon fill="url(#SVGID_00000011714461342563391570000007367433118107389058_)" points="1288.9,856.8 1301.5,800.2 1301.9,799.6 
		1302.9,795.6 1302,796.1 1301.2,795.2 1300.2,799.2 1300.7,800.2 1287.7,856.6 1286.2,859.2 1287,863.5 1289.6,859.4 	"/>
	
		<linearGradient id="SVGID_00000000934642636997362170000012467353053235276732_" gradientUnits="userSpaceOnUse" x1="1358.83" y1="265.8463" x2="1358.83" y2="335.6214" gradientTransform="matrix(0.9862 0.1655 -0.1655 0.9862 -1.3989 307.1119)">
		<stop  offset="0" style="stop-color:#415152"/>
		<stop  offset="1" style="stop-color:#4B5C5D"/>
	</linearGradient>
	<polygon fill="url(#SVGID_00000000934642636997362170000012467353053235276732_)" points="1284.7,856.2 1293.8,798.9 1294.2,798.3 
		1294.9,794.2 1294.1,794.8 1293.2,793.9 1292.5,798 1293,798.9 1283.6,856 1282.2,858.7 1283.2,862.9 1285.6,858.7 	"/>
	
		<linearGradient id="SVGID_00000101092126470640861100000014275569754416281268_" gradientUnits="userSpaceOnUse" x1="1177.9946" y1="318.8275" x2="1177.9946" y2="388.6042" gradientTransform="matrix(1 0 0 1 -71.318 456.2758)">
		<stop  offset="0" style="stop-color:#3D4B4D"/>
		<stop  offset="1" style="stop-color:#475758"/>
	</linearGradient>
	<polygon fill="url(#SVGID_00000101092126470640861100000014275569754416281268_)" points="1107.1,837.9 1106.6,779.9 1106.9,779.3 
		1106.9,775.1 1106.2,775.8 1105.2,775.1 1105.2,779.3 1105.8,780.1 1105.9,838 1105,840.8 1106.7,844.9 1108.3,840.3 	"/>
	
		<linearGradient id="SVGID_00000066487790148833321320000015949468039999298195_" gradientUnits="userSpaceOnUse" x1="600.3341" y1="406.0014" x2="600.3341" y2="475.7751" gradientTransform="matrix(-0.9743 0.2254 0.2254 0.9743 1663.8866 254.8824)">
		<stop  offset="0" style="stop-color:#3D4B4D"/>
		<stop  offset="1" style="stop-color:#475758"/>
	</linearGradient>
	<polygon fill="url(#SVGID_00000066487790148833321320000015949468039999298195_)" points="1184.3,847.1 1171.7,790.5 1171.3,789.9 
		1170.3,785.8 1171.2,786.4 1172,785.4 1172.9,789.5 1172.5,790.4 1185.4,846.8 1186.9,849.4 1186.2,853.7 1183.6,849.6 	"/>
	
		<linearGradient id="SVGID_00000141420387028257101610000002503076719186302377_" gradientUnits="userSpaceOnUse" x1="422.9398" y1="436.7096" x2="422.9398" y2="506.4848" gradientTransform="matrix(-0.9862 0.1655 0.1655 0.9862 1694.8596 307.1119)">
		<stop  offset="0" style="stop-color:#5E7371"/>
		<stop  offset="1" style="stop-color:#4F6061"/>
	</linearGradient>
	<polygon fill="url(#SVGID_00000141420387028257101610000002503076719186302377_)" points="1360,869.8 1350.9,812.5 1350.5,811.9 
		1349.8,807.8 1350.6,808.4 1351.5,807.5 1352.2,811.6 1351.7,812.5 1361.2,869.6 1362.5,872.3 1361.5,876.6 1359.2,872.3 	"/>
	
		<linearGradient id="SVGID_00000061436675865861691560000008725012909850235534_" gradientUnits="userSpaceOnUse" x1="620.4976" y1="322.7299" x2="620.4976" y2="392.5067" gradientTransform="matrix(-1 0 0 1 1764.7786 456.2758)">
		<stop  offset="0" style="stop-color:#3D4B4D"/>
		<stop  offset="1" style="stop-color:#475758"/>
	</linearGradient>
	<polygon fill="url(#SVGID_00000061436675865861691560000008725012909850235534_)" points="1143.9,841.8 1144.3,783.8 1144.1,783.2 
		1144.1,779 1144.8,779.7 1145.8,779 1145.8,783.2 1145.2,784 1145.1,841.9 1145.9,844.7 1144.2,848.8 1142.6,844.2 	"/>
	
		<linearGradient id="SVGID_00000031901594543255280470000011329512798585296311_" gradientUnits="userSpaceOnUse" x1="452.4344" y1="911.2537" x2="452.4344" y2="1039.7113" gradientTransform="matrix(0.9988 -4.931778e-02 4.931778e-02 0.9988 43.041 -170.5214)">
		<stop  offset="0" style="stop-color:#000202"/>
		<stop  offset="1" style="stop-color:#0F1518"/>
	</linearGradient>
	<polygon fill="url(#SVGID_00000031901594543255280470000011329512798585296311_)" points="546.3,832.8 540.2,726.2 540.6,724.9 
		540.3,717.3 539,718.7 537.1,717.4 537.5,725.1 538.7,726.5 544.1,833 542.8,838.3 546.3,845.6 548.8,837 	"/>
	
		<linearGradient id="SVGID_00000132053487929402600510000014642723567819073430_" gradientUnits="userSpaceOnUse" x1="603.886" y1="755.2664" x2="603.886" y2="883.7196" gradientTransform="matrix(0.9792 0.2028 -0.2028 0.9792 149.6691 -160.6604)">
		<stop  offset="0" style="stop-color:#000202"/>
		<stop  offset="1" style="stop-color:#0F151A"/>
	</linearGradient>
	<polygon fill="url(#SVGID_00000132053487929402600510000014642723567819073430_)" points="565.1,814.8 585.9,710.1 586.7,709 
		588.2,701.5 586.6,702.5 585.1,700.8 583.6,708.3 584.4,710 563,814.4 560.3,819.2 561.9,827.2 566.5,819.5 	"/>
	
		<linearGradient id="SVGID_00000076561546632128715140000014072457009005086115_" gradientUnits="userSpaceOnUse" x1="758.0811" y1="673.2317" x2="758.0811" y2="828.8958">
		<stop  offset="0" style="stop-color:#333F4C"/>
		<stop  offset="0.2212" style="stop-color:#222B34"/>
		<stop  offset="0.5258" style="stop-color:#0F1418"/>
		<stop  offset="0.7954" style="stop-color:#040708"/>
		<stop  offset="1" style="stop-color:#000202"/>
	</linearGradient>
	<path fill="url(#SVGID_00000076561546632128715140000014072457009005086115_)" d="M774.3,720.4l16.8,6c-0.3,1.7-0.1,2.9,0.5,3.1
		c1,0.4,3.1-2.3,4.5-6c1.4-3.7,1.8-7,0.7-7.5c-0.6-0.2-1.6,0.6-2.5,2.1l-17.1-6l13.3-29.3c1.5,0,2.7-0.5,3.3-1.5
		c1.1-1.9-0.7-4.9-4-6.7c-3.2-1.8-6.7-1.7-7.8,0.2c-0.6,1.2-0.2,2.7,0.9,4.2L769,708.6l-18.4-7.8c0.2-1.4,0.1-2.3-0.4-2.6
		c-1-0.5-3.2,2-4.9,5.6s-2.3,6.9-1.3,7.4c0.5,0.3,1.4-0.4,2.4-1.5l19.2,7.5l-46.8,109.1l3.4,2.6L774.3,720.4z"/>
	
		<linearGradient id="SVGID_00000078762920163039738200000004429009265961377930_" gradientUnits="userSpaceOnUse" x1="1822.2797" y1="747.4731" x2="1822.2797" y2="971.2573">
		<stop  offset="0" style="stop-color:#39484A"/>
		<stop  offset="0.2233" style="stop-color:#415152"/>
		<stop  offset="1" style="stop-color:#5A6F6D"/>
	</linearGradient>
	<path fill="url(#SVGID_00000078762920163039738200000004429009265961377930_)" d="M1845.6,815.2l24.1,8.6c-0.4,2.4-0.2,4.1,0.7,4.5
		c1.5,0.6,4.4-3.3,6.5-8.6c2.1-5.3,2.5-10.1,1-10.7c-0.9-0.3-2.3,0.9-3.7,3l-24.5-8.7l19.1-42.2c2.2,0,3.9-0.7,4.7-2.2
		c1.5-2.8-1-7.1-5.7-9.6s-9.7-2.4-11.2,0.3c-0.9,1.7-0.3,3.9,1.3,6l-20,42.7l-26.4-11.2c0.4-2,0.2-3.3-0.5-3.7
		c-1.4-0.7-4.6,2.9-7.1,8.1s-3.3,9.9-1.9,10.6c0.8,0.4,2.1-0.5,3.5-2.2l27.6,10.8l-67.2,156.9l4.8,3.7L1845.6,815.2z"/>
	
		<linearGradient id="SVGID_00000017484047663836669860000009535116502452465025_" gradientUnits="userSpaceOnUse" x1="1241.6222" y1="898.3871" x2="1160.9951" y2="870.274">
		<stop  offset="0" style="stop-color:#4A5C5C"/>
		<stop  offset="1" style="stop-color:#3A494B"/>
	</linearGradient>
	<polyline fill="url(#SVGID_00000017484047663836669860000009535116502452465025_)" points="1154.3,889.5 1238.8,900.4 
		1245.2,888.1 1228.8,872.3 1185.1,867.9 1160.3,876 1154.3,889.5 	"/>
	<g>
		
			<linearGradient id="SVGID_00000129907769600686124740000006327329590874389919_" gradientUnits="userSpaceOnUse" x1="343.7112" y1="909.5386" x2="449.1662" y2="909.5386">
			<stop  offset="0" style="stop-color:#6F7369"/>
			<stop  offset="0.1513" style="stop-color:#75796F"/>
			<stop  offset="0.3507" style="stop-color:#85897F"/>
			<stop  offset="0.577" style="stop-color:#A0A599"/>
			<stop  offset="0.8213" style="stop-color:#C6CBBD"/>
			<stop  offset="1" style="stop-color:#E6EBDC"/>
		</linearGradient>
		<polygon fill="url(#SVGID_00000129907769600686124740000006327329590874389919_)" points="360.4,948 343.7,909.9 369.1,871.1 
			410.8,872.8 434.8,895.5 432.8,906.2 442.8,912.2 449.2,927.6 430.9,948 400.8,934.6 388.4,946.6 		"/>
		
			<linearGradient id="SVGID_00000025414816457640665640000008137012212840863143_" gradientUnits="userSpaceOnUse" x1="406.784" y1="909.3228" x2="424.471" y2="909.3228">
			<stop  offset="0" style="stop-color:#15191E"/>
			<stop  offset="5.169499e-02" style="stop-color:#191D22"/>
			<stop  offset="0.4227" style="stop-color:#2F393C"/>
			<stop  offset="0.7509" style="stop-color:#3C494B"/>
			<stop  offset="1" style="stop-color:#414F51"/>
		</linearGradient>
		<polygon fill="url(#SVGID_00000025414816457640665640000008137012212840863143_)" points="424.5,907 415.1,899.6 406.8,912 
			408.1,919 418.5,917 		"/>
		
			<linearGradient id="SVGID_00000146483141235754214590000014893639287562302648_" gradientUnits="userSpaceOnUse" x1="424.471" y1="899.5765" x2="429.8105" y2="899.5765">
			<stop  offset="0" style="stop-color:#15191E"/>
			<stop  offset="5.169499e-02" style="stop-color:#191D22"/>
			<stop  offset="0.4227" style="stop-color:#2F393C"/>
			<stop  offset="0.7509" style="stop-color:#3C494B"/>
			<stop  offset="1" style="stop-color:#414F51"/>
		</linearGradient>
		<polygon fill="url(#SVGID_00000146483141235754214590000014893639287562302648_)" points="424.5,901 424.5,895.5 428.4,895.5 
			429.8,903.6 		"/>
		
			<linearGradient id="SVGID_00000033366949395499633480000001540021005588836778_" gradientUnits="userSpaceOnUse" x1="427.1407" y1="916.3377" x2="436.1512" y2="916.3377">
			<stop  offset="0" style="stop-color:#15191E"/>
			<stop  offset="5.169499e-02" style="stop-color:#191D22"/>
			<stop  offset="0.4227" style="stop-color:#2F393C"/>
			<stop  offset="0.7509" style="stop-color:#3C494B"/>
			<stop  offset="1" style="stop-color:#414F51"/>
		</linearGradient>
		<polygon fill="url(#SVGID_00000033366949395499633480000001540021005588836778_)" points="433.8,923.4 436.2,921 428.8,909.3 
			427.1,914.7 		"/>
	</g>
	<g>
		
			<linearGradient id="SVGID_00000026841980454073399290000015734872757614002606_" gradientUnits="userSpaceOnUse" x1="1178.1927" y1="843.7695" x2="1241.1851" y2="843.7695" gradientTransform="matrix(-0.9442 -0.3292 -0.3292 0.9442 2587.26 460.7675)">
			<stop  offset="0" style="stop-color:#6F7369"/>
			<stop  offset="0.1513" style="stop-color:#75796F"/>
			<stop  offset="0.3507" style="stop-color:#85897F"/>
			<stop  offset="0.577" style="stop-color:#A0A599"/>
			<stop  offset="0.8213" style="stop-color:#C6CBBD"/>
			<stop  offset="1" style="stop-color:#E6EBDC"/>
		</linearGradient>
		<path fill="url(#SVGID_00000026841980454073399290000015734872757614002606_)" d="M1179.5,887.4l17.3-17.3l-0.9-21.5l-16.7-20.1
			l-32.8,12.6l-6.8,11.1l-5.9,7.4c0,0,1,6.6,1.6,9c0.6,2.4,1.8,13.8,1.8,13.8l17.2,7.1l13.3-14L1179.5,887.4z"/>
		
			<linearGradient id="SVGID_00000156548311641335403540000011010395595603285900_" gradientUnits="userSpaceOnUse" x1="1205.3855" y1="844.2858" x2="1221.5649" y2="844.2858" gradientTransform="matrix(-0.9442 -0.3292 -0.3292 0.9442 2587.26 460.7675)">
			<stop  offset="0" style="stop-color:#15191E"/>
			<stop  offset="5.169499e-02" style="stop-color:#191D22"/>
			<stop  offset="0.4227" style="stop-color:#2F393C"/>
			<stop  offset="0.7509" style="stop-color:#3C494B"/>
			<stop  offset="1" style="stop-color:#414F51"/>
		</linearGradient>
		<polygon fill="url(#SVGID_00000156548311641335403540000011010395595603285900_)" points="1168.8,867.6 1172.4,857.3 1168,850.2 
			1157.2,854.1 1153.9,861.3 1162.2,867.9 		"/>
		
			<linearGradient id="SVGID_00000174562796141060515290000005428263716049629112_" gradientUnits="userSpaceOnUse" x1="1226.387" y1="842.5765" x2="1236.027" y2="842.5765" gradientTransform="matrix(-0.9442 -0.3292 -0.3292 0.9442 2587.26 460.7675)">
			<stop  offset="0" style="stop-color:#15191E"/>
			<stop  offset="5.169499e-02" style="stop-color:#191D22"/>
			<stop  offset="0.4227" style="stop-color:#2F393C"/>
			<stop  offset="0.7509" style="stop-color:#3C494B"/>
			<stop  offset="1" style="stop-color:#414F51"/>
		</linearGradient>
		<polygon fill="url(#SVGID_00000174562796141060515290000005428263716049629112_)" points="1152.2,851.6 1149.9,844.6 
			1144.6,844.2 1140.9,854.8 1145,857.5 		"/>
		
			<linearGradient id="SVGID_00000032610685856635533440000005837884218904814999_" gradientUnits="userSpaceOnUse" x1="1223.2845" y1="851.829" x2="1233.8407" y2="851.829" gradientTransform="matrix(-0.9442 -0.3292 -0.3292 0.9442 2587.26 460.7675)">
			<stop  offset="0" style="stop-color:#15191E"/>
			<stop  offset="5.169499e-02" style="stop-color:#191D22"/>
			<stop  offset="0.4227" style="stop-color:#2F393C"/>
			<stop  offset="0.7509" style="stop-color:#3C494B"/>
			<stop  offset="1" style="stop-color:#414F51"/>
		</linearGradient>
		<polygon fill="url(#SVGID_00000032610685856635533440000005837884218904814999_)" points="1150.5,866 1150.8,855.5 1147.9,856.7 
			1140.5,862.5 1146.8,867.2 		"/>
	</g>
	<g>
		
			<linearGradient id="SVGID_00000036231779265084198300000015953686697320388519_" gradientUnits="userSpaceOnUse" x1="456.1679" y1="754.3587" x2="601.7816" y2="754.3587" gradientTransform="matrix(0.9442 -0.3292 0.3292 0.9442 1032.594 460.7675)">
			<stop  offset="0" style="stop-color:#6F7369"/>
			<stop  offset="0.1513" style="stop-color:#75796F"/>
			<stop  offset="0.3507" style="stop-color:#85897F"/>
			<stop  offset="0.577" style="stop-color:#A0A599"/>
			<stop  offset="0.8213" style="stop-color:#C6CBBD"/>
			<stop  offset="1" style="stop-color:#E6EBDC"/>
		</linearGradient>
		<path fill="url(#SVGID_00000036231779265084198300000015953686697320388519_)" d="M1752.2,1064l-40.1-40l2.1-49.6l38.6-46.4
			l75.9,29.2l15.7,25.7l13.6,17.2c0,0-2.3,15.1-3.7,20.7c-1.4,5.6-4.1,31.8-4.1,31.8l-39.8,16.4l-30.6-32.3L1752.2,1064z"/>
		
			<linearGradient id="SVGID_00000168833855752009421140000005932130694376240536_" gradientUnits="userSpaceOnUse" x1="519.027" y1="755.5522" x2="556.4277" y2="755.5522" gradientTransform="matrix(0.9442 -0.3292 0.3292 0.9442 1032.594 460.7675)">
			<stop  offset="0" style="stop-color:#15191E"/>
			<stop  offset="5.169499e-02" style="stop-color:#191D22"/>
			<stop  offset="0.4227" style="stop-color:#2F393C"/>
			<stop  offset="0.7509" style="stop-color:#3C494B"/>
			<stop  offset="1" style="stop-color:#414F51"/>
		</linearGradient>
		<polygon fill="url(#SVGID_00000168833855752009421140000005932130694376240536_)" points="1776.7,1018.4 1768.4,994.6 1778.6,978 
			1803.7,987 1811.2,1003.8 1792,1018.9 		"/>
		
			<linearGradient id="SVGID_00000057867251826718342200000008640586285980460465_" gradientUnits="userSpaceOnUse" x1="567.5742" y1="751.6011" x2="589.8582" y2="751.6011" gradientTransform="matrix(0.9442 -0.3292 0.3292 0.9442 1032.594 460.7675)">
			<stop  offset="0" style="stop-color:#15191E"/>
			<stop  offset="5.169499e-02" style="stop-color:#191D22"/>
			<stop  offset="0.4227" style="stop-color:#2F393C"/>
			<stop  offset="0.7509" style="stop-color:#3C494B"/>
			<stop  offset="1" style="stop-color:#414F51"/>
		</linearGradient>
		<polygon fill="url(#SVGID_00000057867251826718342200000008640586285980460465_)" points="1815.2,981.3 1820.5,965.1 
			1832.8,964.2 1841.4,988.8 1831.8,995 		"/>
		
			<linearGradient id="SVGID_00000127013824205857799200000008793940577075780492_" gradientUnits="userSpaceOnUse" x1="560.4026" y1="772.9893" x2="584.8046" y2="772.9893" gradientTransform="matrix(0.9442 -0.3292 0.3292 0.9442 1032.594 460.7675)">
			<stop  offset="0" style="stop-color:#15191E"/>
			<stop  offset="5.169499e-02" style="stop-color:#191D22"/>
			<stop  offset="0.4227" style="stop-color:#2F393C"/>
			<stop  offset="0.7509" style="stop-color:#3C494B"/>
			<stop  offset="1" style="stop-color:#414F51"/>
		</linearGradient>
		<polygon fill="url(#SVGID_00000127013824205857799200000008793940577075780492_)" points="1819.2,1014.5 1818.3,990.3 1825.2,993 
			1842.2,1006.5 1827.7,1017.3 		"/>
	</g>
</g>
</svg>
