<?xml version="1.0" encoding="UTF-8"?><svg xmlns="http://www.w3.org/2000/svg" xmlns:xlink="http://www.w3.org/1999/xlink" viewBox="0 0 1920 1080"><defs><style>.c`{fill:url(#v);}.ca{fill:url(#g);}.cb{fill:url(#f);}.cc{fill:url(#p);}.cd{fill:url(#o);}.ce{fill:url(#q);}.cf{fill:url(#i);}.cg{fill:url(#h);}.ch{fill:url(#k);}.ci{fill:url(#j);}.cj{fill:url(#m);}.ck{fill:url(#l);}.cl{fill:url(#n);}.cm{fill:url(#x);}.cn{fill:url(#w);}.co{fill:url(#y);}.cp{fill:url(#aa);}.cq{fill:url(#ag);}.cr{fill:url(#ab);}.cs{fill:url(#ah);}.ct{fill:url(#ai);}.cu{fill:url(#ad);}.cv{fill:url(#ao);}.cw{fill:url(#aj);}.cx{fill:url(#ae);}.cy{fill:url(#ap);}.d`{fill:url(#af);}.da{fill:url(#a`);}.db{fill:url(#as);}.dc{fill:url(#aq);}.dd{fill:url(#ar);}.de{fill:url(#al);}.df{fill:url(#ax);}.dg{fill:url(#aw);}.dh{fill:url(#am);}.di{fill:url(#ac);}.dj{fill:url(#an);}.dk{fill:url(#at);}.dl{fill:url(#ay);}.dm{fill:url(#au);}.dn{fill:url(#ak);}.do{fill:url(#av);}.dp{fill:url(#be);}.dq{fill:url(#bg);}.dr{fill:url(#bf);}.ds{fill:url(#bm);}.dt{fill:url(#bd);}.du{fill:url(#bo);}.dv{fill:url(#bn);}.dw{fill:url(#ba);}.dx{fill:url(#bh);}.dy{fill:url(#bc);}.e`{fill:url(#bb);}.ea{fill:url(#b`);}.eb{fill:url(#by);}.ec{fill:url(#bl);}.ed{fill:url(#bw);}.ee{fill:url(#bv);}.ef{fill:url(#bi);}.eg{fill:url(#bp);}.eh{fill:url(#bk);}.ei{fill:url(#bj);}.ej{fill:url(#bt);}.ek{fill:url(#bq);}.el{fill:url(#bx);}.em{fill:url(#bs);}.en{fill:url(#br);}.eo{fill:#f5d582;}.ep{fill:#97a097;}.eq{fill:#334056;}.er{fill:#cd665f;}.es{fill:#d68458;}.et{fill:#5a6467;}.eu{fill:url(#t);}.eu,.ev,.ew,.ex{opacity:.22;}.ev{fill:url(#u);}.ew{fill:url(#s);}.ex{fill:url(#r);}.ey{fill:url(#bu);opacity:.3;}</style><linearGradient id="f" x1=".82" y1="540" x2="1919.93" y2="540" gradientTransform="matrix(1, 0, 0, 1, 0, 0)" gradientUnits="userSpaceOnUse"><stop offset="0" stop-color="#333f4c"/><stop offset=".22" stop-color="#222a33"/><stop offset=".53" stop-color="#0f1418"/><stop offset=".8" stop-color="#040607"/><stop offset="1" stop-color="#000202"/></linearGradient><linearGradient id="g" x1="1.86" y1="540" x2="1920" y2="540" gradientTransform="matrix(1, 0, 0, 1, 0, 0)" gradientUnits="userSpaceOnUse"><stop offset="0" stop-color="#f1fbfe"/><stop offset=".19" stop-color="#e0e9ec"/><stop offset=".58" stop-color="#b5bbbd"/><stop offset="1" stop-color="#818284"/></linearGradient><linearGradient id="h" x1="610.83" y1="656.72" x2="1248.61" y2="656.72" gradientTransform="matrix(1, 0, 0, 1, 0, 0)" gradientUnits="userSpaceOnUse"><stop offset="0" stop-color="#949998"/><stop offset=".55" stop-color="#a3a8a9"/><stop offset="1" stop-color="#b4b9bc"/></linearGradient><linearGradient id="i" x1="1284.19" y1="317.8" x2="2012.71" y2="738.42" gradientTransform="matrix(1, 0, 0, 1, 0, 0)" gradientUnits="userSpaceOnUse"><stop offset="0" stop-color="#68676c"/><stop offset=".12" stop-color="#5c5b61"/><stop offset=".47" stop-color="#414149"/><stop offset=".77" stop-color="#30303b"/><stop offset="1" stop-color="#2b2b36"/></linearGradient><linearGradient id="j" x1="167.35" y1="693.89" x2="961.24" y2="235.54" gradientTransform="matrix(1, 0, 0, 1, 0, 0)" gradientUnits="userSpaceOnUse"><stop offset="0" stop-color="#3d4147"/><stop offset=".2" stop-color="#3f454c"/><stop offset=".46" stop-color="#47505d"/><stop offset=".76" stop-color="#546378"/><stop offset="1" stop-color="#627794"/></linearGradient><linearGradient id="k" x1="1170.23" y1="962" x2="1170.23" y2="634.09" gradientTransform="matrix(1, 0, 0, 1, 0, 0)" gradientUnits="userSpaceOnUse"><stop offset="0" stop-color="#c6cdcb"/><stop offset=".35" stop-color="#cbd2ce"/><stop offset=".8" stop-color="#dce1d6"/><stop offset="1" stop-color="#e6ebdc"/></linearGradient><linearGradient id="l" x1="1248.61" y1="961.9" x2="1248.61" y2="658" gradientTransform="matrix(1, 0, 0, 1, 0, 0)" gradientUnits="userSpaceOnUse"><stop offset="0" stop-color="#858d98"/><stop offset=".34" stop-color="#87909d"/><stop offset=".78" stop-color="#8d98ae"/><stop offset="1" stop-color="#929eb9"/></linearGradient><linearGradient id="m" x1="0" y1="899.17" x2="1920" y2="899.17" gradientTransform="matrix(1, 0, 0, 1, 0, 0)" gradientUnits="userSpaceOnUse"><stop offset="0" stop-color="#a8ad9e"/><stop offset=".23" stop-color="#adb2a3"/><stop offset=".53" stop-color="#bec3b4"/><stop offset=".87" stop-color="#d9decf"/><stop offset="1" stop-color="#e6ebdc"/></linearGradient><linearGradient id="n" x1="0" y1="863" x2="1920" y2="863" gradientTransform="matrix(1, 0, 0, 1, 0, 0)" gradientUnits="userSpaceOnUse"><stop offset="0" stop-color="#354345"/><stop offset=".26" stop-color="#3a484a"/><stop offset=".61" stop-color="#485959"/><stop offset="1" stop-color="#5f7472"/><stop offset="1" stop-color="#607573"/></linearGradient><linearGradient id="o" x1="0" y1="497.77" x2="1043.85" y2="497.77" xlink:href="#f"/><linearGradient id="p" x1="150.79" y1="981" x2="150.79" y2="810" gradientTransform="matrix(1, 0, 0, 1, 0, 0)" gradientUnits="userSpaceOnUse"><stop offset="0" stop-color="#15191e"/><stop offset=".05" stop-color="#181d22"/><stop offset=".42" stop-color="#2e383b"/><stop offset=".75" stop-color="#3c494b"/><stop offset="1" stop-color="#414f51"/></linearGradient><linearGradient id="q" x1="395.98" x2="395.98" y2="925" xlink:href="#p"/><linearGradient id="r" x1="1732.39" y1="976.32" x2="1463.45" y2="882.55" gradientTransform="matrix(1, 0, 0, 1, 0, 0)" gradientUnits="userSpaceOnUse"><stop offset="0" stop-color="#4a5c5c"/><stop offset="1" stop-color="#3a494b"/></linearGradient><linearGradient id="s" x1="1785.88" y1="1013.94" x2="1612.11" y2="953.34" gradientTransform="translate(26.82 1612.33) scale(1.01 -.64)" xlink:href="#r"/><linearGradient id="t" x1="1808.77" y1="1087.21" x2="1634.99" y2="1026.61" gradientTransform="translate(26.82 1612.33) scale(1.01 -.64)" xlink:href="#r"/><linearGradient id="u" x1="1757.62" y1="1007.11" x2="1583.84" y2="946.51" gradientTransform="translate(26.82 1612.33) scale(1.01 -.64)" xlink:href="#r"/><linearGradient id="v" x1="326.95" y1="2246" x2="326.95" y2="2063.41" gradientTransform="translate(-463.22 -1213.53) rotate(-20.17)" xlink:href="#n"/><linearGradient id="w" x1="-44.59" y1="-1779.6" x2="-44.59" y2="-1962.13" gradientTransform="translate(-610.43 2090) rotate(30.12)" gradientUnits="userSpaceOnUse"><stop offset="0" stop-color="#242d36"/><stop offset=".49" stop-color="#202830"/><stop offset="1" stop-color="#181f24"/></linearGradient><linearGradient id="x" x1="802.95" y1="-1101.82" x2="802.95" y2="-1284.36" gradientTransform="translate(-239.04 1820.99) rotate(21.53) scale(1.08 1.32) skewX(-18.55)" gradientUnits="userSpaceOnUse"><stop offset="0" stop-color="#516362"/><stop offset=".57" stop-color="#38454c"/><stop offset=".86" stop-color="#2b3540"/></linearGradient><linearGradient id="y" x1="521.51" y1="221.45" x2="521.51" y2="-75.57" gradientTransform="translate(-326.61 620.96) rotate(5.85)" gradientUnits="userSpaceOnUse"><stop offset="0" stop-color="#343f42"/><stop offset=".35" stop-color="#2e393c"/><stop offset=".8" stop-color="#20282d"/><stop offset="1" stop-color="#181f24"/></linearGradient><linearGradient id="a`" x1="-3017.98" y1="-3932.65" x2="-3017.98" y2="-4115.07" gradientTransform="translate(-3122.11 4066.42) rotate(82.76)" gradientUnits="userSpaceOnUse"><stop offset="0" stop-color="#192026"/><stop offset="1" stop-color="#181f24"/></linearGradient><linearGradient id="aa" x1="-427.88" y1="-1475.7" x2="-427.88" y2="-1333.62" gradientTransform="translate(-148.73 1688.52) rotate(25.57)" gradientUnits="userSpaceOnUse"><stop offset="0" stop-color="#000202"/><stop offset=".43" stop-color="#141a1f"/><stop offset="1" stop-color="#333f4c"/></linearGradient><linearGradient id="ab" x1="-977.41" y1="-2396.75" x2="-977.41" y2="-2254.69" gradientTransform="translate(-638.74 2645.37) rotate(40.1)" xlink:href="#aa"/><linearGradient id="ac" x1="-742.63" y1="-2179.94" x2="-742.63" y2="-2037.88" gradientTransform="translate(-638.74 2645.37) rotate(40.1)" gradientUnits="userSpaceOnUse"><stop offset="0" stop-color="#000202"/><stop offset=".43" stop-color="#141a1f"/><stop offset=".86" stop-color="#2b3540"/></linearGradient><linearGradient id="ad" x1="-2515.56" y1="-3494.31" x2="-2515.56" y2="-3352.32" gradientTransform="translate(-2144.02 4093.34) rotate(70.18)" gradientUnits="userSpaceOnUse"><stop offset="0" stop-color="#000202"/><stop offset=".44" stop-color="#141a1f"/><stop offset=".86" stop-color="#2a343f"/></linearGradient><linearGradient id="ae" x1="-14.59" y1="-753.2" x2="-14.59" y2="-611.11" gradientTransform="translate(-85.77 1167.32) rotate(18.37)" xlink:href="#ac"/><linearGradient id="af" x1="1570.25" y1="466.33" x2="1570.25" y2="608.44" gradientTransform="translate(4.98 593.17) rotate(-7.87)" gradientUnits="userSpaceOnUse"><stop offset=".14" stop-color="#2b3540"/><stop offset=".5" stop-color="#3e4c52"/><stop offset="1" stop-color="#586a69"/></linearGradient><linearGradient id="ag" x1="812.26" y1="-2363.96" x2="812.26" y2="-2221.88" gradientTransform="translate(72.56 2680.72) rotate(22.21)" xlink:href="#af"/><linearGradient id="ah" x1="1154.63" y1="2561.25" x2="1154.63" y2="2703.32" gradientTransform="translate(-722.58 -807.22) rotate(-29.59)" xlink:href="#af"/><linearGradient id="ai" x1="-2057.18" y1="-3330.36" x2="-2057.18" y2="-3188.36" gradientTransform="translate(-1714.08 3747.58) rotate(61.75)" gradientUnits="userSpaceOnUse"><stop offset="0" stop-color="#000202"/><stop offset=".45" stop-color="#141a1f"/><stop offset=".86" stop-color="#29343e"/></linearGradient><linearGradient id="aj" x1="-3852.87" y1="-3825.38" x2="-3852.87" y2="-3683.41" gradientTransform="translate(-3274.32 4464.49) rotate(86.75)" gradientUnits="userSpaceOnUse"><stop offset="0" stop-color="#000202"/><stop offset=".49" stop-color="#141a1f"/><stop offset=".86" stop-color="#263039"/></linearGradient><linearGradient id="ak" x1="-1037.86" y1="-2560.28" x2="-1037.86" y2="-2418.24" gradientTransform="translate(-862.02 2855.23) rotate(44.62)" gradientUnits="userSpaceOnUse"><stop offset="0" stop-color="#000202"/><stop offset=".44" stop-color="#141a1f"/><stop offset=".86" stop-color="#2a343f"/></linearGradient><linearGradient id="al" x1="-22.48" y1="501.61" x2="-22.48" y2="630.06" gradientTransform="translate(37.9 -378.84) rotate(-2.83)" xlink:href="#aa"/><linearGradient id="am" x1="-93.64" y1="-581.69" x2="-93.64" y2="-453.24" gradientTransform="translate(61.9 695.92) rotate(11.7)" xlink:href="#aa"/><linearGradient id="an" x1="545.97" y1="-441.27" x2="545.97" y2="-299.18" gradientTransform="translate(-52.5 1044.67) rotate(15.23)" gradientUnits="userSpaceOnUse"><stop offset="0" stop-color="#000202"/><stop offset="1" stop-color="#0f151a"/></linearGradient><linearGradient id="ao" x1="-212.26" y1="-2264.29" x2="-212.26" y2="-2122.24" gradientTransform="translate(-638.74 2645.37) rotate(40.1)" gradientUnits="userSpaceOnUse"><stop offset="0" stop-color="#000202"/><stop offset="1" stop-color="#0f1317"/></linearGradient><linearGradient id="ap" x1="894.84" y1="-668.39" x2="894.84" y2="-598.62" gradientTransform="translate(-79.14 1207.05) rotate(13.03)" gradientUnits="userSpaceOnUse"><stop offset="0" stop-color="#5e7371"/><stop offset=".12" stop-color="#5a6e6c"/><stop offset="1" stop-color="#415152"/></linearGradient><linearGradient id="aq" x1="939.96" y1="-411.02" x2="939.96" y2="-341.24" gradientTransform="translate(-59.62 1006) rotate(9.52)" xlink:href="#ap"/><linearGradient id="ar" x1="793.33" y1="276" x2="793.33" y2="345.78" gradientTransform="translate(-71.32 456.28)" gradientUnits="userSpaceOnUse"><stop offset="0" stop-color="#415152"/><stop offset="1" stop-color="#3d4b4d"/></linearGradient><linearGradient id="as" x1="746.26" y1="-649.04" x2="746.26" y2="-579.26" gradientTransform="translate(-79.14 1207.05) rotate(13.03)" xlink:href="#ar"/><linearGradient id="at" x1="790.47" y1="-400.78" x2="790.47" y2="-331" gradientTransform="translate(-59.62 1006) rotate(9.52)" xlink:href="#ar"/><linearGradient id="au" x1="671.5" y1="275.03" x2="671.5" y2="344.8" xlink:href="#ar"/><linearGradient id="av" x1="-7255.44" y1="1192.32" x2="-7255.44" y2="1262.1" gradientTransform="translate(-6675.4 1207.05) rotate(166.97) scale(1 -1)" xlink:href="#ar"/><linearGradient id="aw" x1="-7474.1" y1="999.62" x2="-7474.1" y2="1069.39" gradientTransform="translate(-6694.92 1006) rotate(170.48) scale(1 -1)" xlink:href="#ap"/><linearGradient id="ax" x1="-7319.06" y1="270.15" x2="-7319.06" y2="339.92" gradientTransform="translate(-6683.22 456.28) rotate(-180) scale(1 -1)" xlink:href="#ar"/><linearGradient id="ay" x1="1402.39" y1="-731.75" x2="1402.39" y2="-661.98" gradientTransform="translate(-79.14 1207.05) rotate(13.03)" gradientUnits="userSpaceOnUse"><stop offset="0" stop-color="#5e7371"/><stop offset="1" stop-color="#4f6061"/></linearGradient><linearGradient id="b`" x1="1450.44" y1="-443.24" x2="1450.44" y2="-373.47" gradientTransform="translate(-59.62 1006) rotate(9.52)" xlink:href="#ay"/><linearGradient id="ba" x1="1302.1" y1="328.68" x2="1302.1" y2="398.46" gradientTransform="translate(-71.32 456.28)" gradientUnits="userSpaceOnUse"><stop offset="0" stop-color="#3d4b4d"/><stop offset="1" stop-color="#475758"/></linearGradient><linearGradient id="bb" x1="1253.81" y1="-712.4" x2="1253.81" y2="-642.62" gradientTransform="translate(-79.14 1207.05) rotate(13.03)" gradientUnits="userSpaceOnUse"><stop offset="0" stop-color="#415152"/><stop offset="1" stop-color="#4b5c5d"/></linearGradient><linearGradient id="bc" x1="1300.95" y1="-433" x2="1300.95" y2="-363.22" gradientTransform="translate(-59.62 1006) rotate(9.52)" xlink:href="#bb"/><linearGradient id="bd" x1="1178.32" y1="318.93" x2="1178.32" y2="388.71" xlink:href="#ba"/><linearGradient id="be" x1="-7739.25" y1="1358.34" x2="-7739.25" y2="1428.11" gradientTransform="translate(-6675.4 1207.05) rotate(166.97) scale(1 -1)" xlink:href="#ba"/><linearGradient id="bf" x1="-7967.15" y1="1135.75" x2="-7967.15" y2="1205.53" gradientTransform="translate(-6694.92 1006) rotate(170.48) scale(1 -1)" xlink:href="#ay"/><linearGradient id="bg" x1="-7827.83" y1="322.83" x2="-7827.83" y2="392.61" gradientTransform="translate(-6683.22 456.28) rotate(-180) scale(1 -1)" xlink:href="#ba"/><linearGradient id="bh" x1="447.62" y1="1119.69" x2="447.62" y2="1248.15" gradientTransform="translate(37.9 -378.84) rotate(-2.83)" gradientUnits="userSpaceOnUse"><stop offset="0" stop-color="#000202"/><stop offset="1" stop-color="#0f1518"/></linearGradient><linearGradient id="bi" x1="516.46" y1="-101.28" x2="516.46" y2="27.17" gradientTransform="translate(61.9 695.92) rotate(11.7)" gradientUnits="userSpaceOnUse"><stop offset="0" stop-color="#000202"/><stop offset="1" stop-color="#0f151a"/></linearGradient><linearGradient id="bj" x1="758.41" y1="673.33" x2="758.41" y2="829" xlink:href="#f"/><linearGradient id="bk" x1="1822.61" y1="747.57" x2="1822.61" y2="971.36" gradientTransform="matrix(1, 0, 0, 1, 0, 0)" gradientUnits="userSpaceOnUse"><stop offset="0" stop-color="#39484a"/><stop offset=".22" stop-color="#405152"/><stop offset="1" stop-color="#5a6f6d"/></linearGradient><linearGradient id="bl" x1="1241.95" y1="898.49" x2="1161.32" y2="870.37" xlink:href="#r"/><linearGradient id="bm" x1="344.04" y1="909.64" x2="449.49" y2="909.64" gradientTransform="matrix(1, 0, 0, 1, 0, 0)" gradientUnits="userSpaceOnUse"><stop offset="0" stop-color="#6f7369"/><stop offset=".15" stop-color="#74786e"/><stop offset=".35" stop-color="#85897e"/><stop offset=".58" stop-color="#a0a498"/><stop offset=".82" stop-color="#c5cabc"/><stop offset="1" stop-color="#e6ebdc"/></linearGradient><linearGradient id="bn" x1="407.11" y1="909.42" x2="424.8" y2="909.42" xlink:href="#p"/><linearGradient id="bo" x1="424.8" y1="899.68" x2="430.14" y2="899.68" xlink:href="#p"/><linearGradient id="bp" x1="427.47" y1="916.44" x2="436.48" y2="916.44" xlink:href="#p"/><linearGradient id="bq" x1="-7034.64" y1="-546.96" x2="-6971.65" y2="-546.96" gradientTransform="translate(-5625.23 -929.95) rotate(-160.78) scale(1 -1)" xlink:href="#bm"/><linearGradient id="br" x1="-7007.45" y1="-546.44" x2="-6991.27" y2="-546.44" gradientTransform="translate(-5625.23 -929.95) rotate(-160.78) scale(1 -1)" xlink:href="#p"/><linearGradient id="bs" x1="-6986.45" y1="-548.15" x2="-6976.81" y2="-548.15" gradientTransform="translate(-5625.23 -929.95) rotate(-160.78) scale(1 -1)" xlink:href="#p"/><linearGradient id="bt" x1="-6989.55" y1="-538.9" x2="-6979" y2="-538.9" gradientTransform="translate(-5625.23 -929.95) rotate(-160.78) scale(1 -1)" xlink:href="#p"/><linearGradient id="bu" x1="1206.78" y1="837.78" x2="1337.52" y2="837.78" gradientTransform="translate(2275.78 2275.78) rotate(-90) scale(1 -1)" xlink:href="#r"/><linearGradient id="bv" x1="220.94" y1="2145.28" x2="366.55" y2="2145.28" gradientTransform="translate(797.09 -929.95) rotate(-19.22)" xlink:href="#bm"/><linearGradient id="bw" x1="283.8" y1="2146.47" x2="321.2" y2="2146.47" gradientTransform="translate(797.09 -929.95) rotate(-19.22)" xlink:href="#p"/><linearGradient id="bx" x1="332.34" y1="2142.52" x2="354.63" y2="2142.52" gradientTransform="translate(797.09 -929.95) rotate(-19.22)" xlink:href="#p"/><linearGradient id="by" x1="325.17" y1="2163.91" x2="349.57" y2="2163.91" gradientTransform="translate(797.09 -929.95) rotate(-19.22)" xlink:href="#p"/></defs><g id="a"/><g id="b"/><g id="c"/><g id="d"/><g id="e"><g><rect class="cb" x=".82" width="1919.11" height="1080"/><g><polygon class="ca" points="1919 1080 1.86 1080 1.86 0 1920 0 1919 1080"/><polygon class="cg" points="610.83 449.5 856.03 407 897.15 449.5 941.07 428.25 1000.89 461 1009.88 550 1103.76 550 1126.77 625 1126.77 651.09 1160.69 658 1204.69 705 1248.61 906.45 610.83 449.5"/><polygon class="cf" points="1614.03 0 1496.41 161 1506.4 268 1429.49 268 1397.51 317 1414.49 369 1337.57 429 1351.55 515 1418.49 605 1367.26 634.09 1201.7 640 1043.85 734.08 1083.81 887 1920 899 1920 0 1614.03 0"/><polygon class="ci" points="497.93 0 618.26 228.13 734.73 228.13 796.09 357 773.11 460 889 512 959.5 462.58 1043.85 497.61 1071.82 597 1043.85 658 1112.78 671 1130.77 731 1303.54 828.42 451.43 810 39.82 473 0 344.07 0 0 497.93 0"/><polyline class="ep" points="0 784.69 1080.56 810 1920 849 1920 1080 .86 1080 0 784.69"/><polygon class="ch" points="468.41 759 420.46 692 468.41 634.09 579.3 664 603.61 759 621.49 696.54 664.15 696.54 704.06 718 724.7 759 711.17 688 758.13 653 811.08 653 920.09 718 902.2 759 949.94 703 1000.89 680 1092.09 718 1067.33 784.69 1101.79 764 1171.9 784.69 1193.7 827 1219.68 770 1257.64 791 1316.59 743 1409.5 748 1416.49 835 1482.42 743 1605.31 754 1616.29 804 1622.29 849 1697.22 795 1784.13 815 1798 849 1920 879 1920 962 451.43 840.5 468.41 759"/><polygon class="ck" points="642.65 797.99 618.26 752 659.64 718 683.2 724 683.2 758 701.18 771 678.21 690 732.15 658 795.09 679 801.67 728 836.05 696 873.02 735 873.02 765.99 896.99 774 885 709 959.5 677.91 999.27 728 999.27 776.81 1043.85 797.99 1097.8 751 1152.11 797.99 1169.73 752.09 1207.69 728 1252.65 772 1232.39 818.53 1308.03 784.69 1362.07 818.53 1386.52 851 1425.36 797.99 1474.76 797.99 1508.73 826.26 1496.38 851 1539.37 804 1569.34 822 1563.09 851 1600.32 836.73 1671.24 873 1878.95 961.9 642.65 797.99"/><polygon class="cj" points="0 718.35 1920 925 1920 1080 0 1070.09 0 718.35"/><polygon class="cl" points="1.36 718 0 980.92 157.71 981 363.65 981 400.47 984 703.37 981 1086.1 981 1319.58 998 1490.42 998 1920 1008 1920 925 1.36 718"/><polygon class="et" points="0 1022.53 319.55 1060 633.37 1042.91 818.29 1080 0 1080 0 1022.53"/><polygon class="cd" points="0 50.53 201.67 283 236.63 440 423.45 493 438.44 640 553.33 672 536.34 761 619.26 872 683.6 808.09 757.13 831 822.87 872 1018.13 899 1043.85 914 1043.85 931.73 613.9 931.73 387.49 945 300.57 932 0 930.26 0 50.53"/><polygon class="cc" points="0 847.16 75.79 810 188.95 846.97 234.64 886 255.62 906 301.57 918 301.57 965.86 157.71 981 0 972 0 847.16"/><polygon class="ce" points="340.53 968 370.5 934 412.46 925 444.73 941.65 451.43 961 439.44 973 363.65 981 340.53 968"/></g><polygon class="ex" points="1456.97 920.98 1743.52 944.39 1743.52 939.51 1452.09 915.12 1456.97 920.98"/><polygon class="ew" points="1643.73 976.1 1822.81 986.28 1830.87 984.69 1842.93 985.35 1839.41 987.71 1842.93 990.76 1826.09 990.76 1821.68 988.33 1641.47 977.11 1643.73 976.1"/><polygon class="eu" points="1666.52 928.78 1846.2 939.92 1854.26 938.32 1866.33 938.98 1862.8 941.35 1866.33 944.39 1849.48 944.39 1845.07 941.97 1664.86 930.74 1666.52 928.78"/><polygon class="ev" points="1615.17 980.46 1794.25 990.65 1802.31 989.05 1814.38 989.72 1810.85 992.08 1814.38 995.12 1797.53 995.12 1793.12 992.7 1612.91 981.47 1615.17 980.46"/><polygon class="c`" points="577.87 602.26 589.95 789.24 597.09 789.72 582.39 600.64 577.87 602.26"/><polygon class="cn" points="356.36 382.46 220.38 511.23 224.58 517.03 360.49 384.91 356.36 382.46"/><polygon class="cm" points="1653.87 738.84 1452.36 915.13 1456.55 920.93 1658.68 740.8 1653.87 738.84"/><polygon class="co" points="238.93 602.93 123.28 884.91 133.38 890.7 246.7 603.8 238.93 602.93"/><polygon class="da" points="582.57 577.57 397.8 547.53 395.74 554.39 583.13 582.35 582.57 577.57"/><polygon class="cp" points="47.76 288.44 97.82 181.5 98.92 180.49 102.57 172.84 100.58 173.54 99.43 171.33 95.77 178.98 96.18 181.02 45.55 287.45 41.42 291.94 40.99 300.88 47.98 293.83 47.76 288.44"/><polygon class="cr" points="75.52 280.81 150.79 189.86 152.1 189.16 157.56 182.67 155.45 182.86 154.89 180.43 149.43 186.91 149.32 188.99 73.64 279.3 68.51 282.62 65.85 291.16 74.39 286.09 75.52 280.81"/><polygon class="di" points="115.48 597.88 190.75 506.93 192.06 506.23 197.52 499.75 195.41 499.93 194.85 497.5 189.39 503.99 189.28 506.07 113.6 596.37 108.48 599.69 105.81 608.23 114.35 603.16 115.48 597.88"/><polygon class="cu" points="170.39 586.14 281.06 545.21 282.55 545.26 290.52 542.39 288.6 541.49 289.33 539.1 281.36 541.98 280.22 543.72 169.51 583.89 163.42 584.19 156.84 590.24 166.76 590.14 170.39 586.14"/><polygon class="cx" points="98.27 569.6 134.56 457.22 135.52 456.09 138.19 448.04 136.3 448.99 134.88 446.94 132.21 454.99 132.87 456.96 95.96 568.89 92.43 573.87 93.11 582.79 99.17 574.92 98.27 569.6"/><polygon class="d`" points="1642.64 966.76 1625.54 849.91 1625.9 848.46 1624.74 840.06 1623.47 841.75 1621.29 840.54 1622.45 848.94 1623.92 850.42 1640.26 967.15 1639.28 973.18 1643.84 980.88 1645.8 971.14 1642.64 966.76"/><polygon class="cq" points="1670.69 918.08 1714.41 808.39 1715.45 807.32 1718.65 799.47 1716.7 800.29 1715.42 798.15 1712.22 806 1712.75 808.01 1668.43 917.22 1664.57 921.95 1664.66 930.9 1671.23 923.45 1670.69 918.08"/><polygon class="cs" points="1610.12 960.62 1551.04 858.39 1550.84 856.92 1546.65 849.55 1546.09 851.59 1543.62 851.27 1547.8 858.64 1549.71 859.47 1608.05 961.86 1609.38 967.82 1616.46 973.29 1614.68 963.51 1610.12 960.62"/><polygon class="ct" points="133.94 420.51 237.42 363.78 238.9 363.62 246.37 359.6 244.34 358.99 244.71 356.53 237.25 360.54 236.38 362.43 132.75 418.41 126.76 419.6 121.14 426.55 130.94 424.99 133.94 420.51"/><polygon class="cw" points="199.04 409.15 316.78 401.51 318.19 401.98 326.65 401.5 325.07 400.09 326.45 398.02 317.99 398.5 316.4 399.84 198.84 406.74 192.92 405.28 184.89 409.21 194.43 411.95 199.04 409.15"/><polygon class="dn" points="108.23 395.45 190.42 310.72 191.78 310.13 197.73 304.09 195.62 304.1 195.25 301.64 189.3 307.67 189.02 309.74 106.47 393.8 101.1 396.7 97.77 405 106.68 400.62 108.23 395.45"/><polygon class="de" points="46.65 238.75 40.53 132.17 40.97 130.9 40.59 123.25 39.31 124.66 37.44 123.4 37.82 131.06 39.03 132.5 44.47 238.92 43.12 244.27 46.61 251.56 49.15 242.95 46.65 238.75"/><polygon class="dh" points="65.46 220.74 86.24 116.03 86.99 114.91 88.54 107.41 86.94 108.46 85.45 106.77 83.9 114.27 84.7 115.97 63.31 220.35 60.66 225.19 62.21 233.13 66.82 225.43 65.46 220.74"/><polygon class="dj" points="557.41 886.01 587.49 771.82 588.39 770.63 590.62 762.45 588.78 763.5 587.25 761.53 585.02 769.71 585.79 771.65 555.07 885.44 551.81 890.6 552.98 899.47 558.6 891.28 557.41 886.01"/><polygon class="cv" points="575.53 874.96 650.79 784.01 652.1 783.31 657.56 776.82 655.45 777 654.89 774.57 649.43 781.06 649.32 783.14 573.64 873.45 568.52 876.76 565.86 885.3 574.39 880.24 575.53 874.96"/><polygon class="cy" points="929.57 818.87 942.17 762.27 942.59 761.67 943.53 757.61 942.65 758.16 941.86 757.23 940.92 761.28 941.34 762.22 928.41 818.63 926.91 821.23 927.65 825.56 930.25 821.43 929.57 818.87"/><polygon class="dc" points="925.4 818.2 934.53 760.94 934.91 760.31 935.6 756.21 934.75 756.81 933.91 755.92 933.22 760.03 933.69 760.94 924.23 818.04 922.89 820.72 923.89 825 926.24 820.72 925.4 818.2"/><polygon class="dd" points="722.42 795.11 721.96 737.12 722.23 736.44 722.23 732.28 721.49 733.01 720.52 732.28 720.52 736.44 721.13 737.26 721.24 795.14 720.36 798 722.06 802.05 723.66 797.45 722.42 795.11"/><polygon class="db" points="780.45 804.24 793.05 747.64 793.47 747.04 794.41 742.98 793.53 743.53 792.74 742.59 791.8 746.65 792.22 747.59 779.29 804 777.79 806.59 778.53 810.92 781.13 806.8 780.45 804.24"/><polygon class="dk" points="776.28 803.57 785.4 746.3 785.78 745.68 786.47 741.57 785.63 742.18 784.78 741.29 784.09 745.4 784.57 746.3 775.1 803.4 773.76 806.09 774.77 810.36 777.12 806.09 776.28 803.57"/><polygon class="dm" points="600.59 794.13 600.12 736.14 600.39 735.47 600.39 731.3 599.66 732.04 598.68 731.3 598.68 735.47 599.3 736.28 599.4 794.16 598.53 797.03 600.23 801.08 601.83 796.47 600.59 794.13"/><polygon class="do" points="675.84 794.48 663.24 737.88 662.82 737.28 661.88 733.22 662.76 733.77 663.55 732.84 664.49 736.89 664.07 737.83 677 794.24 678.5 796.84 677.76 801.17 675.16 797.04 675.84 794.48"/><polygon class="dg" points="851.55 817.23 842.42 759.96 842.04 759.34 841.36 755.23 842.2 755.84 843.05 754.95 843.73 759.06 843.26 759.96 852.72 817.06 854.06 819.74 853.06 824.02 850.71 819.74 851.55 817.23"/><polygon class="df" points="635.42 789.25 635.89 731.27 635.62 730.59 635.62 726.42 636.35 727.16 637.33 726.42 637.33 730.59 636.72 731.4 636.61 789.28 637.49 792.15 635.79 796.2 634.18 791.59 635.42 789.25"/><polygon class="dl" points="1438.34 871.55 1450.95 814.95 1451.37 814.35 1452.31 810.3 1451.42 810.85 1450.64 809.91 1449.7 813.97 1450.11 814.9 1437.18 871.31 1435.68 873.91 1436.43 878.24 1439.03 874.12 1438.34 871.55"/><polygon class="ea" points="1434.18 870.89 1443.3 813.62 1443.68 813 1444.37 808.89 1443.52 809.49 1442.68 808.61 1441.99 812.71 1442.46 813.62 1433 870.72 1431.66 873.4 1432.67 877.68 1435.01 873.4 1434.18 870.89"/><polygon class="dw" points="1231.2 847.79 1230.73 789.8 1231 789.12 1231 784.96 1230.27 785.7 1229.29 784.96 1229.29 789.12 1229.9 789.94 1230.01 847.82 1229.13 850.69 1230.83 854.74 1232.44 850.13 1231.2 847.79"/><polygon class="e`" points="1289.22 856.92 1301.83 800.32 1302.24 799.72 1303.18 795.66 1302.3 796.21 1301.51 795.28 1300.58 799.33 1300.99 800.27 1288.06 856.68 1286.56 859.28 1287.3 863.61 1289.9 859.48 1289.22 856.92"/><polygon class="dy" points="1285.05 856.25 1294.18 798.99 1294.56 798.36 1295.25 794.26 1294.4 794.86 1293.56 793.97 1292.87 798.08 1293.34 798.99 1283.88 856.09 1282.54 858.77 1283.54 863.04 1285.89 858.77 1285.05 856.25"/><polygon class="dt" points="1107.41 838.03 1106.95 780.05 1107.22 779.37 1107.22 775.2 1106.49 775.94 1105.51 775.2 1105.51 779.37 1106.12 780.19 1106.23 838.06 1105.35 840.93 1107.05 844.98 1108.66 840.38 1107.41 838.03"/><polygon class="dp" points="1184.61 847.16 1172.01 790.56 1171.59 789.96 1170.65 785.91 1171.54 786.46 1172.32 785.52 1173.26 789.58 1172.85 790.51 1185.77 846.92 1187.28 849.52 1186.53 853.85 1183.93 849.72 1184.61 847.16"/><polygon class="dr" points="1360.32 869.91 1351.2 812.65 1350.82 812.02 1350.13 807.92 1350.98 808.52 1351.82 807.63 1352.51 811.74 1352.04 812.65 1361.5 869.74 1362.84 872.43 1361.83 876.7 1359.49 872.43 1360.32 869.91"/><polygon class="dq" points="1144.2 841.94 1144.66 783.95 1144.39 783.27 1144.39 779.11 1145.13 779.84 1146.11 779.11 1146.11 783.27 1145.49 784.09 1145.38 841.96 1146.26 844.83 1144.56 848.88 1142.96 844.28 1144.2 841.94"/><polygon class="dx" points="546.65 832.9 540.53 726.32 540.97 725.05 540.6 717.39 539.31 718.81 537.45 717.55 537.82 725.2 539.03 726.65 544.48 833.06 543.12 838.42 546.61 845.71 549.15 837.09 546.65 832.9"/><polygon class="ef" points="565.46 814.89 586.25 710.18 586.99 709.06 588.54 701.55 586.94 702.6 585.45 700.91 583.9 708.42 584.7 710.12 563.31 814.5 560.66 819.34 562.21 827.28 566.82 819.58 565.46 814.89"/><path class="ei" d="M774.6,720.47l16.76,5.95c-.25,1.68-.11,2.88,.49,3.11,1.04,.4,3.05-2.28,4.49-5.99,1.44-3.71,1.76-7.05,.72-7.45-.61-.24-1.57,.6-2.54,2.09l-17.05-6.03,13.29-29.34c1.5,0,2.71-.51,3.26-1.51,1.05-1.92-.72-4.92-3.96-6.7-3.24-1.78-6.72-1.68-7.77,.24-.64,1.16-.24,2.72,.9,4.17l-13.92,29.72-18.38-7.81c.25-1.36,.14-2.33-.37-2.57-1.01-.48-3.22,2.03-4.94,5.62-1.72,3.59-2.3,6.89-1.29,7.37,.54,.26,1.44-.35,2.41-1.54l19.18,7.49-46.76,109.13,3.36,2.58,52.1-108.53Z"/><path class="eh" d="M1845.89,815.34l24.1,8.56c-.37,2.41-.15,4.14,.7,4.47,1.5,.58,4.39-3.27,6.45-8.61,2.07-5.33,2.53-10.13,1.04-10.71-.88-.34-2.25,.86-3.65,3l-24.51-8.67,19.1-42.18c2.15,0,3.9-.73,4.69-2.17,1.51-2.75-1.03-7.07-5.69-9.63-4.66-2.57-9.66-2.41-11.17,.34-.92,1.67-.34,3.91,1.29,5.99l-20.01,42.72-26.43-11.23c.35-1.96,.21-3.35-.53-3.7-1.45-.69-4.62,2.92-7.1,8.08-2.47,5.16-3.3,9.91-1.86,10.6,.78,.37,2.07-.51,3.47-2.21l27.58,10.76-67.22,156.88,4.84,3.72,74.9-156.02Z"/><polyline class="ec" points="1154.6 889.65 1239.14 900.55 1245.54 888.19 1229.13 872.41 1185.38 867.96 1160.67 876.1 1154.6 889.65"/><g><polygon class="ds" points="360.72 948.05 344.04 909.97 369.4 871.22 411.12 872.89 435.14 895.61 433.14 906.3 443.15 912.31 449.49 927.68 431.22 948.05 401.1 934.69 388.76 946.72 360.72 948.05"/><polygon class="dv" points="424.8 907.09 415.45 899.74 407.11 912.1 408.45 919.11 418.79 917.11 424.8 907.09"/><polygon class="du" points="424.8 901.13 424.8 895.61 428.71 895.61 430.14 903.74 424.8 901.13"/><polygon class="eg" points="434.14 923.45 436.48 921.12 429.1 909.42 427.47 914.77 434.14 923.45"/></g><g><path class="ek" d="M1179.78,887.49l17.33-17.3-.9-21.48-16.71-20.06-32.83,12.62-6.79,11.13-5.87,7.44s1,6.55,1.62,8.96,1.77,13.75,1.77,13.75l17.21,7.1,13.25-13.98,11.92,11.82Z"/><polygon class="en" points="1169.16 867.73 1172.75 857.45 1168.32 850.28 1157.49 854.16 1154.23 861.42 1162.52 867.96 1169.16 867.73"/><polygon class="em" points="1152.51 851.7 1150.21 844.69 1144.88 844.29 1141.18 854.93 1145.34 857.63 1152.51 851.7"/><polygon class="ej" points="1150.79 866.06 1151.16 855.58 1148.2 856.76 1140.82 862.58 1147.09 867.27 1150.79 866.06"/></g><polygon class="ey" points="1699.71 958.58 1681.64 955.5 1598.11 961.66 1560.52 982.58 1564.02 990.26 1590.77 989.39 1616.17 996.32 1616.17 1008.92 1595.85 1017.12 1562.99 1015.13 1561.11 1019.83 1604.88 1041.77 1688.42 1044.88 1723.42 1046.62 1723.55 1046.54 1712.48 1038.87 1744.83 1047.62 1696.98 1034.68 1702.38 1031.22 1739.45 1041.56 1730.01 1038.93 1881.92 945.76 1892 943 1891.83 947.54 1746.74 1043.59 1770.63 1050.26 1767.09 1053.65 1752.34 1049.65 1732.25 1048.33 1737.43 1050.65 1715.51 1061.28 1711.98 1060.47 1709.41 1062.17 1708.87 1067.5 1694.3 1069 1690.55 1062.83 1702.12 1061.05 1705.23 1058.94 1688.42 1055.12 1602.63 1059.54 1502.02 1029.67 1388.14 1019.17 1236.44 1039.28 1236.56 1031.8 1227.85 1032.52 1043.41 1047.92 1013.85 1055.06 984 1034.03 993.05 1021.23 998.05 1030.42 1043.41 1034.58 1223.33 1010.96 1285 998 1228.1 981.69 1124.21 958.28 1101.65 958.79 1074.57 938.26 1126.47 945.45 1232.62 964.23 1238.15 964.19 1239.39 959.1 1392.66 982.2 1555.21 970.91 1502.02 974.6 1584.56 947.29 1681.64 944.75 1700.86 943.22 1712.71 943.22 1720.07 952.69 1699.71 958.58"/><g><g><polygon class="eq" points="957.16 365.58 994.25 426.06 987.52 430.85 950.56 368.71 957.16 365.58"/><polygon class="eq" points="936.13 426.29 964.41 407.31 979.35 417.11 958.34 381.79 961.12 401.09 933.95 419.83 936.13 426.29"/><polygon class="eq" points="979.24 401.58 1160.79 266.93 1166.16 258 1157.3 258.15 970.14 386.75 979.24 401.58"/><polygon class="eq" points="932.66 436.55 936.13 426.29 933.95 419.83 923.55 420.31 920.64 433.22 932.66 436.55"/></g><polygon class="eq" points="987.71 556.5 1051.75 548.5 1111.78 556.5 1089.77 700.58 1017.73 704.58 987.71 556.5"/><polygon class="eq" points="1147.27 410.38 1135.79 428.43 1141.79 444.44 1162.75 444.44 1165.74 427.41 1165.74 416.91 1147.27 410.38"/><polygon class="eq" points="1087.28 553.23 1129.79 518.48 1157.8 530.49 1104.58 603.65 1111.78 556.5 1087.28 553.23"/><polygon class="eq" points="1018.03 552.71 973.71 512.48 939.08 514.48 997.27 603.65 987.71 556.5 1018.03 552.71"/><polygon class="eq" points="1111.78 556.5 1059.75 572.51 1055.71 603.65 1048.81 603.65 1045.74 572.51 987.71 556.5 1053.75 544.5 1111.78 556.5"/><polygon class="eq" points="939.08 514.48 947.69 438.44 967.64 438.44 973.71 512.48 939.08 514.48"/><polygon class="eq" points="1129.79 518.48 1141.79 444.44 1162.75 444.44 1157.8 530.49 1129.79 518.48"/><polygon class="eq" points="947.69 438.44 935.69 414.43 956.39 395 963.7 402.42 967.64 438.44 947.69 438.44"/><polygon class="eq" points="1017.73 704.58 991.72 846.65 1033.74 850.66 1089.77 700.58 1017.73 704.58"/><polygon class="eq" points="1053.75 844.65 1087.77 840.65 1089.77 700.58 1017.73 704.58 1053.75 844.65"/><polygon class="eq" points="1033.74 850.66 999.72 1006.74 980.74 1006.74 991.72 846.65 1033.74 850.66"/><polygon class="eq" points="1053.75 844.65 1059.75 918.69 1081.76 918.69 1087.77 840.65 1053.75 844.65"/><polygon class="eq" points="1059.75 936.7 1105.78 958.71 1081.76 918.69 1059.75 918.69 1059.75 936.7"/><polygon class="eq" points="999.72 1006.74 1015.73 1034.75 1013.73 1054.76 983.71 1052.76 979.71 1032.75 980.74 1006.74 999.72 1006.74"/><polygon class="eq" points="1017.73 704.58 978.55 839.04 1031.74 838.65 1049.75 763.91 1061.75 838.65 1097.77 834.65 1089.77 700.58 1017.73 704.58"/><polygon class="eq" points="1026.23 554.25 1053.25 545.25 1073.51 556.5 1075.76 524.99 1062.25 502.47 1037.7 502.47 1021.73 520.48 1026.23 554.25"/></g><g><path class="ee" d="M1752.48,1064.13l-40.06-40,2.09-49.65,38.62-46.37,75.89,29.18,15.7,25.73,13.57,17.19s-2.31,15.14-3.74,20.71-4.09,31.79-4.09,31.79l-39.78,16.42-30.64-32.32-27.56,27.33Z"/><polygon class="ed" points="1777.01 1018.45 1768.74 994.69 1778.98 978.13 1804.01 987.1 1811.54 1003.87 1792.37 1019 1777.01 1018.45"/><polygon class="el" points="1815.51 981.4 1820.82 965.21 1833.14 964.28 1841.71 988.88 1832.08 995.11 1815.51 981.4"/><polygon class="eb" points="1819.49 1014.59 1818.64 990.38 1825.48 993.1 1842.53 1006.55 1828.05 1017.41 1819.49 1014.59"/></g><g><g><polygon class="eq" points="957.16 365.58 994.25 426.06 987.52 430.85 950.56 368.71 957.16 365.58"/><polygon class="eq" points="936.13 426.29 964.41 407.31 979.35 417.11 958.34 381.79 961.12 401.09 933.95 419.83 936.13 426.29"/><polygon class="eq" points="979.24 401.58 1160.79 266.93 1166.16 258 1157.3 258.15 970.14 386.75 979.24 401.58"/><polygon class="eq" points="932.66 436.55 936.13 426.29 933.95 419.83 923.55 420.31 920.64 433.22 932.66 436.55"/></g><polygon class="eq" points="987.71 556.5 1051.75 548.5 1111.78 556.5 1089.77 700.58 1017.73 704.58 987.71 556.5"/><polygon class="eo" points="1147.27 410.38 1135.79 428.43 1141.79 444.44 1162.75 444.44 1165.74 427.41 1165.74 416.91 1147.27 410.38"/><polygon class="es" points="1087.28 553.23 1129.79 518.48 1157.8 530.49 1104.58 603.65 1111.78 556.5 1087.28 553.23"/><polygon class="es" points="1018.03 552.71 973.71 512.48 939.08 514.48 997.27 603.65 987.71 556.5 1018.03 552.71"/><polygon class="eo" points="1111.78 556.5 1059.75 572.51 1055.71 603.65 1048.81 603.65 1045.74 572.51 987.71 556.5 1053.75 544.5 1111.78 556.5"/><polygon class="es" points="939.08 514.48 947.69 438.44 967.64 438.44 973.71 512.48 939.08 514.48"/><polygon class="es" points="1129.79 518.48 1141.79 444.44 1162.75 444.44 1157.8 530.49 1129.79 518.48"/><polygon class="eo" points="947.69 438.44 935.69 414.43 956.39 395 963.7 402.42 967.64 438.44 947.69 438.44"/><polygon class="es" points="1017.73 704.58 991.72 846.65 1033.74 850.66 1089.77 700.58 1017.73 704.58"/><polygon class="es" points="1053.75 844.65 1087.77 840.65 1089.77 700.58 1017.73 704.58 1053.75 844.65"/><polygon class="eq" points="1033.74 850.66 999.72 1006.74 980.74 1006.74 991.72 846.65 1033.74 850.66"/><polygon class="eq" points="1053.75 844.65 1059.75 918.69 1081.76 918.69 1087.77 840.65 1053.75 844.65"/><polygon class="er" points="1059.75 936.7 1105.78 958.71 1081.76 918.69 1059.75 918.69 1059.75 936.7"/><polygon class="er" points="999.72 1006.74 1015.73 1034.75 1013.73 1054.76 983.71 1052.76 979.71 1032.75 980.74 1006.74 999.72 1006.74"/><polygon class="eo" points="1017.73 704.58 978.55 839.04 1031.74 838.65 1049.75 763.91 1061.75 838.65 1097.77 834.65 1089.77 700.58 1017.73 704.58"/><polygon class="er" points="1026.23 554.25 1053.25 545.25 1073.51 556.5 1075.76 524.99 1062.25 502.47 1037.7 502.47 1021.73 520.48 1026.23 554.25"/></g></g></g></svg>